<svg width="16" height="16" viewBox="0 0 16 16" fill="none" xmlns="http://www.w3.org/2000/svg">
<path d="M13.9499 8.78364C13.9833 8.53364 13.9999 8.2753 13.9999 8.0003C13.9999 7.73364 13.9833 7.46697 13.9416 7.21697L15.6333 5.9003C15.7833 5.78364 15.8249 5.55864 15.7333 5.39197L14.1333 2.6253C14.0333 2.44197 13.8249 2.38364 13.6416 2.44197L11.6499 3.24197C11.2333 2.9253 10.7916 2.65864 10.2999 2.45864L9.99993 0.341972C9.96659 0.141972 9.79993 0.000305176 9.59993 0.000305176H6.39993C6.19993 0.000305176 6.04159 0.141972 6.00826 0.341972L5.70826 2.45864C5.21659 2.65864 4.76659 2.93364 4.35826 3.24197L2.36659 2.44197C2.18326 2.3753 1.97493 2.44197 1.87493 2.6253L0.283262 5.39197C0.183262 5.56697 0.216595 5.78364 0.383262 5.9003L2.07493 7.21697C2.03326 7.46697 1.99993 7.74197 1.99993 8.0003C1.99993 8.25864 2.0166 8.53364 2.05826 8.78364L0.366595 10.1003C0.216595 10.217 0.174929 10.442 0.266595 10.6086L1.8666 13.3753C1.9666 13.5586 2.17493 13.617 2.35826 13.5586L4.34993 12.7586C4.76659 13.0753 5.20826 13.342 5.69993 13.542L5.99993 15.6586C6.04159 15.8586 6.19993 16.0003 6.39993 16.0003H9.59993C9.79993 16.0003 9.96659 15.8586 9.99159 15.6586L10.2916 13.542C10.7833 13.342 11.2333 13.0753 11.6416 12.7586L13.6333 13.5586C13.8166 13.6253 14.0249 13.5586 14.1249 13.3753L15.7249 10.6086C15.8249 10.4253 15.7833 10.217 15.6249 10.1003L13.9499 8.78364ZM7.99993 11.0003C6.34993 11.0003 4.99993 9.6503 4.99993 8.0003C4.99993 6.35031 6.34993 5.0003 7.99993 5.0003C9.64993 5.0003 10.9999 6.35031 10.9999 8.0003C10.9999 9.6503 9.64993 11.0003 7.99993 11.0003Z" fill="#8A92A6"/>
</svg>
