<svg width="15" height="13" viewBox="0 0 15 13" fill="none" xmlns="http://www.w3.org/2000/svg">
<path d="M14.25 6.65889C14.25 2.69389 11.055 0 7.5 0C3.9825 0 0.75 2.63611 0.75 6.70222C0.3 6.94778 0 7.41 0 7.94444V9.38889C0 10.1833 0.675 10.8333 1.5 10.8333H2.25V6.42778C2.25 3.63278 4.5975 1.37222 7.5 1.37222C10.4025 1.37222 12.75 3.63278 12.75 6.42778V11.5556H6.75V13H12.75C13.575 13 14.25 12.35 14.25 11.5556V10.6744C14.6925 10.4506 15 10.01 15 9.49V7.82889C15 7.32333 14.6925 6.88278 14.25 6.65889Z" fill="#8A92A6"/>
</svg>
