<svg width="25" height="25" viewBox="0 0 25 25" fill="none" xmlns="http://www.w3.org/2000/svg">
<mask id="mask0_2246_6974" style="mask-type:alpha" maskUnits="userSpaceOnUse" x="0" y="0" width="25" height="25">
<rect x="0.667969" y="0.74707" width="24" height="24" fill="white"/>
</mask>
<g mask="url(#mask0_2246_6974)">
<path fill-rule="evenodd" clip-rule="evenodd" d="M2.66797 12.7471C2.66797 18.2611 7.15397 22.7471 12.668 22.7471C18.182 22.7471 22.668 18.2611 22.668 12.7471C22.668 7.23307 18.182 2.74707 12.668 2.74707C7.15397 2.74707 2.66797 7.23307 2.66797 12.7471ZM4.66797 12.7471C4.66797 8.33607 8.25697 4.74707 12.668 4.74707C17.079 4.74707 20.668 8.33607 20.668 12.7471C20.668 17.1581 17.079 20.7471 12.668 20.7471C8.25697 20.7471 4.66797 17.1581 4.66797 12.7471ZM11.668 7.74707V13.7471H17.668V11.7471H13.668V7.74707H11.668Z" fill="#2D2D2D"/>
</g>
</svg>
