<svg width="135" height="34" viewBox="0 0 135 34" fill="none" xmlns="http://www.w3.org/2000/svg">
<path d="M5.92753 25.2884H1.22461V1.47513H5.92753C9.56161 1.47513 12.4831 2.58189 14.6921 4.79542C15.8559 5.9617 16.711 7.31838 17.2573 8.86547C17.8273 10.4126 18.1124 11.924 18.1124 13.3996C18.1124 14.8515 17.8392 16.351 17.2929 17.8981C16.7466 19.4214 15.8797 20.7781 14.6921 21.9681C12.4831 24.1817 9.56161 25.2884 5.92753 25.2884ZM2.79225 2.90321V23.8604H5.8919C9.02718 23.8604 11.5687 22.8964 13.5163 20.9685C15.4878 19.0167 16.4735 16.4938 16.4735 13.3996C16.4735 10.3293 15.4878 7.81821 13.5163 5.86649C11.5449 3.89098 9.00343 2.90321 5.8919 2.90321H2.79225ZM35.2141 18.1837H22.7799C22.7799 19.9927 23.3381 21.4683 24.4544 22.6108C25.5945 23.7532 26.9602 24.3245 28.5516 24.3245C29.6917 24.3245 30.7011 24.027 31.58 23.4319C32.4589 22.8132 33.1359 22.0038 33.6108 21.0042L34.8222 21.7182C34.276 22.7654 33.4801 23.6937 32.4351 24.503C31.3901 25.2884 30.0598 25.6812 28.4447 25.6812C26.2358 25.6812 24.49 24.9671 23.2074 23.539C21.9248 22.0871 21.2835 20.2663 21.2835 18.0766C21.2835 15.6727 21.9722 13.7924 23.3499 12.4357C24.7512 11.079 26.4139 10.4007 28.3379 10.4007C30.3092 10.4007 31.9481 11.1266 33.2546 12.5785C34.561 14.0304 35.2141 15.8988 35.2141 18.1837ZM22.8867 16.827H33.7177C33.5278 15.3514 32.9339 14.1375 31.9363 13.1854C30.9625 12.2334 29.763 11.7573 28.3379 11.7573C26.8889 11.7573 25.6657 12.2453 24.6682 13.2211C23.6706 14.1732 23.0767 15.3751 22.8867 16.827ZM53.0331 18.1837H40.5989C40.5989 19.9927 41.1569 21.4683 42.2734 22.6108C43.4135 23.7532 44.7792 24.3245 46.3706 24.3245C47.5107 24.3245 48.5201 24.027 49.399 23.4319C50.2777 22.8132 50.9547 22.0038 51.4298 21.0042L52.6412 21.7182C52.0948 22.7654 51.2991 23.6937 50.2541 24.503C49.2089 25.2884 47.8788 25.6812 46.2638 25.6812C44.0548 25.6812 42.309 24.9671 41.0264 23.539C39.7438 22.0871 39.1025 20.2663 39.1025 18.0766C39.1025 15.6727 39.7912 13.7924 41.1689 12.4357C42.5702 11.079 44.2329 10.4007 46.1569 10.4007C48.1282 10.4007 49.7671 11.1266 51.0736 12.5785C52.3798 14.0304 53.0331 15.8988 53.0331 18.1837ZM40.7057 16.827H51.5367C51.3466 15.3514 50.7529 14.1375 49.7553 13.1854C48.7814 12.2334 47.582 11.7573 46.1569 11.7573C44.7079 11.7573 43.4847 12.2453 42.4872 13.2211C41.4896 14.1732 40.8957 15.3751 40.7057 16.827ZM57.6826 22.6822V33.4999H56.2575V10.722H57.6826V13.2568C59.084 11.3527 60.9842 10.4007 63.3832 10.4007C65.5208 10.4007 67.231 11.1147 68.5136 12.5428C69.7962 13.9471 70.4375 15.7322 70.4375 17.8981C70.4375 20.1116 69.7844 21.9681 68.478 23.4676C67.1954 24.9433 65.4734 25.6812 63.3119 25.6812C62.2192 25.6812 61.2336 25.4669 60.3548 25.0385C59.4759 24.5862 58.8702 24.1817 58.5377 23.8246C58.2052 23.4438 57.9202 23.0631 57.6826 22.6822ZM59.1078 22.5037C60.1054 23.7175 61.4949 24.3245 63.2763 24.3245C65.0577 24.3245 66.4472 23.7175 67.4448 22.5037C68.4424 21.2898 68.9412 19.7546 68.9412 17.8981C68.9412 15.9702 68.3949 14.4707 67.3023 13.3996C66.2096 12.3048 64.8795 11.7573 63.3119 11.7573C61.7681 11.7573 60.426 12.2929 59.2859 13.3639C58.1696 14.435 57.6114 15.9226 57.6114 17.8267C57.6114 19.7071 58.1102 21.2659 59.1078 22.5037ZM86.6443 4.54551L85.5042 5.50947C84.5067 3.55774 82.951 2.58189 80.8369 2.58189C79.4831 2.58189 78.4024 3.01032 77.5948 3.86717C76.811 4.72402 76.4191 5.77128 76.4191 7.00896C76.4191 7.62779 76.5023 8.16332 76.6684 8.61555C76.8586 9.06778 77.1792 9.4843 77.6304 9.86512C78.1056 10.246 78.5211 10.5435 78.8774 10.7577C79.2337 10.9481 79.8037 11.2337 80.5875 11.6145C83.1528 12.8522 84.7324 13.6853 85.3261 14.1137C87.0126 15.28 87.8557 16.8152 87.8557 18.7192C87.8557 20.6947 87.1313 22.349 85.6824 23.6818C84.2336 25.0147 82.4878 25.6812 80.445 25.6812C78.1886 25.6812 76.3478 24.8482 74.9227 23.182C74.2339 22.3727 73.7233 21.504 73.3907 20.5758L74.7445 19.9331C75.0296 20.79 75.4571 21.5516 76.0271 22.2181C77.096 23.5747 78.5806 24.2531 80.4807 24.2531C82.0959 24.2531 83.4498 23.7294 84.5423 22.6822C85.6587 21.635 86.2168 20.3258 86.2168 18.7549C86.2168 17.2079 85.445 15.9583 83.901 15.0062C83.2122 14.6016 81.8702 13.9114 79.875 12.9355C78.5687 12.2929 77.6068 11.7692 76.9891 11.3646C76.3954 10.96 75.9084 10.4364 75.5284 9.79372C75.0295 8.96068 74.7802 8.05621 74.7802 7.08036C74.7802 5.53327 75.3028 4.16468 76.3478 2.97462C77.393 1.76074 78.9012 1.15381 80.8726 1.15381C82.0839 1.15381 83.2004 1.45132 84.2216 2.04636C85.243 2.61759 86.0507 3.45064 86.6443 4.54551ZM92.3332 1.15381H93.7583V16.9698L99.7439 10.722H101.597L95.4685 17.0412L103.592 25.2884H101.668L94.5065 18.0766L93.7583 18.8264V25.2884H92.3332V1.15381ZM106.111 10.722H107.536V25.2884H106.111V10.722ZM107.715 6.83044C107.477 7.06846 107.18 7.18746 106.824 7.18746C106.468 7.18746 106.159 7.06846 105.898 6.83044C105.66 6.56863 105.541 6.24732 105.541 5.86649C105.541 5.48566 105.66 5.17625 105.898 4.93823C106.159 4.67642 106.468 4.54551 106.824 4.54551C107.18 4.54551 107.477 4.67642 107.715 4.93823C107.976 5.17625 108.106 5.48566 108.106 5.86649C108.106 6.24732 107.976 6.56863 107.715 6.83044ZM112.652 1.15381H114.078V25.2884H112.652V1.15381ZM119.194 1.15381H120.619V25.2884H119.194V1.15381ZM133.145 12.757L131.934 13.3996C131.459 12.3048 130.616 11.7573 129.404 11.7573C128.644 11.7573 128.039 11.9954 127.587 12.4714C127.16 12.9474 126.946 13.4829 126.946 14.078C126.946 14.5302 127.077 14.9229 127.338 15.2561C127.599 15.5656 127.872 15.8036 128.157 15.9702C128.442 16.113 128.894 16.3034 129.511 16.5414C129.606 16.5652 129.832 16.6604 130.188 16.827C130.568 16.9698 130.818 17.0651 130.936 17.1127C131.055 17.1602 131.257 17.2555 131.542 17.3983C131.851 17.5172 132.076 17.6363 132.219 17.7553C132.361 17.8506 132.528 17.9813 132.718 18.148C132.932 18.3147 133.11 18.4932 133.252 18.6835C133.751 19.3023 134 20.0878 134 21.0399C134 22.5869 133.525 23.7532 132.575 24.5387C131.649 25.3003 130.544 25.6812 129.262 25.6812C128.027 25.6812 126.958 25.336 126.055 24.6458C125.153 23.9556 124.547 23.0153 124.238 21.8253L125.628 21.3969C125.865 22.3252 126.317 23.051 126.982 23.5747C127.67 24.0746 128.431 24.3245 129.262 24.3245C130.188 24.3245 130.96 24.027 131.578 23.4319C132.195 22.8132 132.504 22.0395 132.504 21.1113C132.504 20.3497 132.266 19.7665 131.791 19.3619C131.316 18.9335 130.473 18.4693 129.262 17.9695C127.599 17.2793 126.542 16.6366 126.091 16.0416C125.663 15.4704 125.45 14.8396 125.45 14.1494C125.45 13.0545 125.818 12.162 126.554 11.4717C127.29 10.7577 128.217 10.4007 129.333 10.4007C131.21 10.4007 132.48 11.1861 133.145 12.757Z" fill="#524AA8" stroke="#524AA8" stroke-width="0.5"/>
</svg>
