<svg width="54" height="34" viewBox="0 0 54 34" fill="none" xmlns="http://www.w3.org/2000/svg">
<g style="mix-blend-mode:luminosity" opacity="0.2">
<path d="M33.5643 3.71186L19.5626 3.76001L19.9869 29.3935L33.9886 29.3454L33.5643 3.71186Z" fill="#FF5F00"/>
<path d="M20.4842 16.6277C20.3976 11.414 22.7331 6.78148 26.3914 3.77659C23.6301 1.60979 20.1684 0.306822 16.4157 0.319675C7.52563 0.350122 0.454427 7.67387 0.604353 16.6958C0.754279 25.7176 8.06808 32.9921 16.9582 32.9617C20.7108 32.9488 24.1288 31.6223 26.8178 29.4368C23.0609 26.5027 20.5709 21.8413 20.4842 16.6277Z" fill="#EB001B"/>
<path d="M52.9454 16.4085C53.0953 25.4304 46.0241 32.7541 37.134 32.7846C33.3814 32.7974 29.9197 31.4944 27.1584 29.3276C30.8613 26.3226 33.1521 21.6902 33.0655 16.4766C32.9789 11.2629 30.4896 6.64689 26.732 3.6674C29.4209 1.48193 32.839 0.155399 36.5916 0.142547C45.4817 0.112099 52.7962 7.43192 52.9454 16.4085Z" fill="#F79E1B"/>
</g>
</svg>
