<svg width="62" height="18" viewBox="0 0 62 18" fill="none" xmlns="http://www.w3.org/2000/svg">
<g style="mix-blend-mode:luminosity" opacity="0.2">
<path d="M55.4237 0.102783H43.5308C44.2236 4.02863 48.0339 7.72354 52.1907 7.72354H61.6589C61.7744 7.37715 61.7744 6.79981 61.7744 6.45341C61.7744 2.98943 58.8877 0.102783 55.4237 0.102783Z" fill="url(#paint0_linear_2903_10344)"/>
<path d="M44.5698 8.41614V17.9998H50.3431V12.9193H55.4236C58.1948 12.9193 60.6196 10.9564 61.4279 8.41614H44.5698Z" fill="#4FAD50"/>
<path d="M24.2476 0.102783V17.8845H29.3281C29.3281 17.8845 30.5982 17.8845 31.291 16.6144C34.755 9.80193 35.7942 7.72354 35.7942 7.72354H36.487V17.8845H42.2603V0.102783H37.1798C37.1798 0.102783 35.9096 0.218256 35.2168 1.37292C32.3302 7.26168 30.7137 10.2638 30.7137 10.2638H30.0209V0.102783H24.2476Z" fill="#4FAD50"/>
<path d="M0 17.9999V0.21814H5.7733C5.7733 0.21814 7.38983 0.218136 8.31356 2.75839C10.6229 9.45541 10.8538 10.3791 10.8538 10.3791C10.8538 10.3791 11.3157 8.76262 13.3941 2.75839C14.3178 0.218136 15.9343 0.21814 15.9343 0.21814H21.7076V17.9999H15.9343V8.41623H15.2415L12.0085 17.9999H9.46822L6.23519 8.41623H5.54239V17.9999H0Z" fill="#4FAD50"/>
</g>
<defs>
<linearGradient id="paint0_linear_2903_10344" x1="43.5102" y1="3.96778" x2="61.7335" y2="3.96778" gradientUnits="userSpaceOnUse">
<stop stop-color="#27B1E6"/>
<stop offset="1" stop-color="#148ACA"/>
</linearGradient>
</defs>
</svg>
