<svg width="80" height="22" viewBox="0 0 80 22" fill="none" xmlns="http://www.w3.org/2000/svg">
<g style="mix-blend-mode:luminosity" opacity="0.2">
<path d="M13.6594 1.28315C12.672 0.60437 11.3836 0.26416 9.79407 0.26416H3.6404C3.15313 0.26416 2.88392 0.507856 2.83278 0.994777L0.333042 16.6863C0.307062 16.8404 0.34562 16.9814 0.448366 17.1095C0.550523 17.2379 0.679013 17.3017 0.832896 17.3017H3.75585C4.26851 17.3017 4.5503 17.0586 4.60202 16.5711L5.2942 12.3407C5.31948 12.1357 5.40964 11.969 5.56353 11.8406C5.71729 11.7125 5.90962 11.6286 6.14038 11.5903C6.37115 11.5522 6.58875 11.533 6.79424 11.533C6.99914 11.533 7.2426 11.546 7.52509 11.5715C7.80688 11.597 7.9865 11.6096 8.0635 11.6096C10.2684 11.6096 11.9991 10.9883 13.2557 9.74432C14.5116 8.50103 15.1403 6.77694 15.1403 4.57134C15.1403 3.05861 14.6463 1.96262 13.6594 1.28279V1.28315ZM10.4866 5.99483C10.358 6.89238 10.0251 7.48182 9.48665 7.76395C8.94812 8.04644 8.17895 8.18704 7.17912 8.18704L5.90985 8.22536L6.56382 4.11004C6.61484 3.82826 6.78142 3.68719 7.06368 3.68719H7.79465C8.81975 3.68719 9.56377 3.83496 10.0253 4.12932C10.4866 4.42439 10.6405 5.04638 10.4866 5.99483Z" fill="#003087"/>
<path d="M78.599 0.26416H75.7533C75.4705 0.26416 75.304 0.40523 75.2533 0.687485L72.7533 16.687L72.7147 16.7639C72.7147 16.8927 72.766 17.0139 72.8688 17.1294C72.9708 17.2446 73.0996 17.3023 73.2533 17.3023H75.792C76.2784 17.3023 76.5477 17.0592 76.5998 16.5717L79.0995 0.841366V0.80316C79.0994 0.444023 78.9322 0.264632 78.599 0.264632V0.26416Z" fill="#009CDE"/>
<path d="M44.2147 6.45687C44.2147 6.32897 44.1632 6.20694 44.0613 6.09185C43.9584 5.97653 43.843 5.91846 43.7151 5.91846H40.7537C40.4711 5.91846 40.2403 6.0473 40.0611 6.30299L35.9845 12.303L34.2922 6.53399C34.1634 6.12407 33.8817 5.91846 33.4461 5.91846H30.5611C30.4327 5.91846 30.3173 5.9763 30.2154 6.09185C30.1125 6.20694 30.0615 6.3292 30.0615 6.45687C30.0615 6.50848 30.3116 7.2646 30.8114 8.72607C31.3113 10.188 31.8497 11.7649 32.4267 13.4573C33.0037 15.1493 33.3047 16.0472 33.3305 16.1489C31.2278 19.021 30.177 20.5594 30.177 20.7642C30.177 21.0978 30.3433 21.2642 30.6769 21.2642H33.6383C33.9202 21.2642 34.1509 21.1363 34.3308 20.8798L44.1383 6.72596C44.1892 6.67517 44.2147 6.58583 44.2147 6.45675V6.45687Z" fill="#003087"/>
<path d="M71.7931 5.91862H68.8701C68.5107 5.91862 68.2936 6.34183 68.2166 7.18813C67.5491 6.16279 66.3321 5.64941 64.5625 5.64941C62.7165 5.64941 61.1459 6.34183 59.8513 7.72642C58.5563 9.11102 57.9092 10.7397 57.9092 12.6112C57.9092 14.1243 58.3514 15.3292 59.2358 16.2263C60.1204 17.1243 61.3061 17.5725 62.7938 17.5725C63.5372 17.5725 64.2935 17.4184 65.0627 17.1109C65.8319 16.8033 66.4339 16.3932 66.8706 15.8802C66.8706 15.906 66.8444 16.0209 66.7937 16.226C66.7419 16.4315 66.7166 16.5858 66.7166 16.6875C66.7166 17.0982 66.8828 17.3028 67.2167 17.3028H69.8706C70.3572 17.3028 70.6396 17.0597 70.7162 16.5722L72.2933 6.53392C72.3186 6.37992 72.2803 6.2392 72.1779 6.11083C72.0748 5.98292 71.9469 5.91862 71.7931 5.91862ZM66.7742 13.4957C66.1204 14.1367 65.3318 14.4571 64.4089 14.4571C63.665 14.4571 63.063 14.2523 62.6012 13.8418C62.1394 13.4324 61.9087 12.8683 61.9087 12.1495C61.9087 11.2015 62.2293 10.3996 62.8705 9.74583C63.5106 9.09197 64.3062 8.76516 65.2549 8.76516C65.9722 8.76516 66.5685 8.97665 67.0433 9.3995C67.5172 9.82271 67.7551 10.406 67.7551 11.1498C67.7549 12.0728 67.4279 12.855 66.7742 13.4957Z" fill="#009CDE"/>
<path d="M28.1022 5.91862H25.1791C24.8196 5.91862 24.6021 6.34183 24.5251 7.18813C23.8329 6.16279 22.6148 5.64941 20.8714 5.64941C19.0253 5.64941 17.4546 6.34183 16.1599 7.72642C14.8649 9.11102 14.2178 10.7397 14.2178 12.6112C14.2178 14.1243 14.6601 15.3292 15.5448 16.2263C16.4294 17.1243 17.6149 17.5725 19.1023 17.5725C19.8198 17.5725 20.5638 17.4184 21.3329 17.1109C22.1021 16.8033 22.7175 16.3932 23.179 15.8802C23.0761 16.1876 23.0251 16.457 23.0251 16.6875C23.0251 17.0982 23.1917 17.3028 23.5251 17.3028H26.1788C26.6656 17.3028 26.948 17.0597 27.025 16.5722L28.6018 6.53392C28.6271 6.37992 28.5887 6.2392 28.4865 6.11083C28.3838 5.98292 28.2558 5.91862 28.1022 5.91862ZM23.0831 13.5147C22.4291 14.1437 21.6275 14.4571 20.6794 14.4571C19.9354 14.4571 19.3392 14.2523 18.8909 13.8418C18.4419 13.4324 18.2178 12.8683 18.2178 12.1495C18.2178 11.2015 18.5381 10.3996 19.1794 9.74583C19.8199 9.09197 20.6149 8.76504 21.5639 8.76504C22.2815 8.76504 22.8776 8.97665 23.3524 9.3995C23.8264 9.82271 24.0639 10.406 24.0639 11.1498C24.0637 12.0985 23.7369 12.8872 23.0831 13.5147Z" fill="#003087"/>
<path d="M57.351 1.28315C56.3637 0.60437 55.0756 0.26416 53.4858 0.26416H47.3705C46.8576 0.26416 46.5753 0.507856 46.5244 0.994777L44.0244 16.6863C43.9985 16.8404 44.037 16.9814 44.1399 17.1095C44.2416 17.2379 44.3704 17.3017 44.5243 17.3017H47.6779C47.9855 17.3017 48.1906 17.1353 48.2934 16.8019L48.9857 12.3407C49.0112 12.1357 49.1009 11.969 49.255 11.8406C49.4089 11.7125 49.601 11.6286 49.832 11.5903C50.0625 11.5522 50.2801 11.533 50.4857 11.533C50.6908 11.533 50.9341 11.546 51.2164 11.5715C51.4983 11.597 51.6784 11.6096 51.7548 11.6096C53.9601 11.6096 55.6905 10.9883 56.947 9.74432C58.2035 8.50103 58.8316 6.77694 58.8316 4.57134C58.8317 3.05861 58.3378 1.96251 57.351 1.28279V1.28315ZM53.4089 7.60995C52.8448 7.99448 51.9985 8.18669 50.8706 8.18669L49.6397 8.22525L50.2935 4.10981C50.3443 3.82814 50.511 3.68684 50.7934 3.68684H51.4854C52.0496 3.68684 52.4982 3.71258 52.8321 3.76372C53.1647 3.81521 53.4858 3.9752 53.7934 4.24429C54.1013 4.51362 54.255 4.90485 54.255 5.41739C54.255 6.49469 53.9726 7.22507 53.4089 7.60995Z" fill="#009CDE"/>
</g>
</svg>
