<svg width="55" height="17" viewBox="0 0 55 17" fill="none" xmlns="http://www.w3.org/2000/svg">
<g style="mix-blend-mode:luminosity" opacity="0.2">
<path d="M50.6766 0.502441H47.2679C46.2374 0.502441 45.4446 0.819533 44.969 1.85008L38.4686 16.6741H43.0665C43.0665 16.6741 43.8592 14.6923 44.0177 14.2167C44.4934 14.2167 49.0119 14.2167 49.6461 14.2167C49.8046 14.7716 50.201 16.5948 50.201 16.5948H54.3232L50.6766 0.502441ZM45.2861 10.8872C45.6825 9.93591 47.0301 6.36863 47.0301 6.36863C47.0301 6.44791 47.4265 5.41736 47.585 4.86245L47.9021 6.28936C47.9021 6.28936 48.7741 10.1737 48.9326 10.9665H45.2861V10.8872Z" fill="#3362AB"/>
<path d="M38.7849 11.3624C38.7849 14.6918 35.7726 16.9115 31.0955 16.9115C29.1136 16.9115 27.2111 16.5151 26.1805 16.0395L26.8147 12.3929L27.3696 12.6307C28.7965 13.2649 29.7478 13.5027 31.4918 13.5027C32.7602 13.5027 34.1078 13.0271 34.1078 11.9173C34.1078 11.2038 33.5529 10.7282 31.8089 9.93545C30.1442 9.14272 27.9245 7.87436 27.9245 5.57544C27.9245 2.40453 31.0162 0.26416 35.3762 0.26416C37.0409 0.26416 38.4678 0.581252 39.3398 0.977616L38.7057 4.46562L38.3886 4.14853C37.5958 3.83144 36.5653 3.51435 35.0591 3.51435C33.3944 3.59362 32.6016 4.30708 32.6016 4.94126C32.6016 5.65472 33.5529 6.20963 35.0591 6.92308C37.5958 8.11217 38.7849 9.45981 38.7849 11.3624Z" fill="#3362AB"/>
<path d="M0.0994873 0.660842L0.17876 0.34375H6.99623C7.9475 0.34375 8.66096 0.660841 8.89878 1.69139L10.405 8.82595C8.89878 5.02085 5.41077 1.92921 0.0994873 0.660842Z" fill="#F9B50B"/>
<path d="M19.9973 0.502124L13.1006 16.5945H8.42348L4.45984 3.11813C7.31366 4.94141 9.69185 7.79523 10.5639 9.77705L11.0395 11.4418L15.3202 0.422852H19.9973V0.502124Z" fill="#3362AB"/>
<path d="M21.8203 0.422852H26.1803L23.4058 16.5945H19.0458L21.8203 0.422852Z" fill="#3362AB"/>
</g>
</svg>
