<svg width="33" height="31" viewBox="0 0 33 31" fill="none" xmlns="http://www.w3.org/2000/svg">
<g style="mix-blend-mode:luminosity" opacity="0.2">
<path d="M32.3252 12.644C32.156 11.6286 31.2251 10.9516 29.9558 10.9516C29.5327 10.9516 29.1942 10.9516 28.7711 10.9516C28.0095 10.867 27.8403 11.1208 27.8403 11.7132C27.8403 14.6749 27.8403 17.552 27.8403 20.5138C27.8403 22.0369 26.3171 23.6447 24.5401 23.9832C18.9551 25.2525 13.3701 26.4372 7.78511 27.7066C7.19277 27.8758 6.51581 27.8758 5.83884 27.8758C5.58498 27.8758 5.16188 27.7065 5.07726 27.4527C4.99264 27.2834 5.2465 26.945 5.41574 26.7757C5.6696 26.6065 6.00809 26.4372 6.34657 26.268C7.36202 25.9295 8.46208 25.591 9.47753 25.2525C13.624 23.8986 17.7704 22.5447 21.9168 21.1061C23.7785 20.5138 24.7939 19.2445 24.7939 17.6367C24.8786 12.5594 24.7939 7.39752 24.7939 2.32026C24.7939 1.47405 24.3708 0.797083 23.44 0.4586C22.3399 0.0354947 21.3245 0.373973 20.3936 0.797078C14.4702 3.58957 8.63132 6.38207 2.70786 9.17456C1.01544 10.0208 0 11.2055 0 12.8979C0 17.7213 0 22.5447 0 27.3681C0 27.6219 -2.06594e-05 27.8758 0.0846003 28.045C0.676947 29.6528 2.20015 30.6683 4.23105 30.6683C8.37748 30.6683 12.5239 30.6683 16.6703 30.6683C20.8167 30.6683 24.8786 30.6683 29.025 30.6683C29.9558 30.6683 30.7174 30.4991 31.3944 29.9067C32.2406 29.2297 32.2406 28.2989 32.2406 27.4527C32.2406 23.2895 32.3252 12.644 32.3252 12.644ZM15.0625 11.1208C15.4856 10.0208 16.4165 9.3438 17.7704 9.17456C18.7012 9.08994 19.4628 9.59767 19.632 10.4439C19.8013 11.7132 18.2781 13.2364 16.6703 13.2364C15.401 13.2364 14.6394 12.3055 15.0625 11.1208Z" fill="#E47418"/>
</g>
</svg>
