<svg width="19" height="19" viewBox="0 0 19 19" fill="none" xmlns="http://www.w3.org/2000/svg">
<path d="M1.625 4.25C1.14375 4.25 0.75 4.64375 0.75 5.125V16.5C0.75 17.4625 1.5375 18.25 2.5 18.25H13.875C14.3562 18.25 14.75 17.8563 14.75 17.375C14.75 16.8938 14.3562 16.5 13.875 16.5H3.375C2.89375 16.5 2.5 16.1063 2.5 15.625V5.125C2.5 4.64375 2.10625 4.25 1.625 4.25ZM16.5 0.75H6C5.0375 0.75 4.25 1.5375 4.25 2.5V13C4.25 13.9625 5.0375 14.75 6 14.75H16.5C17.4625 14.75 18.25 13.9625 18.25 13V2.5C18.25 1.5375 17.4625 0.75 16.5 0.75ZM14.75 8.625H7.75C7.26875 8.625 6.875 8.23125 6.875 7.75C6.875 7.26875 7.26875 6.875 7.75 6.875H14.75C15.2312 6.875 15.625 7.26875 15.625 7.75C15.625 8.23125 15.2312 8.625 14.75 8.625ZM11.25 12.125H7.75C7.26875 12.125 6.875 11.7313 6.875 11.25C6.875 10.7688 7.26875 10.375 7.75 10.375H11.25C11.7312 10.375 12.125 10.7688 12.125 11.25C12.125 11.7313 11.7312 12.125 11.25 12.125ZM14.75 5.125H7.75C7.26875 5.125 6.875 4.73125 6.875 4.25C6.875 3.76875 7.26875 3.375 7.75 3.375H14.75C15.2312 3.375 15.625 3.76875 15.625 4.25C15.625 4.73125 15.2312 5.125 14.75 5.125Z" fill="#8D95A8"/>
</svg>
