<svg width="50" height="50" viewBox="0 0 50 50" fill="none" xmlns="http://www.w3.org/2000/svg">
<path d="M25.0002 0.833496C11.6602 0.833496 0.833496 11.6602 0.833496 25.0002C0.833496 38.3402 11.6602 49.1668 25.0002 49.1668C38.3402 49.1668 49.1668 38.3402 49.1668 25.0002C49.1668 11.6602 38.3402 0.833496 25.0002 0.833496ZM25.0002 44.3335C14.3427 44.3335 5.66683 35.6577 5.66683 25.0002C5.66683 14.3427 14.3427 5.66683 25.0002 5.66683C35.6577 5.66683 44.3335 14.3427 44.3335 25.0002C44.3335 35.6577 35.6577 44.3335 25.0002 44.3335ZM34.3768 16.0343L20.1668 30.2443L15.6235 25.701C14.681 24.7585 13.1585 24.7585 12.216 25.701C11.2735 26.6435 11.2735 28.166 12.216 29.1085L18.4752 35.3677C19.4177 36.3102 20.9402 36.3102 21.8827 35.3677L37.8085 19.4418C38.751 18.4993 38.751 16.9768 37.8085 16.0343C36.866 15.0918 35.3193 15.0918 34.3768 16.0343Z" fill="#45C679"/>
</svg>
