<svg width="19" height="15" viewBox="0 0 19 15" fill="none" xmlns="http://www.w3.org/2000/svg">
<path d="M11.5187 0.525042C11.0541 0.392917 10.5578 0.661531 10.425 1.12703L6.92497 13.377C6.79223 13.8417 7.06191 14.3378 7.52662 14.4708C7.99125 14.6029 8.48755 14.3343 8.62037 13.8688L12.1204 1.61879C12.2531 1.15417 11.9834 0.658042 11.5187 0.525042ZM4.98361 1.40004C4.76399 1.44379 4.5434 1.5549 4.40935 1.75615L0.909349 7.00615C0.735224 7.2669 0.714311 7.60028 0.854748 7.88115L3.47975 13.1312C3.69579 13.5625 4.22324 13.7568 4.65549 13.5407C5.08774 13.3245 5.28172 12.7969 5.0656 12.3647L2.65935 7.58016L5.886 2.73967C6.15401 2.33805 6.04192 1.77804 5.63986 1.50942C5.43879 1.37554 5.20324 1.35629 4.98361 1.40004ZM15.0461 1.42717C14.8337 1.35717 14.606 1.34666 14.3899 1.45516C13.9576 1.67128 13.7636 2.1989 13.9797 2.63115L16.386 7.41567L13.1593 12.2562C12.8913 12.6578 13.0034 13.2178 13.4055 13.4864C13.8075 13.7542 14.3679 13.6422 14.636 13.2397L18.136 7.98967C18.3101 7.72892 18.331 7.39555 18.1906 7.11467L15.5656 1.86467C15.4576 1.64942 15.2586 1.49892 15.0461 1.42717Z" fill="#8A92A6"/>
</svg>
