<svg width="15" height="19" viewBox="0 0 15 19" fill="none" xmlns="http://www.w3.org/2000/svg">
<path d="M7.5 18.25C8.4625 18.25 9.25 17.4625 9.25 16.5H5.75C5.75 17.4625 6.5375 18.25 7.5 18.25Z" fill="#8D95A8"/>
<path d="M4.875 15.625H10.125C10.6062 15.625 11 15.2312 11 14.75C11 14.2688 10.6062 13.875 10.125 13.875H4.875C4.39375 13.875 4 14.2688 4 14.75C4 15.2312 4.39375 15.625 4.875 15.625Z" fill="#8D95A8"/>
<path d="M7.5 0.75C3.8775 0.75 0.9375 3.69 0.9375 7.3125C0.9375 10.655 3.265 12.44 4.23625 13H10.7638C11.735 12.44 14.0625 10.655 14.0625 7.3125C14.0625 3.69 11.1225 0.75 7.5 0.75Z" fill="#8D95A8"/>
</svg>
