<svg width="144" height="144" viewBox="0 0 144 144" fill="none" xmlns="http://www.w3.org/2000/svg">
<g opacity="0.74">
<path style="mix-blend-mode:multiply" opacity="0.5" d="M47.5738 25.8112C47.5738 25.8112 2.35618 65.4222 0.0855396 99.2492C-2.1851 133.076 41.3094 132.525 63.916 123.35C86.5226 114.175 47.5738 25.8112 47.5738 25.8112Z" fill="url(#paint0_linear_3715_13078)"/>
<path style="mix-blend-mode:multiply" opacity="0.5" d="M36.0992 68.9535C36.0992 68.9535 8.56641 92.111 9.33438 107.538C10.1023 122.965 22.644 122.412 22.7089 126.912C22.7738 131.412 33.8825 147.322 63.916 142.752C101.077 137.097 101.909 113.252 102.34 96.7957C102.771 80.3396 36.0992 68.9535 36.0992 68.9535Z" fill="url(#paint1_linear_3715_13078)"/>
<path d="M117.639 12.0684C117.639 12.0684 120.531 1.08371 132.824 1.57744C132.824 1.57744 131.663 12.4556 119.057 12.4572L117.639 12.0684Z" fill="url(#paint2_radial_3715_13078)"/>
<g style="mix-blend-mode:soft-light">
<path d="M132.824 1.57745L117.639 12.0684L119.518 12.0922C119.518 12.0922 130.196 12.1501 132.824 1.57745Z" fill="#BDE0FF"/>
</g>
<path d="M85.6738 48.6463C78.3963 46.1322 37.2974 69.1748 37.2974 69.1748C37.1584 69.1453 37.0174 69.1215 36.8708 69.0957C36.6149 69.0447 36.357 68.999 36.0991 68.9535L56.6547 101.394L75.4036 107.871L110.032 95.5086C109.717 95.4884 109.412 95.388 109.147 95.2171C108.881 95.0462 108.663 94.8104 108.514 94.5319C108.514 94.5319 92.1792 50.8938 85.6738 48.6463Z" fill="url(#paint3_linear_3715_13078)"/>
<path d="M44.157 61.5837L47.5739 25.8112C47.6287 25.2371 47.798 24.6799 48.0717 24.1723C48.3454 23.6648 48.718 23.2172 49.1676 22.856C49.6171 22.4948 50.1344 22.2273 50.689 22.0694C51.2436 21.9114 51.8243 21.8661 52.3966 21.9362L90.4387 26.5939C91.5753 26.7331 92.6101 27.318 93.3154 28.2201C94.0207 29.1222 94.3388 30.2676 94.1996 31.4042L89.8884 66.6155C89.7504 67.7432 89.1734 68.771 88.2826 69.4762C87.3917 70.1813 86.2589 70.5069 85.1296 70.3824L47.9818 66.2858C46.8544 66.1615 45.8213 65.5986 45.1056 64.7187C44.3899 63.8389 44.0492 62.7127 44.157 61.5837V61.5837Z" fill="url(#paint4_linear_3715_13078)"/>
<path d="M91.2386 32.2496L87.2138 65.1221C87.1234 65.8602 86.7455 66.5327 86.1623 66.9939C85.579 67.455 84.8374 67.6675 84.0984 67.5852L49.5341 63.7735C48.797 63.6916 48.1216 63.3235 47.6533 62.7486C47.185 62.1736 46.9612 61.4377 47.0301 60.6994L47.7444 53.2321L50.2219 27.3044C50.2578 26.9289 50.3685 26.5644 50.5476 26.2323C50.7266 25.9003 50.9704 25.6075 51.2645 25.3712C51.5585 25.1349 51.8969 24.9599 52.2597 24.8566C52.6225 24.7532 53.0024 24.7236 53.3768 24.7694L88.7792 29.1039C89.5225 29.195 90.1992 29.5775 90.6604 30.1674C91.1216 30.7574 91.3296 31.5063 91.2386 32.2496V32.2496Z" fill="url(#paint5_linear_3715_13078)"/>
<path d="M87.628 61.7389L87.2138 65.1221C87.1234 65.8602 86.7455 66.5327 86.1623 66.9939C85.579 67.455 84.8374 67.6675 84.0984 67.5852L49.5341 63.7735C48.797 63.6916 48.1216 63.3235 47.6533 62.7486C47.185 62.1736 46.9612 61.4377 47.0301 60.6994L47.7444 53.2321C47.7444 53.2321 51.0028 49.4336 54.2324 45.9952L54.233 45.9902C56.8931 43.1434 59.5329 40.5452 60.2894 40.5199C60.8654 40.5034 62.1983 42.3425 63.6917 44.7548L63.6955 44.7656C66.5239 49.335 69.9322 55.9487 69.9322 55.9487C69.9322 55.9487 70.7241 54.9643 71.8095 53.7185L71.8157 53.709C73.7246 51.5133 76.5231 48.4989 77.5025 48.5369C78.2472 48.5665 80.9442 52.1154 83.5215 55.7623L83.5265 55.763C85.0907 57.9738 86.614 60.2258 87.628 61.7389Z" fill="url(#paint6_linear_3715_13078)"/>
<path d="M80.0043 41.8556C79.9097 42.628 79.5882 43.355 79.0804 43.9447C78.5726 44.5344 77.9014 44.9603 77.1516 45.1685C76.4018 45.3767 75.6071 45.3579 74.868 45.1145C74.1288 44.871 73.4785 44.4138 72.9992 43.8008C72.5199 43.1877 72.2332 42.4463 72.1752 41.6703C72.1173 40.8942 72.2908 40.1185 72.6738 39.441C73.0567 38.7636 73.632 38.215 74.3268 37.8645C75.0216 37.514 75.8047 37.3774 76.5771 37.472C77.09 37.5348 77.5854 37.698 78.0352 37.9523C78.485 38.2065 78.8803 38.5469 79.1986 38.954C79.5168 39.361 79.7518 39.8268 79.89 40.3247C80.0283 40.8225 80.0671 41.3427 80.0043 41.8556V41.8556Z" fill="white"/>
<path d="M52.2158 64.0042C52.2158 64.0042 66.9806 48.0403 68.8568 48.0658C70.7329 48.0913 79.5692 67.1149 79.5692 67.1149L52.2158 64.0042Z" fill="url(#paint7_linear_3715_13078)"/>
<path d="M79.1763 27.9282L90.3924 39.1635L91.6626 28.786L79.1763 27.9282Z" fill="url(#paint8_linear_3715_13078)"/>
<path d="M49.0886 74.115C49.0886 74.115 36.5378 64.8453 38.856 45.7137C38.856 45.7137 53.4422 49.753 54.7696 73.0128C54.7696 73.0128 53.2446 75.8163 52.5959 76.1453C52.112 76.3908 49.0886 74.115 49.0886 74.115Z" fill="url(#paint9_linear_3715_13078)"/>
<g style="mix-blend-mode:soft-light">
<path d="M39.5845 46.998L52.1791 75.3451L48.6431 73.0048C48.6431 73.0048 36.78 62.1095 39.5845 46.998Z" fill="#BDE0FF"/>
</g>
<path d="M42.3612 94.33L54.8691 54.7423C55.0698 54.107 55.3957 53.5184 55.8277 53.0111C56.2596 52.5039 56.7888 52.0883 57.3839 51.7889C57.9791 51.4895 58.6282 51.3124 59.293 51.268C59.9577 51.2236 60.6246 51.3128 61.2543 51.5303L103.106 65.9888C104.357 66.4208 105.384 67.3318 105.963 68.5215C106.542 69.7111 106.624 71.082 106.192 72.3324L92.8095 111.07C92.3809 112.31 91.4806 113.332 90.3037 113.913C89.1269 114.495 87.7683 114.589 86.5226 114.175L45.5455 100.567C44.3019 100.154 43.2708 99.2681 42.675 98.101C42.0791 96.934 41.9664 95.5794 42.3612 94.33V94.33Z" fill="url(#paint10_linear_3715_13078)"/>
<path d="M102.643 72.5715L90.1489 108.736C89.8683 109.548 89.2789 110.217 88.5084 110.596C87.738 110.976 86.8488 111.037 86.0339 110.766L47.9065 98.1037C47.0937 97.833 46.4197 97.2539 46.0296 96.4911C45.6395 95.7283 45.5645 94.8429 45.8208 94.0254L48.433 85.7621L57.4998 57.0693C57.6311 56.6538 57.8444 56.2687 58.1269 55.9369C58.4095 55.6051 58.7556 55.3332 59.145 55.1373C59.5343 54.9415 59.9589 54.8256 60.3938 54.7965C60.8286 54.7674 61.2649 54.8258 61.6768 54.968L100.625 68.4233C101.442 68.7058 102.114 69.3016 102.493 70.0795C102.871 70.8574 102.925 71.7538 102.643 72.5715V72.5715Z" fill="url(#paint11_linear_3715_13078)"/>
<path style="mix-blend-mode:multiply" d="M91.4347 105.014L90.1489 108.736C89.8683 109.548 89.2789 110.217 88.5084 110.596C87.738 110.976 86.8488 111.037 86.0339 110.766L47.9065 98.1037C47.0937 97.833 46.4197 97.2539 46.0296 96.4911C45.6395 95.7283 45.5645 94.8429 45.8208 94.0254L48.433 85.7621C48.433 85.7621 53.0324 82.2582 57.5122 79.1547L57.5141 79.1491C61.2075 76.5759 64.818 74.2788 65.6787 74.4331C66.3335 74.5537 67.3947 76.9537 68.4987 80.04L68.5004 80.053C70.5911 85.8991 72.8427 94.1948 72.8427 94.1948C72.8427 94.1948 73.9754 93.2741 75.5027 92.129L75.5121 92.1198C78.1994 90.1007 82.0897 87.3718 83.187 87.6514C84.0211 87.8649 86.2101 92.5262 88.2402 97.2694L88.2458 97.2713C89.4784 100.147 90.6549 103.06 91.4347 105.014Z" fill="url(#paint12_linear_3715_13078)"/>
<path d="M87.8586 79.639C88.0879 77.139 86.2472 74.9264 83.7472 74.697C81.2472 74.4676 79.0346 76.3083 78.8052 78.8084C78.5758 81.3084 80.4166 83.521 82.9166 83.7503C85.4166 83.9797 87.6292 82.139 87.8586 79.639Z" fill="white"/>
<path d="M50.8804 99.0125C50.8804 99.0125 71.42 84.5468 73.5334 85.0291C75.6468 85.5115 81.0306 109.139 81.0306 109.139L50.8804 99.0125Z" fill="url(#paint13_linear_3715_13078)"/>
<path d="M90.0598 64.7736L100.015 80.1782L103.959 68.7609L90.0598 64.7736Z" fill="url(#paint14_linear_3715_13078)"/>
<path d="M110.032 95.5086C110.032 95.5086 101.401 118.171 92.938 132.21C92.938 132.21 57.8289 122.295 26.8123 110.38C26.8123 110.38 29.1333 87.3718 36.0994 68.9535L56.655 101.394L75.4039 107.871L110.032 95.5086Z" fill="url(#paint15_linear_3715_13078)"/>
<path d="M36.0996 68.9536L37.2976 69.1748L57.0704 100.191L75.6114 106.595L108.515 94.5322L110.032 95.5083L75.404 107.871L56.6549 101.394L36.0996 68.9536Z" fill="#FF69CF"/>
<path style="mix-blend-mode:screen" opacity="0.5" d="M28.3425 110L56.655 101.394L75.4039 107.871L92.9416 132.209C92.9416 132.209 38.1906 114.793 28.3425 110Z" fill="url(#paint16_linear_3715_13078)"/>
<path d="M57.0703 100.191L56.108 100.532L28.3423 110L56.6548 101.394L57.0703 100.191Z" fill="#A90C77"/>
<path d="M75.6112 106.595L76.3622 107.529L92.941 132.209L75.4038 107.871L75.6112 106.595Z" fill="#A90C77"/>
<path style="mix-blend-mode:multiply" opacity="0.5" d="M42.0437 105.835C42.0437 105.835 33.378 109.838 33.0052 112.714L26.8123 110.38L42.0437 105.835Z" fill="url(#paint17_linear_3715_13078)"/>
<path style="mix-blend-mode:multiply" opacity="0.5" d="M83.5784 119.215C83.5784 119.215 88.1676 126.408 87.4846 130.628L92.9416 132.209L83.5784 119.215Z" fill="url(#paint18_linear_3715_13078)"/>
<path d="M137.775 48.2281L136.035 51.8079C136.035 51.8079 120.133 58.9128 109.182 67.7609L100.379 57.0861L99.8521 51.966L137.775 48.2281Z" fill="url(#paint19_radial_3715_13078)"/>
<path d="M99.8521 51.966C99.8521 51.966 113.605 39.3287 126.64 33.1279L137.775 48.2281C137.775 48.2281 119.62 55.6689 109.448 63.5809L99.8521 51.966Z" fill="url(#paint20_radial_3715_13078)"/>
<path d="M115.455 52.5913C115.622 52.8251 115.756 53.0801 115.854 53.3495C115.932 53.564 115.978 53.7885 115.992 54.0162C116.003 54.2053 115.984 54.3949 115.935 54.578C115.892 54.7374 115.828 54.8904 115.745 55.0332C115.673 55.1572 115.587 55.2724 115.489 55.3767C115.413 55.4598 115.328 55.5347 115.236 55.6001C115.195 55.6286 115.138 55.6639 115.063 55.7074C114.977 55.7567 114.889 55.8015 114.798 55.8417C114.683 55.8926 114.566 55.9372 114.446 55.9751C114.303 56.0215 114.156 56.0569 114.007 56.0809L113.184 54.767C113.44 54.8009 113.7 54.791 113.952 54.7377C114.114 54.7014 114.268 54.638 114.408 54.5502C114.504 54.4925 114.583 54.4113 114.638 54.3145C114.694 54.2176 114.724 54.1083 114.725 53.9967C114.717 53.7427 114.63 53.4974 114.477 53.2948C114.343 53.1113 114.175 52.9546 113.983 52.8328C113.715 52.6651 113.421 52.5435 113.112 52.4728C112.863 52.4068 112.603 52.3368 112.334 52.2628C112.063 52.189 111.798 52.0945 111.542 51.9801C111.28 51.8621 111.031 51.7155 110.801 51.5428C110.556 51.3574 110.344 51.1332 110.172 50.8791C109.96 50.5856 109.803 50.2564 109.708 49.9072C109.633 49.6239 109.616 49.3281 109.658 49.038C109.699 48.7772 109.796 48.5285 109.943 48.309C110.089 48.0918 110.276 47.9043 110.492 47.7563C110.691 47.62 110.908 47.5098 111.136 47.4285C111.384 47.3394 111.643 47.2805 111.906 47.2531L112.688 48.594C112.54 48.5463 112.385 48.5207 112.229 48.5183C112.101 48.5175 111.973 48.5318 111.848 48.561C111.746 48.5849 111.648 48.6201 111.554 48.666C111.485 48.6999 111.418 48.7385 111.354 48.7815C111.259 48.8464 111.183 48.9361 111.134 49.041C111.084 49.149 111.058 49.2663 111.057 49.3852C111.056 49.5176 111.078 49.649 111.12 49.7744C111.166 49.9138 111.231 50.0457 111.315 50.1659C111.437 50.3491 111.603 50.4988 111.798 50.6016C111.999 50.7047 112.209 50.7874 112.427 50.8484C112.656 50.9144 112.898 50.9789 113.151 51.0397C113.417 51.1053 113.676 51.1936 113.927 51.3036C114.207 51.4294 114.471 51.5888 114.712 51.7784C115 52.0095 115.251 52.2837 115.455 52.5913V52.5913Z" fill="white"/>
<path d="M119.339 52.6183C119.162 52.3971 118.984 52.1728 118.806 51.9479C118.628 51.7214 118.447 51.4964 118.262 51.2706C118.106 51.3636 117.956 51.4514 117.811 51.5361C117.665 51.6209 117.522 51.7131 117.38 51.8106L117.314 51.8556C117.465 52.1106 117.614 52.3606 117.763 52.6056C117.912 52.8515 118.062 53.0938 118.213 53.3345L116.933 54.185C116.313 52.8366 115.675 51.5051 115.018 50.1907C114.362 48.876 113.674 47.5691 112.953 46.2699L114.494 45.2462C115.452 46.3629 116.43 47.4538 117.43 48.519C118.43 49.584 119.466 50.6352 120.538 51.6726L119.339 52.6183ZM114.606 47.0123C114.966 47.6798 115.328 48.3436 115.693 49.0035C116.057 49.6612 116.43 50.3219 116.812 50.9856C116.887 50.9437 116.962 50.8964 117.036 50.8454L117.264 50.6886L117.594 50.4622C117.104 49.875 116.611 49.2968 116.115 48.7275C115.619 48.1583 115.116 47.5865 114.606 47.0123V47.0123Z" fill="white"/>
<path d="M123.55 49.6739C123.356 49.7977 123.169 49.9187 122.99 50.0369C122.81 50.1554 122.633 50.2754 122.458 50.3962C122.195 50.5776 121.938 50.7609 121.687 50.9459C121.436 51.1303 121.18 51.3253 120.918 51.5308C120.516 50.8814 120.112 50.2429 119.707 49.6154C119.302 48.9862 118.883 48.3577 118.451 47.73C118.037 47.13 117.619 46.5388 117.196 45.9563C116.772 45.3744 116.335 44.7959 115.885 44.221C115.926 44.1983 115.966 44.1732 116.005 44.1459C116.044 44.1242 116.092 44.0942 116.146 44.0575C116.199 44.0199 116.26 43.9787 116.328 43.9322C116.436 43.8572 116.551 43.7747 116.674 43.6817C116.797 43.5895 116.919 43.4949 117.04 43.3959C117.331 43.9119 117.652 44.4449 118.003 44.9949C118.354 45.5439 118.716 46.0941 119.088 46.6456C119.461 47.1983 119.834 47.7475 120.207 48.2932C120.581 48.8392 120.937 49.3689 121.275 49.8824C121.547 49.6852 121.807 49.4862 122.055 49.2855C122.303 49.0852 122.558 48.8622 122.821 48.6165L123.55 49.6739Z" fill="white"/>
<path d="M124.143 45.2589C124.034 45.3242 123.924 45.3917 123.814 45.4629C123.704 45.5341 123.594 45.6068 123.486 45.6811C123.426 45.7231 123.364 45.7681 123.3 45.8161C123.237 45.8656 123.173 45.9113 123.108 45.9556L124.333 47.7773C124.605 47.5801 124.865 47.3808 125.112 47.1796C125.36 46.98 125.616 46.7573 125.879 46.5114L126.607 47.5688C126.414 47.6926 126.227 47.8136 126.048 47.9318C125.868 48.0503 125.691 48.17 125.515 48.291C125.252 48.4725 124.995 48.6557 124.745 48.8407C124.494 49.0252 124.237 49.2202 123.976 49.4257C123.573 48.7762 123.17 48.1378 122.765 47.5103C122.359 46.881 121.94 46.2526 121.508 45.6249C121.095 45.0249 120.676 44.4337 120.253 43.8512C119.83 43.2692 119.393 42.6908 118.942 42.1158C119.362 41.8721 119.752 41.6261 120.113 41.3778C120.342 41.2196 120.567 41.0568 120.787 40.8873C121.006 40.7186 121.239 40.5346 121.485 40.3354L122.286 41.4993C122.052 41.6073 121.826 41.7206 121.607 41.8413C121.391 41.9606 121.18 42.0908 120.977 42.2313L120.779 42.367C121.036 42.8118 121.302 43.2475 121.578 43.6742C121.855 44.1002 122.135 44.5267 122.419 44.9537C122.511 44.9004 122.602 44.8419 122.691 44.7804C122.781 44.7189 122.873 44.656 122.967 44.5907C123.045 44.5374 123.124 44.4827 123.205 44.4264C123.286 44.371 123.366 44.311 123.446 44.2465L124.143 45.2589Z" fill="white"/>
<g style="mix-blend-mode:multiply">
<path d="M109.182 67.7609L109.448 63.5809C109.448 63.5809 125.116 51.8189 137.775 48.2281L136.035 51.8079C136.035 51.8079 120.81 58.4108 109.182 67.7609Z" fill="#6E4298"/>
</g>
<path d="M102.545 6.10352e-05C99.7847 7.10434 98.3556 11.614 97.3496 18.8387L116.069 25.3059C119.565 19.6761 121.609 14.9916 123.624 7.28213C116.848 4.18439 109.789 1.74581 102.545 6.10352e-05V6.10352e-05Z" fill="url(#paint21_linear_3715_13078)"/>
<path d="M97.3501 18.8387L98.926 20.5144L114.622 25.937L116.069 25.3057L97.3501 18.8387Z" fill="url(#paint22_linear_3715_13078)"/>
<path d="M113.923 9.28836C113.453 9.76081 112.936 10.2953 112.374 10.8917C111.812 11.4895 111.214 12.1415 110.579 12.8476C109.944 13.5541 109.281 14.3116 108.588 15.1201C107.895 15.9285 107.18 16.7787 106.442 17.6707C106.279 17.5695 106.12 17.473 105.966 17.3812C105.833 17.3032 105.69 17.2244 105.538 17.1465C105.406 17.0769 105.268 17.0196 105.126 16.9755C105.539 16.593 105.98 16.164 106.45 15.6885C106.918 15.2131 107.394 14.7188 107.875 14.2059C108.357 13.6929 108.833 13.1731 109.303 12.6467C109.773 12.1202 110.218 11.611 110.638 11.119C111.058 10.6262 111.44 10.1655 111.784 9.73678C112.127 9.3071 112.412 8.92987 112.641 8.6051L113.923 9.28836ZM110.433 10.2648C110.301 10.6714 110.114 11.058 109.877 11.4137C109.697 11.6849 109.471 11.9221 109.208 12.1142C109 12.2678 108.757 12.368 108.501 12.4062C108.245 12.4444 107.983 12.4193 107.739 12.3332C107.501 12.251 107.285 12.1171 107.105 11.941C106.917 11.7522 106.78 11.5194 106.705 11.2637C106.616 10.9505 106.584 10.6238 106.611 10.2993C106.646 9.86879 106.738 9.44497 106.887 9.03931C107.023 8.61704 107.215 8.21497 107.459 7.8439C107.635 7.57441 107.861 7.34078 108.124 7.15542C108.338 7.00858 108.587 6.92065 108.847 6.90045C109.096 6.88397 109.345 6.91815 109.581 7.0009C109.817 7.08101 110.032 7.2127 110.211 7.38642C110.398 7.57159 110.536 7.8009 110.611 8.05317C110.702 8.36325 110.734 8.68737 110.708 9.00936C110.674 9.43846 110.582 9.86087 110.433 10.2648ZM109.239 9.85228C109.431 9.37505 109.542 8.86957 109.569 8.35613C109.559 8.02314 109.474 7.8289 109.314 7.7734C109.226 7.7436 109.13 7.74815 109.045 7.78615C108.927 7.84504 108.826 7.93244 108.751 8.04042C108.625 8.20963 108.518 8.39132 108.429 8.5826C108.296 8.86524 108.179 9.15546 108.08 9.45178C107.889 9.9336 107.776 10.4431 107.746 10.9608C107.754 11.3035 107.84 11.5022 108.006 11.5592C108.172 11.617 108.363 11.5112 108.577 11.2428C108.869 10.817 109.093 10.3477 109.239 9.85228V9.85228ZM112.221 17.3602C112.088 17.7677 111.9 18.1554 111.664 18.5129C111.485 18.7852 111.258 19.0227 110.994 19.2141C110.777 19.3692 110.526 19.4674 110.261 19.4998C110.011 19.5276 109.758 19.4991 109.521 19.4166C109.283 19.3353 109.066 19.2012 108.887 19.0244C108.7 18.8371 108.562 18.6062 108.485 18.3524C108.394 18.0408 108.362 17.7151 108.39 17.3917C108.425 16.9612 108.517 16.5373 108.666 16.1318C108.802 15.7123 108.993 15.313 109.235 14.9446C109.411 14.6749 109.637 14.4412 109.9 14.2561C110.116 14.1094 110.365 14.02 110.624 13.9966C110.874 13.9779 111.124 14.0106 111.36 14.0926C111.598 14.1738 111.814 14.3064 111.995 14.4811C112.184 14.6658 112.323 14.8955 112.398 15.1485C112.489 15.4586 112.522 15.7827 112.496 16.1047C112.461 16.5337 112.369 16.956 112.221 17.3602V17.3602ZM111.019 16.9447C111.208 16.4688 111.32 15.9658 111.351 15.4545C111.345 15.1193 111.259 14.9235 111.093 14.8658C111.004 14.8361 110.907 14.8423 110.822 14.8831C110.705 14.9443 110.603 15.0327 110.527 15.141C110.402 15.3087 110.294 15.4889 110.206 15.6787C110.074 15.9602 109.958 16.2492 109.859 16.5442C109.667 17.026 109.554 17.5359 109.525 18.0539C109.535 18.3899 109.622 18.5864 109.788 18.6434C109.954 18.7011 110.143 18.5984 110.355 18.3351C110.648 17.9095 110.872 17.4403 111.019 16.9447Z" fill="white"/>
<path d="M40.4287 10.5106C41.1706 18.0961 41.93 22.7654 44.2919 29.667L63.916 26.9919C64.495 20.3908 64.2058 15.2879 62.5256 7.49847C55.0804 7.79154 47.6807 8.80022 40.4287 10.5106V10.5106Z" fill="url(#paint23_linear_3715_13078)"/>
<path d="M44.2922 29.6669L46.4548 30.451L62.9085 28.2086L63.916 26.9921L44.2922 29.6669Z" fill="url(#paint24_linear_3715_13078)"/>
<path d="M52.1133 16.131C52.1787 16.5534 52.1865 16.9828 52.1365 17.4074C52.0976 17.7308 52.0021 18.0448 51.8546 18.3351C51.7329 18.5725 51.5543 18.776 51.3348 18.9276C51.128 19.0689 50.8907 19.1594 50.6422 19.1916C50.3932 19.2269 50.1395 19.2051 49.9002 19.1279C49.647 19.0455 49.4188 18.9002 49.2372 18.7056C49.0158 18.4663 48.8397 18.1888 48.7174 17.8866C48.5547 17.4867 48.4466 17.0667 48.3961 16.638C48.3271 16.1995 48.3172 15.7539 48.3665 15.3128C48.4021 14.9928 48.4983 14.6825 48.6499 14.3985C48.7744 14.1704 48.9573 13.9793 49.1798 13.845C49.3946 13.7179 49.6329 13.6353 49.8803 13.6021C50.1273 13.5681 50.3788 13.5886 50.6171 13.6621C50.867 13.744 51.0927 13.8865 51.274 14.0768C51.4947 14.313 51.6704 14.5875 51.7927 14.8868C51.9553 15.2851 52.0632 15.7037 52.1133 16.131V16.131ZM50.8623 16.302C50.8175 15.7899 50.6887 15.2887 50.481 14.8185C50.3224 14.5245 50.1589 14.389 49.9905 14.412C49.8987 14.4258 49.8153 14.4735 49.7569 14.5456C49.6778 14.6511 49.6267 14.7749 49.6084 14.9055C49.5721 15.1129 49.5579 15.3236 49.566 15.534C49.575 15.8466 49.6021 16.1583 49.647 16.4677C49.6931 16.9841 49.8226 17.4896 50.0303 17.9646C50.1904 18.2661 50.3575 18.4051 50.5316 18.3816C50.7056 18.3584 50.8277 18.1784 50.898 17.8416C50.9666 17.3297 50.9546 16.8102 50.8623 16.302V16.302ZM54.7869 13.6861C54.5799 14.319 54.3604 15.029 54.1284 15.816C53.8971 16.602 53.6572 17.4537 53.4088 18.3711C53.161 19.2876 52.9104 20.2631 52.657 21.2974C52.4043 22.3309 52.1499 23.4121 51.894 24.5411C51.7023 24.5246 51.5163 24.5103 51.3378 24.4976C51.1834 24.4886 51.0206 24.4826 50.8496 24.4818C50.7007 24.4793 50.5518 24.4901 50.4049 24.5141C50.6021 23.9861 50.8024 23.4044 51.006 22.7689C51.2095 22.1337 51.4105 21.4782 51.609 20.8025C51.8073 20.1275 51.9974 19.4493 52.1792 18.7679C52.3615 18.0861 52.529 17.4304 52.6817 16.8007C52.8344 16.1722 52.9672 15.589 53.08 15.0511C53.1933 14.5126 53.278 14.0471 53.3342 13.6546L54.7869 13.6861ZM56.9101 21.6567C56.9753 22.0807 56.9831 22.5116 56.9333 22.9377C56.8959 23.2613 56.8005 23.5755 56.6517 23.8654C56.5281 24.1012 56.3474 24.3023 56.126 24.4503C55.9155 24.5878 55.6771 24.6767 55.4281 24.7106C55.179 24.7445 54.9255 24.7224 54.686 24.6461C54.434 24.5639 54.2065 24.42 54.0242 24.2276C53.8027 23.9905 53.6267 23.7146 53.5048 23.4139C53.342 23.0138 53.2339 22.5935 53.1835 22.1645C53.1152 21.729 53.1056 21.2863 53.1549 20.8483C53.1911 20.5284 53.2874 20.2182 53.4389 19.9341C53.5639 19.7055 53.7461 19.5133 53.9676 19.3761C54.1813 19.2464 54.4195 19.1624 54.6673 19.1293C54.9158 19.0951 55.1688 19.1155 55.4086 19.1893C55.661 19.2687 55.8889 19.4112 56.0708 19.6033C56.2914 19.8392 56.467 20.1135 56.5891 20.4125C56.7518 20.8108 56.8598 21.2294 56.9101 21.6567V21.6567ZM55.6494 21.8285C55.6038 21.3184 55.4771 20.8189 55.274 20.3488C55.1172 20.0533 54.9519 19.916 54.7779 19.9393C54.6852 19.9534 54.6016 20.0029 54.5447 20.0773C54.4669 20.1849 54.4162 20.3097 54.3969 20.441C54.361 20.6475 54.3465 20.8571 54.3538 21.0665C54.3628 21.377 54.3898 21.6868 54.4345 21.9942C54.4799 22.5107 54.6092 23.0163 54.8173 23.4911C54.977 23.7881 55.1431 23.9239 55.3179 23.9006C55.4919 23.8766 55.6145 23.6993 55.6858 23.3689C55.755 22.8567 55.7427 22.3368 55.6494 21.8285V21.8285Z" fill="white"/>
<path d="M108.945 78.0758C108.945 78.0758 116.483 65.7694 131.259 70.8679C131.259 70.8679 125.867 83.6783 110.528 79.0677L108.945 78.0758Z" fill="url(#paint25_radial_3715_13078)"/>
<g style="mix-blend-mode:soft-light">
<path d="M131.259 70.8679L108.945 78.0758L111.224 78.7926C111.224 78.7926 124.194 82.7701 131.259 70.8679Z" fill="#BDE0FF"/>
</g>
<path d="M108.024 89.2318L113.444 84.452L114.638 86.6284L109.984 89.9091L108.024 89.2318Z" fill="#9A7DF8"/>
<path d="M43.3459 41.3354L45.0623 39.3317L41.8031 34.767L38.6782 35.7653L43.3459 41.3354Z" fill="#4F31E0"/>
<path d="M96.9131 37.2705L101.284 35.8152L102.34 37.7528L96.9515 38.4524L96.9131 37.2705Z" fill="#FF1D9C"/>
<path d="M133.404 23.3589L144 21.621L143.648 25.7042L133.285 25.7058L133.404 23.3589Z" fill="#6877FF"/>
<g style="mix-blend-mode:multiply" opacity="0.5">
<path d="M46.8049 33.8638L59.7605 31.9616L59.8772 28.6217L47.1398 30.3581L46.8049 33.8638Z" fill="#B975B6"/>
</g>
</g>
<defs>
<linearGradient id="paint0_linear_3715_13078" x1="3.70922e-06" y1="77.2606" x2="70.9715" y2="77.2606" gradientUnits="userSpaceOnUse">
<stop offset="0.13492" stop-color="white"/>
<stop offset="1" stop-color="#BF7CFF"/>
</linearGradient>
<linearGradient id="paint1_linear_3715_13078" x1="14.566" y1="123.024" x2="98.1287" y2="85.8196" gradientUnits="userSpaceOnUse">
<stop offset="0.13492" stop-color="white"/>
<stop offset="1" stop-color="#F468A9"/>
</linearGradient>
<radialGradient id="paint2_radial_3715_13078" cx="0" cy="0" r="1" gradientUnits="userSpaceOnUse" gradientTransform="translate(126.927 1.4826) rotate(12.6742) scale(9.57517)">
<stop stop-color="#3996F7"/>
<stop offset="1" stop-color="#6840D5"/>
</radialGradient>
<linearGradient id="paint3_linear_3715_13078" x1="65.4021" y1="104.416" x2="84.7741" y2="48.3355" gradientUnits="userSpaceOnUse">
<stop stop-color="#BA0065"/>
<stop offset="1" stop-color="#63004A"/>
</linearGradient>
<linearGradient id="paint4_linear_3715_13078" x1="66.0039" y1="68.4921" x2="71.4176" y2="24.2645" gradientUnits="userSpaceOnUse">
<stop stop-color="#D1BBFF"/>
<stop offset="1" stop-color="#DACFFF"/>
</linearGradient>
<linearGradient id="paint5_linear_3715_13078" x1="66.3169" y1="65.8281" x2="71.0775" y2="26.9361" gradientUnits="userSpaceOnUse">
<stop stop-color="#D1BBFF"/>
<stop offset="1" stop-color="white"/>
</linearGradient>
<linearGradient id="paint6_linear_3715_13078" x1="66.6599" y1="65.8701" x2="69.6234" y2="41.6592" gradientUnits="userSpaceOnUse">
<stop stop-color="#E1BDFF"/>
<stop offset="1" stop-color="#B17FFF"/>
</linearGradient>
<linearGradient id="paint7_linear_3715_13078" x1="65.8782" y1="65.6765" x2="68.0462" y2="47.9649" gradientUnits="userSpaceOnUse">
<stop stop-color="#CF95FF"/>
<stop offset="1" stop-color="#9552FF"/>
</linearGradient>
<linearGradient id="paint8_linear_3715_13078" x1="1428.97" y1="910.994" x2="1428.97" y2="758.04" gradientUnits="userSpaceOnUse">
<stop stop-color="#D1BBFF"/>
<stop offset="1" stop-color="#DACFFF"/>
</linearGradient>
<linearGradient id="paint9_linear_3715_13078" x1="752.223" y1="2893.61" x2="919.542" y2="1793.8" gradientUnits="userSpaceOnUse">
<stop stop-color="#1C257B"/>
<stop offset="1" stop-color="#6A2C9A"/>
</linearGradient>
<linearGradient id="paint10_linear_3715_13078" x1="3599.53" y1="14825.9" x2="4982.12" y2="10823.3" gradientUnits="userSpaceOnUse">
<stop stop-color="#D1BBFF"/>
<stop offset="1" stop-color="#DACFFF"/>
</linearGradient>
<linearGradient id="paint11_linear_3715_13078" x1="66.3703" y1="104.482" x2="81.1503" y2="61.6947" gradientUnits="userSpaceOnUse">
<stop stop-color="#744FD8"/>
<stop offset="1" stop-color="#3996F7"/>
</linearGradient>
<linearGradient id="paint12_linear_3715_13078" x1="66.7475" y1="104.612" x2="75.9483" y2="77.9766" gradientUnits="userSpaceOnUse">
<stop stop-color="#CC8BA1"/>
<stop offset="1" stop-color="#C4C9FF"/>
</linearGradient>
<linearGradient id="paint13_linear_3715_13078" x1="2083.3" y1="5833.91" x2="2294.72" y2="5221.87" gradientUnits="userSpaceOnUse">
<stop stop-color="#1C257B"/>
<stop offset="1" stop-color="#6A2C9A"/>
</linearGradient>
<linearGradient id="paint14_linear_3715_13078" x1="1262.27" y1="2974.66" x2="1341.37" y2="2745.65" gradientUnits="userSpaceOnUse">
<stop stop-color="#D1BBFF"/>
<stop offset="1" stop-color="#DACFFF"/>
</linearGradient>
<linearGradient id="paint15_linear_3715_13078" x1="59.3177" y1="121.965" x2="73.2024" y2="81.77" gradientUnits="userSpaceOnUse">
<stop stop-color="#B469EF"/>
<stop offset="1" stop-color="#FE117E"/>
</linearGradient>
<linearGradient id="paint16_linear_3715_13078" x1="60.4431" y1="121.68" x2="66.2997" y2="104.726" gradientUnits="userSpaceOnUse">
<stop/>
<stop offset="1" stop-color="#C14547"/>
</linearGradient>
<linearGradient id="paint17_linear_3715_13078" x1="798.509" y1="1958.45" x2="826.151" y2="1878.43" gradientUnits="userSpaceOnUse">
<stop stop-color="#CC8BA1"/>
<stop offset="1" stop-color="white"/>
</linearGradient>
<linearGradient id="paint18_linear_3715_13078" x1="561.598" y1="3321.66" x2="614.142" y2="3169.55" gradientUnits="userSpaceOnUse">
<stop stop-color="#CC8BA1"/>
<stop offset="1" stop-color="white"/>
</linearGradient>
<radialGradient id="paint19_radial_3715_13078" cx="0" cy="0" r="1" gradientUnits="userSpaceOnUse" gradientTransform="translate(117.167 56.3282) rotate(14.7672) scale(15.6558)">
<stop stop-color="#A157FF"/>
<stop offset="1" stop-color="#63399A"/>
</radialGradient>
<radialGradient id="paint20_radial_3715_13078" cx="0" cy="0" r="1" gradientUnits="userSpaceOnUse" gradientTransform="translate(111.902 38.3581) rotate(14.7672) scale(20.0122)">
<stop stop-color="#FF81FF"/>
<stop offset="1" stop-color="#9552FF"/>
</radialGradient>
<linearGradient id="paint21_linear_3715_13078" x1="3831.94" y1="2040.58" x2="3831.94" y2="1380.26" gradientUnits="userSpaceOnUse">
<stop stop-color="#744FD8"/>
<stop offset="1" stop-color="#3996F7"/>
</linearGradient>
<linearGradient id="paint22_linear_3715_13078" x1="106.36" y1="23.0833" x2="106.71" y2="22.0719" gradientUnits="userSpaceOnUse">
<stop stop-color="#1C257B"/>
<stop offset="1" stop-color="#482C83"/>
</linearGradient>
<linearGradient id="paint23_linear_3715_13078" x1="1059.11" y1="879.902" x2="980.957" y2="306.739" gradientUnits="userSpaceOnUse">
<stop offset="0.197917" stop-color="#B31A8F"/>
<stop offset="1" stop-color="#FE5811"/>
</linearGradient>
<linearGradient id="paint24_linear_3715_13078" x1="599.838" y1="106.707" x2="675.435" y2="255.174" gradientUnits="userSpaceOnUse">
<stop stop-color="#BA0065"/>
<stop offset="1" stop-color="#63004A"/>
</linearGradient>
<radialGradient id="paint25_radial_3715_13078" cx="0" cy="0" r="1" gradientUnits="userSpaceOnUse" gradientTransform="translate(3197.39 3714.05) rotate(29.413) scale(353.474 165.348)">
<stop stop-color="#3996F7"/>
<stop offset="1" stop-color="#6840D5"/>
</radialGradient>
</defs>
</svg>
