<svg width="168" height="88" viewBox="0 0 168 88" fill="none" xmlns="http://www.w3.org/2000/svg">
<path fill-rule="evenodd" clip-rule="evenodd" d="M15.7879 86.5362C15.7879 86.8101 16.0115 87.0332 16.286 87.0332V87.0078H51.4478H70.0604H76.9637H95.5734H103.196H123.056H133.854H153.698H167.502C167.776 87.0078 168 86.7847 168 86.5108C168 86.2369 167.776 86.0138 167.502 86.0138H154.239L154.912 79.7731V79.7703V79.7675V79.7647V79.7618V79.759V79.7562V79.7534V79.7505V79.7477C154.912 79.7375 154.912 79.7265 154.912 79.7155C154.911 79.7054 154.911 79.6952 154.909 79.6856V79.6828V79.6799V79.6771V79.6743V79.6715V79.6686V79.6658L154.907 79.6517L154.904 79.6348V79.6319V79.6291V79.6263L154.898 79.6093V79.6065V79.6037V79.6009V79.598V79.5952V79.5924V79.5896V79.5868L154.895 79.5755L154.893 79.5698L154.89 79.567V79.5642V79.5613L149.959 64.1856L152.532 50.9785L156.936 58.6763C157.029 58.8429 157.216 58.9474 157.417 58.9276C157.689 58.9022 157.89 58.6593 157.864 58.3882L155.648 34.9194C155.645 34.8516 155.628 34.7838 155.6 34.7245L155.586 34.6963L147.149 17.1066C147.103 16.9937 147.016 16.8948 146.897 16.8412L146.843 16.8214H146.837L146.826 16.8186L121.72 8.65207C121.653 8.62384 121.573 8.61254 121.497 8.62101L92.1713 8.78762L58.1586 0.0535056C58.0313 0.0167958 57.8983 0.0309152 57.7879 0.0873918L34.2929 12.2412L24.4687 10.9648C24.1998 10.9309 23.9479 11.1201 23.9139 11.3912C23.8941 11.5352 23.9422 11.6764 24.0299 11.7781L28.5472 17.4935L26.0084 26.606L22.8072 35.0578L17.7663 44.8762L12.1905 39.0958C12.0801 38.8445 11.7857 38.7344 11.5367 38.8445C11.3329 38.9321 11.2225 39.141 11.2451 39.35L11.4933 48.7714C11.4953 48.7895 11.4948 48.822 11.4942 48.8578C11.4931 48.9219 11.4919 48.9979 11.5047 49.0267L9.53302 50.3336L0.951032 30.4408C0.843477 30.1923 0.551952 30.0765 0.300048 30.1838C0.0934305 30.2714 -0.0197876 30.4803 0.00285538 30.6921L2.75964 55.1663C2.7653 55.2171 2.77946 55.2651 2.79927 55.3103L2.8021 55.3159L2.80493 55.3216V55.3244L2.82757 55.3639V55.3667L2.84173 55.3865L2.84456 55.3893L2.84739 55.395L2.85022 55.4006L2.85305 55.4063V55.4091L2.85871 55.4148L2.86154 55.4176L2.86437 55.4232L2.87003 55.4289L2.87569 55.4345L2.87852 55.4373L2.88135 55.4402L2.88701 55.4458L2.89267 55.4515L2.8955 55.4543L2.89833 55.4571L2.904 55.4628L2.90682 55.4656L2.91532 55.4741L2.92098 55.4797L2.92381 55.4825L2.92664 55.4854L2.9323 55.491L2.93796 55.4966L2.94079 55.4995L2.94362 55.5023L2.94928 55.5079H2.95211L2.9606 55.5164L2.96909 55.5221L2.97192 55.5249L2.97758 55.5277L2.98325 55.5305L2.98607 55.5334L3.00023 55.5447L3.00589 55.5475L3.02004 55.5559L3.0257 55.5588L14.2312 62.3501L20.158 70.6041C20.2118 70.6804 20.2825 70.7369 20.3646 70.7708L27.1151 74.3627C27.3358 74.4784 27.6075 74.4135 27.7491 74.2187L31.8418 68.6642L46.6758 59.8623L55.4075 79.6969L51.1818 86.0392H16.286C16.0115 86.0392 15.7879 86.2623 15.7879 86.5362ZM16.9831 45.3952L12.4509 48.3995L12.0263 40.1316L16.9831 45.3952ZM67.8782 86.0392H52.3762L56.1463 80.3803L67.8782 86.0392ZM75.4607 63.9484L56.1689 78.9627L47.723 59.7748L75.4607 63.9484ZM28.4793 58.3346L45.2917 59.5319L31.3238 67.8198L21.5675 69.6243L28.4793 58.3346ZM22.0458 70.542L30.3587 69.003L27.2028 73.2868L22.0458 70.542ZM27.1094 58.6706L20.5316 69.4153L15.3888 62.2513L27.1094 58.6706ZM16.9769 46.4886L14.0189 61.0624L4.46636 55.2736L16.9769 46.4886ZM17.8996 45.7276L17.9053 45.794L15.0124 61.3137L27.3245 57.5524L17.9053 45.794V45.7911V45.7883V45.7855V45.7827V45.7798V45.777V45.7742V45.7714V45.7685V45.7657V45.7629V45.7601V45.7573V45.7544V45.7516V45.7488V45.746V45.7431V45.7403V45.7375V45.7347V45.7318V45.729V45.7262V45.7234V45.7205V45.7177V45.7149L17.9025 45.7064V45.7036V45.7008V45.698V45.6951L17.8996 45.6867V45.6838L17.8968 45.6754V45.6725L17.8942 45.6649L17.894 45.6612V45.6641L17.8942 45.6649L17.8996 45.7276ZM28.4538 57.3378L18.4682 45.6838L23.3959 36.0856L45.6257 58.5605L28.4538 57.3378ZM58.0511 31.3755L24.0158 34.685L26.9452 26.9477L26.9594 26.9054L29.4671 17.9058L51.0091 18.9788L58.0511 31.3755ZM33.2372 13.1081L29.1614 16.6746L25.5527 12.1084L33.2372 13.1081ZM30.3445 16.9541L34.6693 13.1702L57.1057 1.56143L50.9695 17.982L30.3445 16.9541ZM51.8526 18.4508L58.3285 1.12091L90.9316 9.49357L59.0276 31.079L51.8526 18.4508ZM109.646 23.5535L93.4535 9.77313L121.211 9.615L126.085 23.7991L120.735 48.9425L109.813 23.7652L109.807 23.7511V23.7483L109.805 23.7455V23.7427L109.799 23.7314V23.7285L109.796 23.7257L109.793 23.7229L109.79 23.7201L109.788 23.7172L109.785 23.7144V23.7116L109.782 23.7088L109.779 23.7059L109.776 23.7031L109.773 23.7003L109.771 23.6975L109.768 23.6947L109.765 23.6918L109.762 23.689V23.6862L109.759 23.6834L109.756 23.6805L109.754 23.6777L109.751 23.6749L109.748 23.6721L109.745 23.6692L109.742 23.6664L109.739 23.6636V23.6608L109.737 23.6579L109.734 23.6551V23.6523L109.731 23.6495L109.728 23.6466V23.6438V23.641L109.725 23.6382L109.722 23.6354V23.6325L109.72 23.6297L109.717 23.6269L109.714 23.6241L109.711 23.6212V23.6184L109.708 23.6156L109.705 23.6128V23.6099L109.703 23.6071L109.7 23.6043L109.697 23.6015L109.694 23.5986L109.691 23.5958L109.689 23.593L109.686 23.5902L109.683 23.5873L109.68 23.5845L109.677 23.5817L109.674 23.5789L109.672 23.5761L109.669 23.5732L109.666 23.5704L109.663 23.5676L109.66 23.5648H109.657L109.655 23.5619L109.652 23.5591L109.646 23.5535ZM127.056 23.6043L122.343 9.89738L146.014 17.5951L137.93 35.038L121.681 49.2108L127.073 23.8669C127.09 23.7765 127.084 23.6862 127.056 23.6043ZM139.119 34.829L146.704 18.4621L154.38 34.4676L139.119 34.829ZM156.67 56.2026L152.832 49.496L154.992 38.4153L156.67 56.2026ZM138.527 35.8343L154.556 35.4531L149.028 63.8411L141.103 66.4333L124.636 60.8224L121.454 50.7272L138.527 35.8343ZM142.04 67.1675L149.138 64.8464L153.367 78.0308L142.04 67.1675ZM144.635 79.7138L153.885 80.2108L153.296 85.658L144.635 79.7138ZM73.0804 79.5811L69.8283 85.8783L56.9076 79.6461L75.9391 64.8322L73.0804 79.5811ZM81.7102 78.7622L77.2326 63.7535L86.2502 53.6753L99.185 59.5008L81.7102 78.7622ZM77.8864 86.0392L81.6593 80.3803L93.3884 86.0392H77.8864ZM98.4689 79.6122L95.3357 85.8754L82.2989 79.5868L99.4426 60.6869L98.4689 79.6122ZM104.325 70.446L100.51 59.2495L101.172 37.3874L109.244 24.9795L120.314 50.49L104.325 70.446ZM111.797 78.5899L104.806 71.4287L120.69 51.5998L123.727 61.2375L122.071 69.4718L111.797 78.5899ZM103.926 84.6245L111.763 79.8607L121.355 86.042H103.753L103.926 84.6245ZM123.178 80.3548L122.632 85.6806L112.59 79.2112L122.134 70.7425L123.178 80.3548ZM129.088 70.4375L125.179 62.0536L139.549 66.9501L129.088 70.4375ZM143.045 78.6351L130.028 71.1689L140.97 67.5177L153.126 79.1773L143.045 78.6351ZM134.602 84.6273L142.883 79.711L152.105 86.0392H134.432L134.602 84.6273ZM133.645 84.2687L133.43 86.0392V86.0477H123.597L124.174 80.4113C124.177 80.3774 124.177 80.3435 124.174 80.3097L123.028 69.7626L124.429 62.7963L128.375 71.2621V71.2649L128.383 71.279L128.386 71.2819L128.389 71.2875L128.397 71.3016V71.3045L128.4 71.3073L128.411 71.3242L128.431 71.3525V71.3553C128.445 71.3722 128.46 71.3892 128.477 71.4061L128.479 71.4089L128.502 71.4287L128.519 71.4428L128.522 71.4456L128.53 71.4513L128.536 71.4541L128.542 71.4569L128.544 71.4598L128.55 71.4626H128.553L128.556 71.4654L128.578 71.4795L128.584 71.4824L128.587 71.4852L128.61 71.4965L141.921 79.1321L133.885 83.9016C133.747 83.9806 133.662 84.119 133.645 84.2687ZM102.969 84.2687L102.754 86.0392H96.3688L99.4058 79.968C99.4397 79.8974 99.4567 79.8183 99.4567 79.7421L100.374 61.935L103.674 71.6236C103.702 71.7026 103.748 71.7732 103.807 71.8269L110.982 79.1773L103.204 83.9044C103.068 83.9863 102.986 84.1218 102.969 84.2687ZM80.9432 79.6658L76.6948 86.0392V86.042H70.8642L73.9974 79.9736C74.0173 79.9313 74.0342 79.8861 74.0427 79.8409L76.7797 65.7133L80.9432 79.6658ZM58.9172 32.906L75.7523 62.9883L47.624 58.7553L58.9172 32.906ZM24.3554 35.6451L58.0681 32.3666L46.7466 58.2809L24.3554 35.6451ZM100.184 37.2321L99.5359 58.569L86.6011 52.7434L85.3048 31.8753L92.3609 10.1459L108.678 24.0307L100.263 36.9638C100.21 37.0457 100.184 37.1389 100.184 37.2321ZM85.6161 52.8959L76.7712 62.7821L59.5144 31.9487L91.2005 10.5045L84.334 31.6437C84.3113 31.7059 84.3029 31.7708 84.3057 31.8386L85.6161 52.8959ZM8.77137 50.8726L3.68235 54.4744L1.36144 33.8717L8.77137 50.8726Z" fill="white"/>
</svg>
