<svg width="66" height="26" viewBox="0 0 66 26" fill="none" xmlns="http://www.w3.org/2000/svg">
<g style="mix-blend-mode:luminosity" opacity="0.2">
<path d="M30.8926 12.7578V20.2534H28.498V1.74245H34.8487C35.6067 1.72673 36.3604 1.86024 37.0662 2.13529C37.772 2.41034 38.416 2.82148 38.961 3.34498C39.5115 3.83669 39.9496 4.43973 40.2459 5.11356C40.5422 5.78738 40.6898 6.51639 40.6788 7.25158C40.6946 7.9907 40.5492 8.72447 40.2527 9.40259C39.9562 10.0807 39.5156 10.6872 38.961 11.1803C37.8505 12.2319 36.4797 12.7573 34.8487 12.7563H30.8926V12.7578ZM30.8926 4.02143V10.4832H34.9082C35.3484 10.4962 35.7865 10.4177 36.1945 10.2529C36.6025 10.0881 36.9713 9.84058 37.2774 9.52613C37.5819 9.23212 37.824 8.88045 37.9893 8.49193C38.1546 8.1034 38.2397 7.68591 38.2397 7.26414C38.2397 6.84236 38.1546 6.42487 37.9893 6.03634C37.824 5.64782 37.5819 5.29615 37.2774 5.00214C36.9751 4.68106 36.6076 4.42745 36.1991 4.25812C35.7907 4.08879 35.3506 4.0076 34.9082 4.01995H30.8926V4.02143Z" fill="#5F6368"/>
<path d="M46.1984 7.17432C47.9683 7.17432 49.3653 7.644 50.3895 8.58335C51.4138 9.52271 51.9254 10.8106 51.9244 12.4471V20.253H49.634V18.4953H49.5299C48.5384 19.9428 47.2197 20.6665 45.5738 20.6665C44.1688 20.6665 42.9933 20.253 42.0474 19.4258C41.5935 19.0462 41.2306 18.5708 40.9851 18.0342C40.7397 17.4977 40.6179 16.9134 40.6286 16.3242C40.6286 15.0136 41.1273 13.9714 42.1248 13.1974C43.1222 12.4235 44.4538 12.0355 46.1196 12.0336C47.5414 12.0336 48.7124 12.292 49.6325 12.809V12.2655C49.6352 11.8637 49.5479 11.4665 49.3768 11.1024C49.2057 10.7384 48.9553 10.4167 48.6435 10.1608C48.0103 9.59343 47.185 9.28387 46.3323 9.29378C44.9947 9.29378 43.9363 9.85405 43.1569 10.9746L41.048 9.65564C42.2081 8.00142 43.9249 7.17432 46.1984 7.17432ZM43.1004 16.3759C43.0988 16.6785 43.1701 16.9772 43.3082 17.2469C43.4464 17.5167 43.6474 17.7497 43.8946 17.9267C44.4242 18.3404 45.0815 18.5596 45.7552 18.547C46.7656 18.5454 47.7342 18.146 48.4487 17.4364C49.2419 16.6949 49.6385 15.825 49.6385 14.8265C48.8919 14.2357 47.8508 13.9404 46.5152 13.9404C45.5425 13.9404 44.7315 14.1732 44.082 14.639C43.4261 15.1116 43.1004 15.6861 43.1004 16.3759Z" fill="#5F6368"/>
<path d="M65.0723 7.58789L57.0767 25.8359H54.6048L57.572 19.451L52.3145 7.58789H54.9172L58.7172 16.6861H58.7692L62.4651 7.58789H65.0723Z" fill="#5F6368"/>
<path d="M21.2175 11.1413C21.2185 10.4166 21.1567 9.69321 21.0331 8.979H10.9346V13.0747H16.7186C16.6002 13.7288 16.3497 14.3524 15.9821 14.9078C15.6146 15.4632 15.1376 15.9389 14.5799 16.3063V18.9648H18.0318C20.053 17.1142 21.2175 14.3774 21.2175 11.1413Z" fill="#4285F4"/>
<path d="M10.9338 21.533C13.8236 21.533 16.2568 20.5907 18.0311 18.9661L14.5791 16.3075C13.6183 16.9544 12.3809 17.3237 10.9338 17.3237C8.14073 17.3237 5.77002 15.4538 4.92227 12.9341H1.36621V15.6739C2.25748 17.4351 3.62415 18.9157 5.31364 19.9504C7.00312 20.985 8.94893 21.533 10.9338 21.533Z" fill="#34A853"/>
<path d="M4.92287 12.9353C4.4747 11.615 4.4747 10.1851 4.92287 8.86479V6.125H1.36681C0.617042 7.60664 0.226562 9.24186 0.226562 10.9001C0.226562 12.5583 0.617042 14.1935 1.36681 15.6751L4.92287 12.9353Z" fill="#FBBC04"/>
<path d="M10.9338 4.47425C12.4609 4.44947 13.9365 5.02246 15.0417 6.06938L18.098 3.03419C16.16 1.22648 13.5925 0.23402 10.9338 0.264858C8.94893 0.264948 7.00312 0.812898 5.31364 1.84753C3.62415 2.88217 2.25748 4.36277 1.36621 6.12403L4.92227 8.86382C5.77002 6.3441 8.14073 4.47425 10.9338 4.47425Z" fill="#EA4335"/>
</g>
</svg>
