<svg width="85" height="45" viewBox="0 0 85 45" fill="none" xmlns="http://www.w3.org/2000/svg">
<path fill-rule="evenodd" clip-rule="evenodd" d="M8.85667 44.1566C8.85667 44.2932 8.96795 44.4045 9.10457 44.4045V44.3918H26.6025H35.8648H39.3002H48.5611H52.3542H62.2377H67.6112H77.4863H84.3556C84.4922 44.3918 84.6035 44.2806 84.6035 44.1439C84.6035 44.0072 84.4922 43.8959 84.3556 43.8959H77.7553L78.0905 40.7825V40.781V40.7796V40.7782V40.7768V40.7754V40.774V40.7726V40.7712V40.7698C78.0905 40.7647 78.0905 40.7592 78.0903 40.7538C78.0901 40.7487 78.0898 40.7436 78.0891 40.7388V40.7374V40.736V40.7346V40.7332V40.7317V40.7303V40.7289L78.0877 40.7219L78.0863 40.7134V40.712V40.7106V40.7092L78.0835 40.7007V40.6993V40.6979V40.6965V40.6951V40.6937V40.6923V40.6909V40.6895L78.0821 40.6838L78.0807 40.681L78.0792 40.6796V40.6782V40.6768L75.6256 33.0058L76.906 26.4167L79.0976 30.2572C79.1441 30.3403 79.237 30.3924 79.337 30.3826C79.4723 30.3699 79.5723 30.2487 79.5596 30.1135L78.4567 18.4048C78.4553 18.371 78.4469 18.3372 78.4328 18.3076L78.4257 18.2935L74.227 9.51798C74.2044 9.46162 74.1608 9.41232 74.1016 9.38555L74.0749 9.37568H74.072L74.0664 9.37428L61.5729 5.29998C61.5391 5.28589 61.4997 5.28025 61.4617 5.28448L46.8681 5.3676L29.9421 1.01013C29.8787 0.991815 29.8125 0.998858 29.7575 1.02703L18.0655 7.09058L13.1766 6.4538C13.0428 6.43689 12.9174 6.53128 12.9005 6.66653C12.8906 6.73838 12.9146 6.80882 12.9583 6.85954L15.2062 9.71098L13.9428 14.2572L12.3498 18.4738L9.84122 23.3723L7.06646 20.4884C7.01153 20.3631 6.86505 20.3081 6.7411 20.3631C6.63968 20.4067 6.58475 20.511 6.59602 20.6152L6.7195 25.3156C6.72051 25.3247 6.72025 25.3408 6.71997 25.3588C6.71946 25.3908 6.71886 25.4286 6.72517 25.443L5.74407 26.0949L1.47327 16.1704C1.41975 16.0464 1.27467 15.9887 1.14931 16.0422C1.04649 16.0859 0.990153 16.1901 1.00142 16.2958L2.37331 28.506C2.37613 28.5314 2.38317 28.5553 2.39303 28.5779L2.39444 28.5807L2.39585 28.5835V28.5849L2.40711 28.6046V28.606L2.41416 28.6159L2.41557 28.6173L2.41697 28.6201L2.41838 28.6229L2.41979 28.6258V28.6272L2.42261 28.63L2.42402 28.6314L2.42542 28.6342L2.42824 28.637L2.43106 28.6399L2.43247 28.6413L2.43388 28.6427L2.43669 28.6455L2.43951 28.6483L2.44092 28.6497L2.44233 28.6511L2.44514 28.6539L2.44655 28.6554L2.45078 28.6596L2.4536 28.6624L2.455 28.6638L2.45641 28.6652L2.45923 28.668L2.46205 28.6709L2.46345 28.6723L2.46486 28.6737L2.46768 28.6765H2.46909L2.47331 28.6807L2.47754 28.6835L2.47895 28.6849L2.48177 28.6863L2.48458 28.6878L2.48599 28.6892L2.49303 28.6948L2.49585 28.6962L2.50289 28.7004L2.50571 28.7018L8.082 32.0901L11.0314 36.208C11.0582 36.2461 11.0934 36.2742 11.1342 36.2911L14.4935 38.0832C14.6034 38.1409 14.7386 38.1085 14.809 38.0113L16.8457 35.2402L24.2277 30.8489L28.573 40.7444L26.4701 43.9086H9.10457C8.96795 43.9086 8.85667 44.0199 8.85667 44.1566ZM9.45149 23.6313L7.19606 25.1301L6.98479 21.0052L9.45149 23.6313ZM34.7789 43.9086H27.0645L28.9406 41.0854L34.7789 43.9086ZM38.5523 32.8874L28.9519 40.3781L24.7489 30.8052L38.5523 32.8874ZM15.1724 30.0867L23.539 30.6841L16.588 34.8189L11.7329 35.7192L15.1724 30.0867ZM11.9709 36.177L16.1077 35.4092L14.5372 37.5464L11.9709 36.177ZM14.4907 30.2544L11.2173 35.6149L8.65807 32.0407L14.4907 30.2544ZM9.44835 24.1767L7.97636 31.4476L3.22264 28.5596L9.44835 24.1767ZM9.90753 23.797L9.91034 23.8302L8.47075 31.573L14.5978 29.6965L9.91034 23.8302V23.8287V23.8273V23.8259V23.8245V23.8231V23.8217V23.8203V23.8189V23.8175V23.8161V23.8147V23.8132V23.8118V23.8104V23.809V23.8076V23.8062V23.8048V23.8034V23.802V23.8006V23.7992V23.7978V23.7963V23.7949V23.7935V23.7921V23.7907L9.90894 23.7865V23.7851V23.7837V23.7823V23.7808L9.90753 23.7766V23.7752L9.90612 23.771V23.7696L9.90487 23.7658L9.90471 23.7639V23.7653L9.90487 23.7658L9.90753 23.797ZM15.1598 29.5894L10.1905 23.7752L12.6427 18.9866L23.7052 30.1994L15.1598 29.5894ZM29.8885 16.6367L12.9512 18.2879L14.409 14.4277L14.4161 14.4066L15.664 9.91667L26.3842 10.452L29.8885 16.6367ZM17.5401 7.52309L15.5119 9.30243L13.716 7.02437L17.5401 7.52309ZM16.1006 9.4419L18.2528 7.55408L29.4181 1.76244L26.3644 9.95471L16.1006 9.4419ZM26.8039 10.1886L30.0266 1.54266L46.2512 5.71981L30.3745 16.4888L26.8039 10.1886ZM55.5642 12.7343L47.5062 5.85928L61.3194 5.78038L63.7449 12.8569L61.0828 25.401L55.6473 12.84L55.6445 12.8329V12.8315L55.6431 12.8301V12.8287L55.6403 12.8231V12.8217L55.6389 12.8202L55.6375 12.8188L55.6361 12.8174L55.6347 12.816L55.6332 12.8146V12.8132L55.6318 12.8118L55.6304 12.8104L55.629 12.809L55.6276 12.8076L55.6262 12.8062L55.6248 12.8048L55.6234 12.8033L55.622 12.8019V12.8005L55.6206 12.7991L55.6192 12.7977L55.6178 12.7963L55.6163 12.7949L55.6149 12.7935L55.6135 12.7921L55.6121 12.7907L55.6107 12.7893V12.7878L55.6093 12.7864L55.6079 12.785V12.7836L55.6065 12.7822L55.6051 12.7808V12.7794V12.778L55.6037 12.7766L55.6023 12.7752V12.7738L55.6009 12.7723L55.5994 12.7709L55.598 12.7695L55.5966 12.7681V12.7667L55.5952 12.7653L55.5938 12.7639V12.7625L55.5924 12.7611L55.591 12.7597L55.5896 12.7583L55.5882 12.7568L55.5868 12.7554L55.5854 12.754L55.584 12.7526L55.5825 12.7512L55.5811 12.7498L55.5797 12.7484L55.5783 12.747L55.5769 12.7456L55.5755 12.7442L55.5741 12.7428L55.5727 12.7414L55.5713 12.7399H55.5699L55.5685 12.7385L55.5671 12.7371L55.5642 12.7343ZM64.228 12.7597L61.8828 5.92127L73.6622 9.7617L69.6395 18.464L61.5532 25.5348L64.2364 12.8907C64.2449 12.8456 64.2421 12.8005 64.228 12.7597ZM70.231 18.3597L74.0058 10.1942L77.8257 18.1794L70.231 18.3597ZM78.9652 29.0231L77.0553 25.6771L78.13 20.1489L78.9652 29.0231ZM69.9367 18.8613L77.913 18.6711L75.1622 32.8339L71.2184 34.1272L63.0237 31.3279L61.4405 26.2914L69.9367 18.8613ZM71.6846 34.4935L75.2172 33.3354L77.3215 39.9132L71.6846 34.4935ZM72.9762 40.7529L77.5792 41.0008L77.2863 43.7184L72.9762 40.7529ZM37.3677 40.6867L35.7493 43.8283L29.3195 40.7191L38.7903 33.3284L37.3677 40.6867ZM41.6622 40.2781L39.434 32.7902L43.9215 27.7622L50.3584 30.6686L41.6622 40.2781ZM39.7594 43.9086L41.6369 41.0854L47.4738 43.9086H39.7594ZM50.002 40.7022L48.4428 43.8269L41.9552 40.6895L50.4866 31.2603L50.002 40.7022ZM52.9162 36.1291L51.0176 30.5432L51.3472 19.6361L55.3642 13.4458L60.8729 26.173L52.9162 36.1291ZM56.6347 40.1922L53.1557 36.6194L61.0602 26.7267L62.5716 31.535L61.7476 35.6431L56.6347 40.1922ZM52.7176 43.2028L56.6178 40.8261L61.3912 43.91H52.6317L52.7176 43.2028ZM62.2983 41.0727L62.0265 43.7297L57.0291 40.5021L61.7786 36.2771L62.2983 41.0727ZM65.2393 36.1249L63.2941 31.9421L70.4451 34.385L65.2393 36.1249ZM72.1846 40.2147L65.7069 36.4898L71.1522 34.6682L77.2017 40.4852L72.1846 40.2147ZM67.9831 43.2042L72.1043 40.7515L76.6933 43.9086H67.8985L67.9831 43.2042ZM67.507 43.0253L67.3999 43.9086V43.9129H62.5068L62.7941 41.1008C62.7955 41.0839 62.7955 41.067 62.7941 41.0501L62.2237 35.7882L62.9209 32.3126L64.8843 36.5363V36.5377L64.8886 36.5447L64.89 36.5461L64.8914 36.549L64.8956 36.556V36.5574L64.897 36.5588L64.9026 36.5673L64.9125 36.5814V36.5828C64.9195 36.5912 64.9266 36.5997 64.935 36.6081L64.9365 36.6095L64.9477 36.6194L64.9562 36.6264L64.9576 36.6279L64.9618 36.6307L64.9646 36.6321L64.9674 36.6335L64.9688 36.6349L64.9717 36.6363H64.9731L64.9745 36.6377L64.9857 36.6448L64.9886 36.6462L64.99 36.6476L65.0012 36.6532L71.6255 40.4627L67.6267 42.8421C67.5577 42.8816 67.5154 42.9506 67.507 43.0253ZM52.2416 43.0253L52.1345 43.9086H48.9569L50.4682 40.8797C50.4851 40.8444 50.4936 40.805 50.4936 40.767L50.95 31.883L52.5923 36.7166C52.6064 36.7561 52.6289 36.7913 52.6585 36.8181L56.229 40.4852L52.3585 42.8436C52.2909 42.8844 52.25 42.952 52.2416 43.0253ZM41.2805 40.7289L39.1664 43.9086V43.91H36.2648L37.8241 40.8825C37.8339 40.8614 37.8424 40.8388 37.8466 40.8163L39.2086 33.768L41.2805 40.7289ZM30.3195 17.4003L38.6973 32.4084L24.6996 30.2966L30.3195 17.4003ZM13.1202 18.7669L29.897 17.1312L24.2629 30.0599L13.1202 18.7669ZM50.8556 19.5586L50.533 30.2036L44.0962 27.2973L43.4511 16.8861L46.9625 6.04524L55.0825 12.9724L50.895 19.4248C50.8683 19.4656 50.8556 19.5121 50.8556 19.5586ZM43.606 27.3733L39.2044 32.3056L30.6167 16.9227L46.385 6.22416L42.9679 16.7706C42.9567 16.8016 42.9524 16.834 42.9539 16.8678L43.606 27.3733ZM5.365 26.3639L2.83248 28.1609L1.67751 17.8821L5.365 26.3639Z" fill="#524AA8"/>
<path d="M5.74408 26.0949L1.47327 16.1704C1.41975 16.0464 1.27467 15.9887 1.14931 16.0422C1.04649 16.0859 0.990153 16.1901 1.00142 16.2958L2.37331 28.506C2.37613 28.5314 2.38317 28.5553 2.39303 28.5779L2.39444 28.5807L2.39585 28.5835V28.5849L2.40711 28.6046V28.606L2.41416 28.6159L2.41556 28.6173L2.41697 28.6201L2.41838 28.623L2.41979 28.6258V28.6272L2.42261 28.63L2.42402 28.6314L2.42542 28.6342L2.42824 28.637L2.43106 28.6399L2.43247 28.6413L2.43388 28.6427L2.43669 28.6455L2.43951 28.6483L2.44092 28.6497L2.44233 28.6511L2.44514 28.6539L2.44655 28.6554L2.45078 28.6596L2.4536 28.6624L2.455 28.6638L2.45641 28.6652L2.45923 28.668L2.46205 28.6709L2.46345 28.6723L2.46486 28.6737L2.46768 28.6765H2.46909L2.47331 28.6807L2.47754 28.6835L2.47895 28.6849L2.48177 28.6863L2.48458 28.6878L2.48599 28.6892L2.49303 28.6948L2.49585 28.6962L2.50289 28.7004L2.50571 28.7018L8.082 32.0901L11.0314 36.208C11.0582 36.2461 11.0934 36.2742 11.1342 36.2911L14.4935 38.0832C14.6034 38.1409 14.7386 38.1085 14.809 38.0113L16.8457 35.2402L24.2277 30.8489L28.573 40.7444L26.4701 43.9086H9.10457C8.96795 43.9086 8.85667 44.0199 8.85667 44.1566C8.85667 44.2932 8.96795 44.4045 9.10457 44.4045V44.3918H26.6025H35.8648H39.3002H48.5611H52.3542H62.2377H67.6112H77.4863H84.3556C84.4922 44.3918 84.6035 44.2806 84.6035 44.1439C84.6035 44.0072 84.4922 43.8959 84.3556 43.8959H77.7553L78.0905 40.7825V40.781V40.7796V40.7782V40.7768V40.7754V40.774V40.7726V40.7712V40.7698C78.0905 40.7647 78.0905 40.7592 78.0903 40.7538C78.0901 40.7487 78.0898 40.7436 78.0891 40.7388V40.7374V40.736V40.7346V40.7331V40.7317V40.7303V40.7289L78.0877 40.7219L78.0863 40.7134V40.712V40.7106V40.7092L78.0835 40.7007V40.6993V40.6979V40.6965V40.6951V40.6937V40.6923V40.6909V40.6895L78.0821 40.6838L78.0807 40.681L78.0792 40.6796V40.6782V40.6768L75.6256 33.0058L76.906 26.4167L79.0976 30.2572C79.1441 30.3403 79.237 30.3924 79.337 30.3826C79.4723 30.3699 79.5723 30.2487 79.5596 30.1135L78.4567 18.4048C78.4553 18.371 78.4469 18.3372 78.4328 18.3076L78.4257 18.2935L74.227 9.51798C74.2044 9.46162 74.1608 9.41232 74.1016 9.38555L74.0749 9.37568H74.072L74.0664 9.37428L61.5729 5.29998C61.5391 5.28589 61.4997 5.28026 61.4617 5.28448L46.8681 5.3676L29.9421 1.01013C29.8787 0.991815 29.8125 0.998858 29.7575 1.02703L18.0655 7.09058L13.1766 6.4538C13.0428 6.43689 12.9174 6.53128 12.9005 6.66653C12.8906 6.73838 12.9146 6.80882 12.9583 6.85954L15.2062 9.71098L13.9428 14.2572L12.3498 18.4738L9.84122 23.3723M5.74408 26.0949L9.84122 23.3723M5.74408 26.0949L6.72517 25.443M9.84122 23.3723L6.72517 25.443M9.84122 23.3723L7.06646 20.4884C7.01153 20.3631 6.86505 20.3081 6.7411 20.3631C6.63968 20.4067 6.58475 20.511 6.59602 20.6152L6.7195 25.3156C6.72051 25.3247 6.72025 25.3408 6.71997 25.3588C6.71946 25.3908 6.71886 25.4286 6.72517 25.443M9.84122 23.3723L7.19606 25.1301M9.84122 23.3723L9.45149 23.6313M9.91034 23.8302V23.8287V23.8273V23.8259V23.8245V23.8231V23.8217V23.8203V23.8189V23.8175V23.8161V23.8147V23.8132V23.8118V23.8104V23.809V23.8076V23.8062V23.8048V23.8034V23.802V23.8006V23.7992V23.7978V23.7963V23.7949V23.7935V23.7921V23.7907L9.90894 23.7865V23.7851V23.7837V23.7823V23.7808L9.90753 23.7766V23.7752L9.90612 23.771V23.7696L9.90487 23.7658M9.91034 23.8302L8.47074 31.573L14.5978 29.6965L9.91034 23.8302ZM9.91034 23.8302L9.90753 23.797L9.90487 23.7658M7.19606 25.1301L6.98479 21.0052L9.45149 23.6313M7.19606 25.1301L9.45149 23.6313M9.90487 23.7658L9.90471 23.7639V23.7653L9.90487 23.7658ZM27.0645 43.9086H34.7789L28.9406 41.0854L27.0645 43.9086ZM28.9519 40.3781L38.5523 32.8874L24.7489 30.8052L28.9519 40.3781ZM23.539 30.6841L15.1724 30.0867L11.7329 35.7192L16.588 34.8189L23.539 30.6841ZM16.1077 35.4092L11.9709 36.177L14.5372 37.5464L16.1077 35.4092ZM11.2173 35.6149L14.4907 30.2544L8.65807 32.0407L11.2173 35.6149ZM7.97636 31.4476L9.44835 24.1767L3.22264 28.5596L7.97636 31.4476ZM2.83248 28.1609L1.67751 17.8821L5.365 26.3639L2.83248 28.1609ZM10.1905 23.7752L15.1598 29.5894L23.7052 30.1994L12.6427 18.9866L10.1905 23.7752ZM12.9512 18.2879L29.8885 16.6367L26.3842 10.452L15.664 9.91667L14.4161 14.4066L14.409 14.4277L12.9512 18.2879ZM15.5119 9.30243L17.5401 7.52309L13.716 7.02437L15.5119 9.30243ZM18.2528 7.55408L16.1006 9.4419L26.3644 9.95471L29.4181 1.76244L18.2528 7.55408ZM30.0266 1.54266L26.8039 10.1886L30.3745 16.4888L46.2512 5.71981L30.0266 1.54266ZM47.5062 5.85928L55.5642 12.7343L55.567 12.7371L55.5685 12.7385L55.5699 12.7399H55.5713L55.5727 12.7414L55.5741 12.7428L55.5755 12.7442L55.5769 12.7456L55.5783 12.747L55.5797 12.7484L55.5811 12.7498L55.5825 12.7512L55.584 12.7526L55.5854 12.754L55.5868 12.7554L55.5882 12.7568L55.5896 12.7583L55.591 12.7597L55.5924 12.7611L55.5938 12.7625V12.7639L55.5952 12.7653L55.5966 12.7667V12.7681L55.598 12.7695L55.5994 12.7709L55.6009 12.7723L55.6023 12.7738V12.7752L55.6037 12.7766L55.6051 12.778V12.7794V12.7808L55.6065 12.7822L55.6079 12.7836V12.785L55.6093 12.7864L55.6107 12.7878V12.7893L55.6121 12.7907L55.6135 12.7921L55.6149 12.7935L55.6163 12.7949L55.6178 12.7963L55.6192 12.7977L55.6206 12.7991L55.622 12.8005V12.8019L55.6234 12.8033L55.6248 12.8048L55.6262 12.8062L55.6276 12.8076L55.629 12.809L55.6304 12.8104L55.6318 12.8118L55.6332 12.8132V12.8146L55.6347 12.816L55.6361 12.8174L55.6375 12.8188L55.6389 12.8202L55.6403 12.8217V12.8231L55.6431 12.8287V12.8301L55.6445 12.8315V12.8329L55.6473 12.84L61.0828 25.401L63.7449 12.8569L61.3194 5.78038L47.5062 5.85928ZM61.8828 5.92127L64.228 12.7597C64.2421 12.8005 64.2449 12.8456 64.2364 12.8907L61.5532 25.5348L69.6395 18.464L73.6622 9.7617L61.8828 5.92127ZM74.0058 10.1942L70.231 18.3597L77.8257 18.1794L74.0058 10.1942ZM77.0553 25.6771L78.9652 29.0231L78.13 20.1489L77.0553 25.6771ZM77.913 18.6711L69.9367 18.8613L61.4405 26.2914L63.0237 31.3279L71.2184 34.1272L75.1622 32.8339L77.913 18.6711ZM75.2172 33.3354L71.6846 34.4935L77.3215 39.9132L75.2172 33.3354ZM77.5792 41.0008L72.9762 40.7529L77.2863 43.7184L77.5792 41.0008ZM35.7493 43.8283L37.3677 40.6867L38.7903 33.3284L29.3195 40.7191L35.7493 43.8283ZM39.434 32.7902L41.6622 40.2781L50.3584 30.6686L43.9215 27.7622L39.434 32.7902ZM41.6369 41.0854L39.7594 43.9086H47.4738L41.6369 41.0854ZM48.4428 43.8269L50.002 40.7022L50.4866 31.2603L41.9552 40.6895L48.4428 43.8269ZM51.0176 30.5432L52.9162 36.1291L60.8729 26.173L55.3642 13.4458L51.3472 19.6361L51.0176 30.5432ZM53.1557 36.6194L56.6347 40.1922L61.7476 35.6431L62.5716 31.535L61.0602 26.7267L53.1557 36.6194ZM56.6178 40.8261L52.7176 43.2028L52.6317 43.91H61.3912L56.6178 40.8261ZM62.0265 43.7297L62.2983 41.0727L61.7786 36.2771L57.0291 40.5021L62.0265 43.7297ZM63.2941 31.9421L65.2393 36.1249L70.4451 34.385L63.2941 31.9421ZM65.7069 36.4898L72.1846 40.2147L77.2017 40.4852L71.1522 34.6682L65.7069 36.4898ZM72.1043 40.7515L67.9831 43.2042L67.8985 43.9086H76.6933L72.1043 40.7515ZM67.3999 43.9086L67.507 43.0253C67.5154 42.9506 67.5577 42.8816 67.6267 42.8421L71.6255 40.4627L65.0012 36.6532L64.99 36.6476L64.9886 36.6462L64.9857 36.6448L64.9745 36.6377L64.9731 36.6363H64.9717L64.9688 36.6349L64.9674 36.6335L64.9646 36.6321L64.9618 36.6307L64.9576 36.6279L64.9562 36.6264L64.9477 36.6194L64.9365 36.6095L64.935 36.6081C64.9266 36.5997 64.9195 36.5912 64.9125 36.5828V36.5814L64.9026 36.5673L64.897 36.5588L64.8956 36.5574V36.556L64.8914 36.549L64.89 36.5461L64.8886 36.5447L64.8843 36.5377V36.5363L62.9209 32.3126L62.2237 35.7882L62.7941 41.0501C62.7955 41.067 62.7955 41.0839 62.7941 41.1008L62.5068 43.9129H67.3999V43.9086ZM52.1345 43.9086L52.2416 43.0253C52.25 42.952 52.2909 42.8844 52.3585 42.8436L56.2291 40.4852L52.6585 36.818C52.6289 36.7913 52.6064 36.7561 52.5923 36.7166L50.95 31.883L50.4936 40.767C50.4936 40.805 50.4851 40.8444 50.4682 40.8797L48.9569 43.9086H52.1345ZM39.1664 43.9086L41.2805 40.7289L39.2086 33.768L37.8466 40.8163C37.8424 40.8388 37.8339 40.8614 37.8241 40.8825L36.2648 43.91H39.1664V43.9086ZM38.6973 32.4084L30.3195 17.4003L24.6996 30.2966L38.6973 32.4084ZM29.897 17.1312L13.1202 18.7669L24.2629 30.0599L29.897 17.1312ZM50.533 30.2036L50.8556 19.5586C50.8556 19.5121 50.8683 19.4656 50.895 19.4248L55.0825 12.9724L46.9625 6.04524L43.4511 16.8861L44.0962 27.2973L50.533 30.2036ZM39.2044 32.3056L43.606 27.3733L42.9539 16.8678C42.9524 16.834 42.9567 16.8016 42.9679 16.7706L46.385 6.22416L30.6167 16.9227L39.2044 32.3056Z" stroke="#524AA8" stroke-width="0.5"/>
</svg>
