<svg width="19" height="17" viewBox="0 0 19 17" fill="none" xmlns="http://www.w3.org/2000/svg">
<path d="M18.8226 7.97444C16.3446 4.76815 13.0328 3 9.5 3C5.96719 3 2.65542 4.76815 0.177416 7.97444C-0.0591387 8.28 -0.0591387 8.71593 0.177416 9.02148C2.65542 12.2319 5.96719 14 9.5 14C13.0328 14 16.3446 12.2319 18.8226 9.02556C19.0591 8.72 19.0591 8.28 18.8226 7.97444ZM9.5 11.2256C8.06904 11.2256 6.90565 10.0033 6.90565 8.5C6.90565 6.99667 8.06904 5.77444 9.5 5.77444C10.931 5.77444 12.0943 6.99667 12.0943 8.5C12.0943 10.0033 10.931 11.2256 9.5 11.2256ZM1.82942 8.5C3.29529 6.78074 5.04424 5.60333 6.92892 5.04111C5.95168 5.8437 5.31957 7.09444 5.31957 8.5C5.31957 9.90148 5.9478 11.1522 6.92892 11.9589C5.04424 11.3967 3.29916 10.2193 1.82942 8.5ZM12.0711 11.9589C13.0483 11.1563 13.6804 9.90556 13.6804 8.5C13.6804 7.09852 13.0522 5.84778 12.0711 5.04111C13.9558 5.60333 15.7047 6.78074 17.1706 8.5C15.7008 10.2193 13.9558 11.3967 12.0711 11.9589Z" fill="#8A92A6" fill-opacity="0.32"/>
<path d="M3 2L17 15" stroke="#F2F1FD" stroke-width="3" stroke-linecap="round"/>
<path d="M3 2L17 15" stroke="#D0D3E1" stroke-width="2" stroke-linecap="round"/>
</svg>
