<svg width="19" height="11" viewBox="0 0 19 11" fill="none" xmlns="http://www.w3.org/2000/svg">
<path d="M18.8226 4.97444C16.3446 1.76815 13.0328 0 9.5 0C5.96719 0 2.65542 1.76815 0.177416 4.97444C-0.0591387 5.28 -0.0591387 5.71593 0.177416 6.02148C2.65542 9.23185 5.96719 11 9.5 11C13.0328 11 16.3446 9.23185 18.8226 6.02556C19.0591 5.72 19.0591 5.28 18.8226 4.97444ZM9.5 8.22556C8.06904 8.22556 6.90565 7.00333 6.90565 5.5C6.90565 3.99667 8.06904 2.77444 9.5 2.77444C10.931 2.77444 12.0943 3.99667 12.0943 5.5C12.0943 7.00333 10.931 8.22556 9.5 8.22556ZM1.82942 5.5C3.29529 3.78074 5.04424 2.60333 6.92892 2.04111C5.95168 2.8437 5.31957 4.09444 5.31957 5.5C5.31957 6.90148 5.9478 8.15222 6.92892 8.95889C5.04424 8.39667 3.29916 7.21926 1.82942 5.5ZM12.0711 8.95889C13.0483 8.1563 13.6804 6.90556 13.6804 5.5C13.6804 4.09852 13.0522 2.84778 12.0711 2.04111C13.9558 2.60333 15.7047 3.78074 17.1706 5.5C15.7008 7.21926 13.9558 8.39667 12.0711 8.95889Z" fill="#8A92A6" fill-opacity="0.32"/>
</svg>
