<svg width="463" height="390" viewBox="0 0 463 390" fill="none" xmlns="http://www.w3.org/2000/svg">
<g filter="url(#filter0_d_898_4565)">
<path fill-rule="evenodd" clip-rule="evenodd" d="M80.6328 193.046C80.6328 193.651 81.1251 194.143 81.7307 194.143V194.087H159.228H200.251H215.467H256.483H273.283H317.057H340.856H384.592H415.017C415.622 194.087 416.115 193.595 416.115 192.99C416.115 192.385 415.622 191.892 415.017 191.892H385.784L387.268 178.109V178.103V178.097V178.09V178.084V178.078V178.072V178.065V178.059V178.053C387.268 178.03 387.268 178.006 387.268 177.982C387.267 177.96 387.266 177.937 387.263 177.915V177.91V177.904V177.897V177.891V177.884V177.878V177.872L387.257 177.841L387.25 177.804V177.797V177.791V177.785L387.237 177.747V177.741V177.735V177.729V177.722V177.716V177.71V177.704V177.698L387.231 177.673L387.225 177.66L387.219 177.654V177.647V177.641L376.352 143.683L382.022 114.515L391.729 131.516C391.935 131.884 392.347 132.115 392.79 132.071C393.388 132.015 393.832 131.479 393.775 130.88L388.89 79.0476C388.884 78.898 388.847 78.7484 388.784 78.6174L388.753 78.5551L370.157 39.7074C370.057 39.4579 369.864 39.2396 369.602 39.1211L369.484 39.0775H369.471L369.446 39.0713L314.112 21.0352C313.963 20.9728 313.788 20.9478 313.62 20.9665L248.985 21.3345L174.02 2.04484C173.739 1.96376 173.445 1.99494 173.202 2.11968L121.419 28.9618L99.7653 26.1429C99.1729 26.068 98.6177 26.4859 98.5429 27.0846C98.4991 27.4027 98.6051 27.7145 98.7986 27.939L108.755 40.5618L103.159 60.6871L96.1034 79.3534L84.9931 101.038L72.7035 88.2713C72.4603 87.7166 71.8117 87.473 71.2624 87.7166C70.8138 87.9099 70.5701 88.3713 70.6204 88.8327L71.1672 109.64C71.1714 109.68 71.1702 109.752 71.169 109.831C71.1666 109.973 71.1642 110.14 71.1924 110.204L66.8471 113.09L47.9316 69.1567C47.6945 68.6079 47.052 68.3518 46.4967 68.5887C46.0414 68.782 45.7918 69.244 45.8417 69.7114L51.9178 123.763C51.9303 123.876 51.9615 123.982 52.0052 124.082L52.0114 124.094L52.0176 124.107V124.113L52.0676 124.2V124.206L52.0987 124.25L52.1049 124.257L52.1112 124.269L52.1175 124.281L52.1237 124.294V124.3L52.1361 124.312L52.1424 124.319L52.1486 124.331L52.1611 124.344L52.1736 124.356L52.1798 124.363L52.1861 124.368L52.1986 124.381L52.211 124.394L52.2172 124.4L52.2235 124.406L52.236 124.419L52.2422 124.425L52.2609 124.443L52.2734 124.456L52.2797 124.462L52.2859 124.468L52.2983 124.481L52.3109 124.494L52.3171 124.5L52.3233 124.506L52.3358 124.518H52.342L52.3608 124.537L52.3794 124.549L52.3857 124.556L52.3982 124.562L52.4106 124.568L52.4169 124.574L52.4481 124.599L52.4605 124.605L52.4917 124.624L52.5042 124.631L77.2015 139.629L90.2643 157.859C90.3829 158.028 90.5393 158.152 90.7201 158.227L105.598 166.16C106.085 166.415 106.684 166.272 106.996 165.842L116.016 153.575L148.711 134.135L167.956 177.941L158.642 191.948H81.7307C81.1251 191.948 80.6328 192.441 80.6328 193.046ZM83.267 102.184L73.2779 108.819L72.3417 90.5592L83.267 102.184ZM195.442 191.948H161.275L169.584 179.45L195.442 191.948ZM212.154 143.159L169.634 176.319L151.019 133.942L212.154 143.159ZM108.605 130.761L145.66 133.406L114.875 151.71L93.371 155.695L108.605 130.761ZM94.4252 157.722L112.747 154.323L105.792 163.783L94.4252 157.722ZM105.586 131.503L91.0879 155.234L79.753 139.411L105.586 131.503ZM83.2532 104.599L76.7337 136.785L55.6795 124L83.2532 104.599ZM85.2866 102.918L85.2991 103.065L78.9235 137.341L106.06 129.033L85.2991 103.065V103.058V103.052V103.046V103.04V103.034V103.027V103.021V103.014V103.008V103.002V102.996V102.99V102.983V102.977V102.971V102.965V102.959V102.952V102.946V102.94V102.934V102.927V102.921V102.915V102.909V102.903V102.896V102.89L85.2932 102.871V102.865V102.859V102.852V102.846L85.2866 102.828V102.821L85.2806 102.803V102.797L85.2752 102.78L85.2746 102.771V102.777L85.2752 102.78L85.2866 102.918ZM108.549 128.559L86.5401 102.821L97.4013 81.6233L146.397 131.26L108.549 128.559ZM173.783 71.2207L98.7675 78.53L105.224 61.4418L105.255 61.3482L110.782 41.4723L158.262 43.8422L173.783 71.2207ZM119.092 30.8764L110.108 38.7532L102.154 28.6687L119.092 30.8764ZM112.716 39.3706L122.248 31.0136L171.699 5.37516L158.174 41.6407L112.716 39.3706ZM160.121 42.676L174.394 4.40226L246.253 22.8937L175.935 70.566L160.121 42.676ZM287.5 53.9455L251.811 23.5111L312.989 23.1618L323.732 54.4881L311.941 110.019L287.868 54.4132L287.856 54.382V54.3758L287.85 54.3696V54.3633L287.837 54.3383V54.3321L287.83 54.3259L287.824 54.3197L287.818 54.3134L287.812 54.3071L287.806 54.3009V54.2947L287.799 54.2885L287.793 54.2822L287.787 54.276L287.781 54.2697L287.775 54.2635L287.768 54.2573L287.762 54.2511L287.756 54.2448V54.2386L287.75 54.2323L287.743 54.2261L287.737 54.2198L287.731 54.2136L287.724 54.2074L287.718 54.2012L287.712 54.1949L287.706 54.1887V54.1824L287.7 54.1762L287.693 54.17V54.1637L287.687 54.1575L287.681 54.1513V54.145V54.1388L287.675 54.1325L287.668 54.1263V54.1201L287.662 54.1138L287.656 54.1076L287.65 54.1013L287.644 54.0951V54.0889L287.637 54.0827L287.631 54.0764V54.0702L287.625 54.0639L287.618 54.0577L287.612 54.0515L287.606 54.0452L287.6 54.039L287.593 54.0328L287.587 54.0265L287.581 54.0203L287.575 54.014L287.569 54.0078L287.562 54.0016L287.556 53.9954L287.55 53.9891L287.544 53.9829L287.538 53.9766L287.531 53.9704H287.525L287.519 53.9642L287.512 53.9579L287.5 53.9455ZM325.871 54.0577L315.485 23.7855L367.656 40.7864L349.839 79.3097L314.025 110.611L325.909 54.6377C325.946 54.4381 325.934 54.2386 325.871 54.0577ZM352.459 78.8478L369.178 42.7009L386.096 78.05L352.459 78.8478ZM391.142 126.053L382.684 111.241L387.443 86.7687L391.142 126.053ZM351.156 81.0679L386.483 80.2266L374.299 142.922L356.832 148.648L320.538 136.255L313.526 113.96L351.156 81.0679ZM358.897 150.269L374.543 145.143L383.863 174.261L358.897 150.269ZM364.617 177.978L385.005 179.076L383.707 191.106L364.617 177.978ZM206.908 177.685L199.74 191.592L171.262 177.828L213.208 145.112L206.908 177.685ZM225.928 175.877L216.059 142.729L235.934 120.471L264.443 133.337L225.928 175.877ZM217.5 191.948L225.816 179.45L251.667 191.948H217.5ZM262.865 177.753L255.959 191.586L227.226 177.698L265.011 135.956L262.865 177.753ZM275.772 157.51L267.363 132.782L268.823 84.4982L286.614 57.0949L311.012 113.436L275.772 157.51ZM292.241 175.496L276.833 159.68L311.842 115.887L318.536 137.172L314.886 155.358L292.241 175.496ZM274.892 188.823L292.166 178.302L313.307 191.954H274.512L274.892 188.823ZM317.325 179.394L316.121 191.156L293.988 176.868L315.023 158.165L317.325 179.394ZM330.351 157.491L321.736 138.975L353.408 149.789L330.351 157.491ZM361.112 175.596L332.422 159.106L356.539 151.043L383.332 176.793L361.112 175.596ZM342.503 188.83L360.756 177.972L381.08 191.948H342.128L342.503 188.83ZM340.394 188.037L339.92 191.948V191.967H318.249L319.521 179.519C319.527 179.444 319.527 179.369 319.521 179.294L316.995 156.001L320.083 140.615L328.779 159.312V159.318L328.797 159.35L328.804 159.356L328.81 159.368L328.828 159.399V159.406L328.835 159.412L328.86 159.45L328.903 159.512V159.518C328.934 159.555 328.966 159.593 329.003 159.63L329.009 159.636L329.06 159.68L329.097 159.711L329.103 159.718L329.122 159.73L329.134 159.736L329.147 159.742L329.153 159.749L329.166 159.755H329.172L329.178 159.761L329.228 159.792L329.24 159.798L329.246 159.805L329.297 159.829L358.635 176.693L340.924 187.227C340.619 187.401 340.432 187.707 340.394 188.037ZM272.784 188.037L272.31 191.948H258.236L264.93 178.539C265.005 178.383 265.042 178.209 265.042 178.041L267.064 138.712L274.337 160.11C274.4 160.285 274.499 160.441 274.63 160.56L290.444 176.793L273.301 187.233C273.002 187.414 272.821 187.713 272.784 188.037ZM224.238 177.872L214.874 191.948V191.954H202.023L208.929 178.552C208.973 178.458 209.01 178.358 209.029 178.259L215.061 147.057L224.238 177.872ZM175.691 74.6006L212.797 141.039L150.801 131.69L175.691 74.6006ZM99.5161 80.6502L173.82 73.4098L148.867 130.643L99.5161 80.6502ZM266.645 84.1553L265.217 131.279L236.708 118.413L233.851 72.3248L249.403 24.3343L285.366 54.9994L266.82 83.5628C266.702 83.7436 266.645 83.9494 266.645 84.1553ZM234.537 118.75L215.042 140.584L177.008 72.487L246.845 25.1263L231.711 71.8131C231.661 71.9502 231.642 72.0938 231.649 72.2434L234.537 118.75ZM65.168 114.281L53.9515 122.236L48.8361 76.7341L65.168 114.281Z" fill="white"/>
<path d="M95.8406 372.454L6 370.947L95.8406 369.441V372.454Z" fill="white"/>
<path d="M367.159 369.441L457 370.937L367.159 372.433V369.441Z" fill="white"/>
<path d="M131.949 364.047H133.89L138.375 372.514L142.126 364.047H143.851L137.361 378.417H135.636L137.469 374.41L131.949 364.047ZM153.303 378.417V372.256C151.966 372.356 150.974 372.406 150.328 372.406C148.617 372.406 147.431 372.148 146.77 371.631C145.893 370.956 145.455 369.843 145.455 368.292V364.047H147.05V368.076C147.05 369.24 147.338 370.029 147.913 370.446C148.315 370.748 149.149 370.898 150.414 370.898C151.262 370.898 152.225 370.848 153.303 370.748V364.047H154.899V378.417H153.303ZM168.608 378.417V367.451L158.604 379.064V364.047H160.199V375.056L170.204 363.444V378.417H168.608ZM184.908 365.232V367.214C184.334 366.64 183.708 366.195 183.033 365.879C182.213 365.505 181.387 365.319 180.553 365.319C178.9 365.319 177.52 365.9 176.413 367.064C175.321 368.213 174.774 369.627 174.774 371.308C174.774 373.117 175.371 374.546 176.564 375.595C177.772 376.643 179.108 377.168 180.575 377.168C181.495 377.168 182.386 376.945 183.248 376.5C183.852 376.198 184.405 375.796 184.908 375.293V377.275C183.6 378.209 182.156 378.676 180.575 378.676C178.447 378.676 176.672 377.965 175.249 376.543C173.84 375.121 173.136 373.369 173.136 371.286C173.136 369.146 173.847 367.365 175.27 365.943C176.708 364.521 178.505 363.811 180.661 363.811C182.242 363.811 183.658 364.284 184.908 365.232ZM187.851 378.417V364.047H189.447V370.015H191.387C194.693 370.015 196.346 371.365 196.346 374.065C196.346 375.415 195.922 376.478 195.074 377.254C194.241 378.029 193.112 378.417 191.689 378.417H187.851ZM189.447 371.523V376.909H191.301C192.523 376.909 193.407 376.643 193.953 376.112C194.456 375.638 194.708 374.956 194.708 374.065C194.708 373.031 194.32 372.306 193.543 371.889C193.098 371.645 192.293 371.523 191.128 371.523H189.447ZM205.744 364.047V369.886H213.118V364.047H214.714V378.417H213.118V371.394H205.744V378.417H204.149V364.047H205.744ZM228.042 378.417L226.36 374.367H220.236L218.511 378.417H216.743L223.363 363.358L229.81 378.417H228.042ZM220.862 372.859H225.734L223.32 367.107L220.862 372.859ZM236.871 364.047H247.436V378.417H245.84V365.556H238.466V378.417H236.871V364.047ZM251.147 364.047H253.756C255.394 364.047 256.602 364.385 257.378 365.06C258.255 365.807 258.693 366.834 258.693 368.141C258.693 369.261 258.312 370.216 257.551 371.006C256.803 371.782 255.668 372.169 254.144 372.169H252.742V378.417H251.147V364.047ZM252.742 365.556V370.661H254.058C255.006 370.661 255.747 370.432 256.279 369.972C256.825 369.512 257.098 368.873 257.098 368.055C257.098 366.389 256.041 365.556 253.928 365.556H252.742ZM269.565 378.417L267.883 374.367H261.759L260.034 378.417H258.266L264.886 363.358L271.333 378.417H269.565ZM262.385 372.859H267.258L264.843 367.107L262.385 372.859ZM274.957 364.047V370.209L281.081 364.047H283.237L276.509 370.748L283.452 378.417H281.253L275.367 371.825L274.957 372.234V378.417H273.361V364.047H274.957ZM292.435 365.556H288.942V378.417H287.346V365.556H283.853V364.047H292.435V365.556ZM304.591 378.417V367.451L294.586 379.064V364.047H296.182V375.056L306.186 363.444V378.417H304.591ZM311.49 364.047V370.209L317.613 364.047H319.77L313.042 370.748L319.985 378.417H317.786L311.899 371.825L311.49 372.234V378.417H309.894V364.047H311.49ZM329.609 364.047V365.556H323.745V369.821H329.437V371.329H323.745V376.909H329.609V378.417H322.149V364.047H329.609Z" fill="white"/>
<path d="M22.5139 305.805H6.62061V225.369H22.5139C34.7951 225.369 44.6681 229.107 52.1332 236.584C56.0664 240.523 58.9561 245.106 60.8022 250.332C62.7287 255.557 63.6919 260.663 63.6919 265.647C63.6919 270.551 62.7688 275.616 60.9226 280.842C59.0765 285.987 56.1466 290.57 52.1332 294.589C44.6681 302.066 34.7951 305.805 22.5139 305.805ZM11.9184 230.193V300.981H22.3935C32.989 300.981 41.5778 297.725 48.1599 291.213C54.8222 284.62 58.1534 276.099 58.1534 265.647C58.1534 255.276 54.8222 246.794 48.1599 240.201C41.4975 233.529 32.9087 230.193 22.3935 230.193H11.9184ZM121.486 281.807H79.4656C79.4656 287.917 81.3522 292.901 85.1243 296.76C88.9773 300.619 93.5927 302.548 98.9706 302.548C102.824 302.548 106.235 301.544 109.205 299.534C112.175 297.444 114.463 294.71 116.068 291.333L120.162 293.745C118.316 297.283 115.626 300.418 112.095 303.152C108.563 305.805 104.068 307.131 98.6094 307.131C91.1448 307.131 85.2447 304.72 80.9102 299.896C76.5757 294.991 74.4087 288.841 74.4087 281.445C74.4087 273.325 76.7362 266.974 81.3917 262.391C86.1275 257.809 91.7468 255.517 98.2482 255.517C104.911 255.517 110.449 257.969 114.864 262.873C119.279 267.777 121.486 274.089 121.486 281.807ZM79.8267 277.224H116.43C115.788 272.239 113.78 268.14 110.409 264.924C107.119 261.708 103.064 260.1 98.2482 260.1C93.3519 260.1 89.2181 261.748 85.8466 265.044C82.4758 268.26 80.4688 272.32 79.8267 277.224ZM181.705 281.807H139.684C139.684 287.917 141.57 292.901 145.343 296.76C149.196 300.619 153.811 302.548 159.19 302.548C163.042 302.548 166.453 301.544 169.424 299.534C172.393 297.444 174.681 294.71 176.287 291.333L180.381 293.745C178.533 297.283 175.845 300.418 172.313 303.152C168.781 305.805 164.286 307.131 158.828 307.131C151.363 307.131 145.463 304.72 141.129 299.896C136.794 294.991 134.627 288.841 134.627 281.445C134.627 273.325 136.955 266.974 141.61 262.391C146.346 257.809 151.965 255.517 158.467 255.517C165.129 255.517 170.668 257.969 175.082 262.873C179.497 267.777 181.705 274.089 181.705 281.807ZM140.045 277.224H176.648C176.005 272.239 173.999 268.14 170.627 264.924C167.336 261.708 163.283 260.1 158.467 260.1C153.57 260.1 149.436 261.748 146.065 265.044C142.694 268.26 140.687 272.32 140.045 277.224ZM197.417 297.002V333.542H192.601V256.602H197.417V265.165C202.153 258.733 208.575 255.517 216.682 255.517C223.907 255.517 229.686 257.929 234.02 262.753C238.355 267.496 240.522 273.526 240.522 280.842C240.522 288.319 238.315 294.589 233.9 299.654C229.565 304.639 223.746 307.131 216.441 307.131C212.749 307.131 209.418 306.408 206.448 304.961C203.478 303.433 201.431 302.066 200.307 300.86C199.184 299.574 198.221 298.288 197.417 297.002ZM202.234 296.398C205.605 300.499 210.301 302.548 216.321 302.548C222.341 302.548 227.037 300.499 230.408 296.398C233.779 292.298 235.465 287.112 235.465 280.842C235.465 274.33 233.619 269.265 229.926 265.647C226.234 261.949 221.739 260.1 216.441 260.1C211.224 260.1 206.689 261.909 202.836 265.526C199.063 269.144 197.177 274.169 197.177 280.601C197.177 286.952 198.863 292.218 202.234 296.398ZM295.292 235.74L291.439 238.996C288.068 232.403 282.811 229.107 275.666 229.107C271.091 229.107 267.439 230.554 264.71 233.449C262.061 236.343 260.736 239.88 260.736 244.061C260.736 246.151 261.018 247.96 261.579 249.487C262.222 251.015 263.305 252.422 264.83 253.708C266.436 254.995 267.84 256 269.044 256.723C270.248 257.366 272.175 258.331 274.823 259.617C283.492 263.798 288.831 266.612 290.837 268.059C296.537 271.998 299.386 277.184 299.386 283.616C299.386 290.288 296.938 295.876 292.041 300.378C287.145 304.88 281.245 307.131 274.342 307.131C266.717 307.131 260.496 304.317 255.68 298.69C253.352 295.956 251.626 293.022 250.502 289.886L255.078 287.716C256.041 290.61 257.485 293.182 259.412 295.434C263.024 300.017 268.041 302.307 274.462 302.307C279.921 302.307 284.496 300.538 288.188 297.002C291.961 293.464 293.847 289.042 293.847 283.736C293.847 278.51 291.239 274.29 286.021 271.074C283.694 269.707 279.158 267.375 272.416 264.079C268.001 261.909 264.75 260.14 262.663 258.773C260.656 257.407 259.011 255.638 257.726 253.467C256.041 250.653 255.198 247.598 255.198 244.302C255.198 239.076 256.964 234.453 260.496 230.434C264.028 226.333 269.125 224.284 275.786 224.284C279.88 224.284 283.654 225.288 287.105 227.298C290.556 229.228 293.286 232.042 295.292 235.74ZM314.517 224.284H319.333V277.706L339.561 256.602H345.822L325.113 277.947L352.565 305.805H346.063L321.862 281.445L319.333 283.977V305.805H314.517V224.284ZM361.079 256.602H365.895V305.805H361.079V256.602ZM366.498 243.458C365.695 244.262 364.692 244.663 363.488 244.663C362.284 244.663 361.241 244.262 360.357 243.458C359.555 242.574 359.153 241.488 359.153 240.201C359.153 238.915 359.555 237.871 360.357 237.066C361.241 236.182 362.284 235.74 363.488 235.74C364.692 235.74 365.695 236.182 366.498 237.066C367.381 237.871 367.822 238.915 367.822 240.201C367.822 241.488 367.381 242.574 366.498 243.458ZM383.185 224.284H388.001V305.805H383.185V224.284ZM405.291 224.284H410.107V305.805H405.291V224.284ZM452.44 263.477L448.346 265.647C446.741 261.949 443.891 260.1 439.797 260.1C437.229 260.1 435.182 260.904 433.657 262.512C432.212 264.119 431.489 265.928 431.489 267.938C431.489 269.466 431.931 270.792 432.814 271.918C433.697 272.963 434.62 273.767 435.583 274.33C436.547 274.812 438.072 275.455 440.158 276.259C440.48 276.34 441.242 276.661 442.446 277.224C443.731 277.706 444.574 278.028 444.975 278.188C445.376 278.349 446.059 278.671 447.022 279.154C448.066 279.555 448.827 279.957 449.31 280.36C449.791 280.681 450.353 281.123 450.995 281.686C451.717 282.249 452.319 282.852 452.801 283.495C454.487 285.585 455.329 288.238 455.329 291.454C455.329 296.68 453.724 300.619 450.513 303.272C447.383 305.845 443.65 307.131 439.316 307.131C435.142 307.131 431.529 305.966 428.48 303.634C425.429 301.303 423.383 298.127 422.339 294.107L427.034 292.66C427.838 295.796 429.362 298.248 431.61 300.016C433.938 301.705 436.507 302.548 439.316 302.548C442.446 302.548 445.055 301.544 447.142 299.534C449.229 297.444 450.273 294.83 450.273 291.695C450.273 289.123 449.469 287.152 447.864 285.786C446.259 284.339 443.409 282.771 439.316 281.083C433.697 278.752 430.125 276.581 428.6 274.571C427.155 272.642 426.432 270.511 426.432 268.18C426.432 264.481 427.676 261.466 430.165 259.135C432.654 256.723 435.784 255.517 439.556 255.517C445.898 255.517 450.192 258.17 452.44 263.477Z" fill="white"/>
</g>
<defs>
<filter id="filter0_d_898_4565" x="0" y="0" width="463" height="389.063" filterUnits="userSpaceOnUse" color-interpolation-filters="sRGB">
<feFlood flood-opacity="0" result="BackgroundImageFix"/>
<feColorMatrix in="SourceAlpha" type="matrix" values="0 0 0 0 0 0 0 0 0 0 0 0 0 0 0 0 0 0 127 0" result="hardAlpha"/>
<feOffset dy="4"/>
<feGaussianBlur stdDeviation="3"/>
<feComposite in2="hardAlpha" operator="out"/>
<feColorMatrix type="matrix" values="0 0 0 0 0 0 0 0 0 0 0 0 0 0 0 0 0 0 0.25 0"/>
<feBlend mode="normal" in2="BackgroundImageFix" result="effect1_dropShadow_898_4565"/>
<feBlend mode="normal" in="SourceGraphic" in2="effect1_dropShadow_898_4565" result="shape"/>
</filter>
</defs>
</svg>
