<svg width="19" height="19" viewBox="0 0 19 19" fill="none" xmlns="http://www.w3.org/2000/svg">
<path d="M1.625 4.24805C1.14375 4.24805 0.75 4.6418 0.75 5.12305V16.498C0.75 17.4606 1.5375 18.248 2.5 18.248H13.875C14.3562 18.248 14.75 17.8543 14.75 17.373C14.75 16.8918 14.3562 16.498 13.875 16.498H3.375C2.89375 16.498 2.5 16.1043 2.5 15.623V5.12305C2.5 4.6418 2.10625 4.24805 1.625 4.24805ZM16.5 0.748047H6C5.0375 0.748047 4.25 1.53555 4.25 2.49805V12.998C4.25 13.9605 5.0375 14.748 6 14.748H16.5C17.4625 14.748 18.25 13.9605 18.25 12.998V2.49805C18.25 1.53555 17.4625 0.748047 16.5 0.748047ZM14.75 8.62305H7.75C7.26875 8.62305 6.875 8.2293 6.875 7.74805C6.875 7.2668 7.26875 6.87305 7.75 6.87305H14.75C15.2312 6.87305 15.625 7.2668 15.625 7.74805C15.625 8.2293 15.2312 8.62305 14.75 8.62305ZM11.25 12.123H7.75C7.26875 12.123 6.875 11.7293 6.875 11.248C6.875 10.7668 7.26875 10.373 7.75 10.373H11.25C11.7312 10.373 12.125 10.7668 12.125 11.248C12.125 11.7293 11.7312 12.123 11.25 12.123ZM14.75 5.12305H7.75C7.26875 5.12305 6.875 4.7293 6.875 4.24805C6.875 3.7668 7.26875 3.37305 7.75 3.37305H14.75C15.2312 3.37305 15.625 3.7668 15.625 4.24805C15.625 4.7293 15.2312 5.12305 14.75 5.12305Z" fill="#46445C"/>
</svg>
