<svg width="78" height="78" viewBox="0 0 78 78" fill="none" xmlns="http://www.w3.org/2000/svg">
<rect x="30" y="-0.000488281" width="48" height="48" rx="6" fill="#F3DDD3"/>
<path d="M9 23.9995C7.35 23.9995 6 25.3495 6 26.9995V65.9995C6 69.2995 8.7 71.9995 12 71.9995H51C52.65 71.9995 54 70.6495 54 68.9995C54 67.3495 52.65 65.9995 51 65.9995H15C13.35 65.9995 12 64.6495 12 62.9995V26.9995C12 25.3495 10.65 23.9995 9 23.9995ZM60 11.9995H24C20.7 11.9995 18 14.6995 18 17.9995V53.9995C18 57.2995 20.7 59.9995 24 59.9995H60C63.3 59.9995 66 57.2995 66 53.9995V17.9995C66 14.6995 63.3 11.9995 60 11.9995ZM54 38.9995H30C28.35 38.9995 27 37.6495 27 35.9995C27 34.3495 28.35 32.9995 30 32.9995H54C55.65 32.9995 57 34.3495 57 35.9995C57 37.6495 55.65 38.9995 54 38.9995ZM42 50.9995H30C28.35 50.9995 27 49.6495 27 47.9995C27 46.3495 28.35 44.9995 30 44.9995H42C43.65 44.9995 45 46.3495 45 47.9995C45 49.6495 43.65 50.9995 42 50.9995ZM54 26.9995H30C28.35 26.9995 27 25.6495 27 23.9995C27 22.3495 28.35 20.9995 30 20.9995H54C55.65 20.9995 57 22.3495 57 23.9995C57 25.6495 55.65 26.9995 54 26.9995Z" fill="#7469EF"/>
</svg>
