<svg width="105" height="108" viewBox="0 0 105 108" fill="none" xmlns="http://www.w3.org/2000/svg">
<path d="M81.2533 29.973C92.692 49.7854 96.9696 75.0931 75.8652 87.2778C54.7606 99.4625 18.8916 69.6421 7.45292 49.8297C-3.98578 30.0173 15.1384 30.8348 36.2429 18.6501C57.3475 6.46545 69.8146 10.1606 81.2533 29.973Z" fill="#F3DDD3"/>
<mask id="mask0_3265_11023" style="mask-type:alpha" maskUnits="userSpaceOnUse" x="11" y="10" width="81" height="82">
<rect x="11" y="10.9995" width="81" height="81" fill="white"/>
</mask>
<g mask="url(#mask0_3265_11023)">
<path fill-rule="evenodd" clip-rule="evenodd" d="M78.5 81.8745C82.2226 81.8745 85.25 78.8471 85.25 75.1245V27.8745C85.25 24.1519 82.2226 21.1245 78.5 21.1245H24.5C20.7774 21.1245 17.75 24.1519 17.75 27.8745V75.1245C17.75 78.8471 20.7774 81.8745 24.5 81.8745H78.5ZM24.5 34.6245H78.5L78.5034 75.1245H24.5V34.6245ZM71.75 61.6245V68.3745H51.5V61.6245H71.75ZM38.9889 55.8634L31.25 63.6023L36.0222 68.3745L48.5334 55.8634L36.0222 43.3523L31.25 48.1245L38.9889 55.8634Z" fill="#7469EF"/>
</g>
</svg>
