<svg width="123" height="103" viewBox="0 0 123 103" fill="none" xmlns="http://www.w3.org/2000/svg">
<path fill-rule="evenodd" clip-rule="evenodd" d="M20.3542 52.1868C20.3542 52.3521 20.4885 52.4867 20.6536 52.4867V52.4713H41.7894H52.9775H57.1271H68.3134H72.8952H84.8335H91.3243H103.252H111.55C111.715 52.4713 111.849 52.3368 111.849 52.1715C111.849 52.0062 111.715 51.8717 111.55 51.8717H103.577L103.982 48.1066V48.105V48.1033V48.1015V48.0999V48.0981V48.0965V48.0947V48.093V48.0914C103.982 48.0852 103.982 48.0786 103.982 48.0719C103.982 48.0659 103.981 48.0597 103.981 48.0538V48.0522V48.0505V48.0487V48.0471V48.0453V48.0437V48.0419L103.979 48.0334L103.977 48.0232V48.0214V48.0198V48.0182L103.974 48.0079V48.0062V48.0044V48.0028V48.001V47.9994V47.9976V47.9959V47.9943L103.972 47.9874L103.97 47.984L103.969 47.9824V47.9806V47.9789L101.005 38.7027L102.551 30.735L105.199 35.379C105.255 35.4796 105.367 35.5427 105.488 35.5307C105.651 35.5154 105.772 35.3689 105.757 35.2053L104.424 21.0466C104.423 21.0058 104.413 20.9649 104.396 20.9291L104.387 20.9121L99.3153 10.3003C99.2882 10.2322 99.2355 10.1725 99.1641 10.1402L99.1317 10.1282H99.1283L99.1214 10.1265L84.0305 5.19972C83.9897 5.18269 83.942 5.17587 83.8961 5.18097L66.2685 5.28149L45.8234 0.0122487C45.7468 -0.00989814 45.6667 -0.00138096 45.6004 0.0326911L31.4776 7.365L25.5722 6.59497C25.4106 6.57452 25.2592 6.68867 25.2388 6.85221C25.2268 6.93909 25.2558 7.02428 25.3085 7.08561L28.0238 10.5337L26.4977 16.0312L24.5735 21.1302L21.5434 27.0536L18.1917 23.5662C18.1253 23.4147 17.9484 23.3482 17.7987 23.4147C17.6763 23.4675 17.6098 23.5935 17.6235 23.7196L17.7727 29.4035C17.7738 29.4144 17.7735 29.434 17.7732 29.4556C17.7725 29.4944 17.7719 29.54 17.7795 29.5575L16.5945 30.3459L11.4357 18.3448C11.371 18.1949 11.1958 18.1249 11.0444 18.1897C10.9202 18.2425 10.8521 18.3687 10.8657 18.4963L12.5228 33.2614C12.5262 33.2921 12.5348 33.3211 12.5467 33.3484L12.5484 33.3518L12.5501 33.3552V33.3569L12.5637 33.3807V33.3824L12.5722 33.3943L12.5739 33.3961L12.5756 33.3995L12.5773 33.4028L12.579 33.4062V33.408L12.5824 33.4113L12.5841 33.4131L12.5858 33.4165L12.5892 33.42L12.5926 33.4232L12.5943 33.425L12.596 33.4267L12.5994 33.4301L12.6028 33.4335L12.6045 33.4352L12.6062 33.437L12.6096 33.4404L12.6113 33.442L12.6164 33.4471L12.6198 33.4506L12.6215 33.4523L12.6232 33.454L12.6266 33.4574L12.63 33.4608L12.6317 33.4625L12.6334 33.4643L12.6368 33.4675H12.6385L12.6436 33.4728L12.6487 33.476L12.6504 33.4778L12.6539 33.4795L12.6572 33.4813L12.6589 33.4829L12.6675 33.4898L12.6709 33.4914L12.6794 33.4965L12.6828 33.4983L19.4184 37.5954L22.981 42.575C23.0133 42.6211 23.056 42.6551 23.1053 42.6756L27.163 44.8426C27.2956 44.9124 27.459 44.8733 27.5441 44.7558L30.0042 41.4048L38.921 36.0945L44.1697 48.0607L41.6295 51.8869H20.6536C20.4885 51.8869 20.3542 52.0216 20.3542 52.1868ZM21.0726 27.3668L18.3483 29.1792L18.093 24.1912L21.0726 27.3668ZM51.6658 51.8869H42.3475L44.6136 48.4729L51.6658 51.8869ZM56.2237 38.5597L44.6274 47.6177L39.5504 36.0417L56.2237 38.5597ZM27.983 35.1729L38.0889 35.8953L29.6929 40.8954L23.8283 41.9839L27.983 35.1729ZM24.1158 42.5376L29.1127 41.6091L27.2158 44.1934L24.1158 42.5376ZM27.1596 35.3756L23.2056 41.8579L20.1143 37.5359L27.1596 35.3756ZM21.0689 28.0262L19.2908 36.8186L13.5488 33.3261L21.0689 28.0262ZM21.6234 27.5672L21.6268 27.6073L19.888 36.9703L27.2888 34.7009L21.6268 27.6073V27.6055V27.6038V27.602V27.6004V27.5988V27.597V27.5953V27.5935V27.5919V27.5903V27.5885V27.5868V27.585V27.5834V27.5816V27.58V27.5783V27.5765V27.5749V27.5731V27.5715V27.5697V27.568V27.5664V27.5646V27.563V27.5612V27.5595L21.6252 27.5545V27.5527V27.551V27.5492V27.5476L21.6234 27.5425V27.5407L21.6218 27.5357V27.534L21.6203 27.5294L21.6201 27.5272V27.5288L21.6203 27.5294L21.6234 27.5672ZM27.9676 34.5715L21.9653 27.5407L24.9274 21.7502L38.2898 35.3092L27.9676 34.5715ZM45.7587 18.9086L25.3 20.9052L27.0609 16.2374L27.0694 16.2118L28.5768 10.7824L41.5257 11.4298L45.7587 18.9086ZM30.843 7.888L28.393 10.0397L26.2237 7.28493L30.843 7.888ZM29.1042 10.2083L31.7039 7.92548L45.1904 0.921972L41.5019 10.8284L29.1042 10.2083ZM42.0328 11.1112L45.9255 0.656211L65.5233 5.7074L46.3456 18.7298L42.0328 11.1112ZM76.7725 14.1896L67.0392 5.87605L83.7242 5.78065L86.654 14.3379L83.4384 29.5068L76.873 14.3174L76.8695 14.3089V14.3072L76.8679 14.3055V14.3038L76.8645 14.297V14.2953L76.8627 14.2936L76.8611 14.2919L76.8593 14.2902L76.8576 14.2884L76.856 14.2867V14.285L76.8542 14.2833L76.8526 14.2816L76.8508 14.2799L76.8491 14.2782L76.8475 14.2765L76.8457 14.2748L76.8441 14.2731L76.8423 14.2714V14.2697L76.8406 14.268L76.8388 14.2663L76.8372 14.2646L76.8356 14.2629L76.8338 14.2612L76.8321 14.2595L76.8303 14.2578L76.8287 14.2561V14.2544L76.8271 14.2527L76.8253 14.251V14.2493L76.8236 14.2476L76.8219 14.2459V14.2442V14.2425L76.8202 14.2407L76.8184 14.239V14.2373L76.8168 14.2356L76.8152 14.2339L76.8134 14.2322L76.8117 14.2305V14.2288L76.8099 14.2271L76.8083 14.2254V14.2237L76.8067 14.222L76.8049 14.2203L76.8032 14.2186L76.8014 14.2169L76.7998 14.2152L76.798 14.2135L76.7964 14.2118L76.7947 14.2101L76.7929 14.2084L76.7913 14.2067L76.7895 14.205L76.7879 14.2033L76.7862 14.2016L76.7844 14.1999L76.7828 14.1981L76.781 14.1964H76.7794L76.7777 14.1947L76.7759 14.193L76.7725 14.1896ZM87.2375 14.2203L84.4049 5.95101L98.6332 10.595L93.7741 21.1182L84.0067 29.6686L87.2478 14.3787C87.2579 14.3242 87.2546 14.2697 87.2375 14.2203ZM94.4888 20.992L99.0483 11.118L103.662 20.7741L94.4888 20.992ZM105.039 33.8867L102.732 29.8406L104.03 23.1558L105.039 33.8867ZM94.1332 21.5985L103.768 21.3687L100.445 38.495L95.6814 40.0589L85.7829 36.6737L83.8706 30.5834L94.1332 21.5985ZM96.2444 40.5017L100.512 39.1014L103.053 47.0555L96.2444 40.5017ZM97.8045 48.071L103.365 48.3708L103.011 51.657L97.8045 48.071ZM54.7929 47.9909L52.838 51.7898L45.0713 48.0299L56.5112 39.0929L54.7929 47.9909ZM59.9803 47.4968L57.2887 38.4422L62.7092 32.362L70.4843 35.8765L59.9803 47.4968ZM57.6817 51.8869L59.9496 48.4729L67 51.8869H57.6817ZM70.0539 48.0095L68.1705 51.7881L60.3341 47.9943L70.6392 36.592L70.0539 48.0095ZM73.574 42.4797L71.2806 35.7249L71.6787 22.5355L76.5309 15.05L83.185 30.4404L73.574 42.4797ZM78.0656 47.3929L73.8633 43.0725L83.4113 31.1098L85.2368 36.9242L84.2415 41.8919L78.0656 47.3929ZM73.3341 51.0334L78.0452 48.1594L83.811 51.8887H73.2303L73.3341 51.0334ZM84.9067 48.4576L84.5784 51.6706L78.5419 47.7677L84.279 42.6586L84.9067 48.4576ZM88.4592 42.4745L86.1096 37.4165L94.7473 40.3706L88.4592 42.4745ZM96.8485 47.4202L89.024 42.9157L95.6013 40.7131L102.909 47.7473L96.8485 47.4202ZM91.7733 51.0352L96.7515 48.0692L102.294 51.8869H91.6712L91.7733 51.0352ZM91.1983 50.8188L91.0689 51.8869V51.8921H85.1586L85.5055 48.4917C85.5073 48.4713 85.5073 48.4509 85.5055 48.4303L84.8165 42.0675L85.6587 37.8646L88.0304 42.972V42.9738L88.0354 42.9823L88.0372 42.9839L88.0389 42.9873L88.0439 42.9958V42.9976L88.0457 42.9993L88.0524 43.0096L88.0644 43.0266V43.0282C88.0728 43.0385 88.0815 43.0486 88.0916 43.0589L88.0933 43.0606L88.107 43.0725L88.1171 43.081L88.1189 43.0828L88.124 43.0862L88.1274 43.0879L88.1308 43.0895L88.1325 43.0913L88.1359 43.0929H88.1375L88.1393 43.0947L88.1529 43.1032L88.1563 43.1049L88.158 43.1067L88.1717 43.1134L96.173 47.72L91.3429 50.5973C91.2596 50.645 91.2084 50.7285 91.1983 50.8188ZM72.7591 50.8188L72.6297 51.8869H68.7916L70.6171 48.2241C70.6375 48.1816 70.6477 48.1339 70.6477 48.088L71.199 37.3449L73.1827 43.19C73.1998 43.2378 73.2269 43.2804 73.2627 43.3128L77.5755 47.7473L72.9002 50.5991C72.8186 50.6484 72.7692 50.7302 72.7591 50.8188ZM59.5192 48.0419L56.9654 51.8869V51.8887H53.4607L55.3441 48.2276C55.356 48.2021 55.3663 48.1748 55.3713 48.1476L57.0166 39.6244L59.5192 48.0419ZM46.2793 19.8319L56.3989 37.9805L39.4909 35.4268L46.2793 19.8319ZM25.5042 21.4844L45.7688 19.5066L38.9635 35.1405L25.5042 21.4844ZM71.0849 22.4419L70.6954 35.3143L62.9202 31.7998L62.1409 19.2102L66.3824 6.10092L76.1907 14.4775L71.1326 22.28C71.1003 22.3294 71.0849 22.3856 71.0849 22.4419ZM62.3281 31.8918L57.0113 37.8561L46.6383 19.2545L65.6849 6.31728L61.5574 19.0704C61.5437 19.1079 61.5386 19.1471 61.5404 19.188L62.3281 31.8918ZM16.1365 30.6712L13.0775 32.8441L11.6824 20.4147L16.1365 30.6712Z" fill="#7469EF"/>
<path d="M24.502 101.195L0 100.783L24.502 100.372V101.195Z" fill="#7469EF"/>
<path d="M98.498 100.372L123 100.781L98.498 101.189V100.372Z" fill="#7469EF"/>
<path d="M34.3499 98.8983H34.8791L36.1022 101.211L37.1254 98.8983H37.5959L35.8259 102.824H35.3554L35.8553 101.729L34.3499 98.8983ZM40.1737 102.824V101.14C39.8091 101.168 39.5386 101.182 39.3621 101.182C38.8956 101.182 38.5722 101.111 38.3919 100.97C38.1527 100.785 38.0332 100.481 38.0332 100.058V98.8983H38.4683V99.9988C38.4683 100.317 38.5467 100.532 38.7035 100.646C38.8133 100.729 39.0407 100.77 39.3857 100.77C39.617 100.77 39.8796 100.756 40.1737 100.729V98.8983H40.6088V102.824H40.1737ZM44.3478 102.824V99.8281L41.6193 103V98.8983H42.0544V101.906L44.783 98.7335V102.824H44.3478ZM48.7933 99.222V99.7634C48.6365 99.6064 48.466 99.4848 48.2817 99.3985C48.0582 99.2965 47.8328 99.2455 47.6054 99.2455C47.1546 99.2455 46.7783 99.4044 46.4764 99.7222C46.1784 100.036 46.0295 100.422 46.0295 100.882C46.0295 101.376 46.1922 101.766 46.5176 102.053C46.8469 102.339 47.2114 102.482 47.6113 102.482C47.8622 102.482 48.1053 102.421 48.3405 102.3C48.5052 102.217 48.6561 102.108 48.7933 101.97V102.512C48.4365 102.767 48.0426 102.894 47.6113 102.894C47.0311 102.894 46.547 102.7 46.1588 102.312C45.7746 101.923 45.5826 101.445 45.5826 100.876C45.5826 100.291 45.7766 99.8046 46.1647 99.4162C46.5568 99.0278 47.0468 98.8335 47.6348 98.8335C48.0661 98.8335 48.4522 98.963 48.7933 99.222ZM49.5958 102.824V98.8983H50.031V100.528H50.5602C51.4619 100.528 51.9127 100.897 51.9127 101.635C51.9127 102.004 51.7971 102.294 51.5658 102.506C51.3384 102.718 51.0307 102.824 50.6425 102.824H49.5958ZM50.031 100.94V102.412H50.5367C50.8699 102.412 51.111 102.339 51.26 102.194C51.3972 102.064 51.4658 101.878 51.4658 101.635C51.4658 101.352 51.36 101.154 51.1483 101.04C51.0267 100.974 50.8072 100.94 50.4897 100.94H50.031ZM54.4758 98.8983V100.493H56.4869V98.8983H56.9221V102.824H56.4869V100.905H54.4758V102.824H54.0406V98.8983H54.4758ZM60.5569 102.824L60.0982 101.717H58.4281L57.9577 102.824H57.4755L59.2808 98.71L61.0391 102.824H60.5569ZM58.5987 101.305H59.9277L59.2691 99.7339L58.5987 101.305ZM62.9648 98.8983H65.8462V102.824H65.411V99.3102H63.3999V102.824H62.9648V98.8983ZM66.8583 98.8983H67.5698C68.0168 98.8983 68.3461 98.9905 68.5578 99.1749C68.7969 99.3789 68.9165 99.6594 68.9165 100.016C68.9165 100.322 68.8126 100.583 68.6048 100.799C68.4009 101.011 68.0912 101.117 67.6757 101.117H67.2935V102.824H66.8583V98.8983ZM67.2935 99.3102V100.705H67.6522C67.9109 100.705 68.1128 100.642 68.2579 100.517C68.4068 100.391 68.4813 100.217 68.4813 99.9929C68.4813 99.5378 68.1932 99.3102 67.6169 99.3102H67.2935ZM71.8814 102.824L71.4227 101.717H69.7526L69.2822 102.824H68.8L70.6053 98.71L72.3636 102.824H71.8814ZM69.9232 101.305H71.2522L70.5936 99.7339L69.9232 101.305ZM73.352 98.8983V100.581L75.022 98.8983H75.6101L73.7754 100.729L75.6689 102.824H75.0691L73.4637 101.023L73.352 101.135V102.824H72.9168V98.8983H73.352ZM78.1186 99.3102H77.166V102.824H76.7308V99.3102H75.7782V98.8983H78.1186V99.3102ZM81.4339 102.824V99.8281L78.7053 103V98.8983H79.1405V101.906L81.869 98.7335V102.824H81.4339ZM83.3155 98.8983V100.581L84.9855 98.8983H85.5736L83.7389 100.729L85.6324 102.824H85.0326L83.4272 101.023L83.3155 101.135V102.824H82.8803V98.8983H83.3155ZM88.2572 98.8983V99.3102H86.6577V100.475H88.2102V100.887H86.6577V102.412H88.2572V102.824H86.2226V98.8983H88.2572Z" fill="#7469EF"/>
<path d="M4.50422 82.9888H0.169678V61.0166H4.50422C7.85362 61.0166 10.5463 62.0378 12.5822 64.0802C13.6549 65.1563 14.443 66.408 14.9465 67.8356C15.4719 69.2631 15.7346 70.6577 15.7346 72.0192C15.7346 73.3589 15.4828 74.7423 14.9793 76.1699C14.4758 77.5755 13.6768 78.8273 12.5822 79.9252C10.5463 81.9676 7.85362 82.9888 4.50422 82.9888ZM1.61452 62.3343V81.6712H4.47137C7.36107 81.6712 9.70346 80.7818 11.4986 79.0029C13.3156 77.2021 14.2241 74.8742 14.2241 72.0192C14.2241 69.1862 13.3156 66.8694 11.4986 65.0684C9.68157 63.2457 7.33916 62.3343 4.47137 62.3343H1.61452ZM31.4967 76.4334H20.0365C20.0365 78.1025 20.551 79.464 21.5798 80.5183C22.6306 81.5723 23.8894 82.0994 25.356 82.0994C26.4068 82.0994 27.3373 81.8249 28.1473 81.2758C28.9573 80.7049 29.5813 79.9582 30.0191 79.0357L31.1356 79.6947C30.632 80.661 29.8986 81.5174 28.9355 82.2641C27.9722 82.9888 26.7461 83.3512 25.2575 83.3512C23.2218 83.3512 21.6126 82.6924 20.4305 81.3747C19.2483 80.035 18.6574 78.355 18.6574 76.3345C18.6574 74.1166 19.2921 72.3816 20.5618 71.1298C21.8534 69.8781 23.3859 69.2521 25.159 69.2521C26.9761 69.2521 28.4866 69.9219 29.6906 71.2615C30.8948 72.6012 31.4967 74.3251 31.4967 76.4334ZM20.135 75.1816H30.1176C29.9425 73.82 29.3951 72.7001 28.4756 71.8216C27.5782 70.9431 26.4725 70.5038 25.159 70.5038C23.8237 70.5038 22.6963 70.954 21.7768 71.8544C20.8575 72.7329 20.3101 73.8419 20.135 75.1816ZM47.9199 76.4334H36.4597C36.4597 78.1025 36.9741 79.464 38.003 80.5183C39.0538 81.5723 40.3126 82.0994 41.7794 82.0994C42.8301 82.0994 43.7605 81.8249 44.5705 81.2758C45.3804 80.7049 46.0044 79.9582 46.4423 79.0357L47.5588 79.6947C47.055 80.661 46.3218 81.5174 45.3587 82.2641C44.3952 82.9888 43.1693 83.3512 41.6807 83.3512C39.645 83.3512 38.0358 82.6924 36.8537 81.3747C35.6715 80.035 35.0806 78.355 35.0806 76.3345C35.0806 74.1166 35.7153 72.3816 36.985 71.1298C38.2766 69.8781 39.8091 69.2521 41.5822 69.2521C43.3993 69.2521 44.9098 69.9219 46.1138 71.2615C47.3178 72.6012 47.9199 74.3251 47.9199 76.4334ZM36.5582 75.1816H46.5408C46.3655 73.82 45.8183 72.7001 44.8988 71.8216C44.0012 70.9431 42.8959 70.5038 41.5822 70.5038C40.2469 70.5038 39.1195 70.954 38.2 71.8544C37.2807 72.7329 36.7333 73.8419 36.5582 75.1816ZM52.2052 80.5841V90.5656H50.8917V69.5485H52.2052V71.8875C53.4968 70.1305 55.2482 69.2521 57.4592 69.2521C59.4295 69.2521 61.0056 69.9109 62.1878 71.2287C63.3699 72.5243 63.9611 74.1715 63.9611 76.1699C63.9611 78.2123 63.3591 79.9252 62.1549 81.3088C60.9728 82.6704 59.3857 83.3512 57.3936 83.3512C56.3865 83.3512 55.4781 83.1536 54.6681 82.7583C53.8581 82.341 53.2998 81.9676 52.9933 81.6382C52.6869 81.2867 52.4242 80.9354 52.2052 80.5841ZM53.5188 80.4194C54.4381 81.5395 55.7189 82.0994 57.3607 82.0994C59.0025 82.0994 60.2833 81.5395 61.2026 80.4194C62.1221 79.2994 62.5819 77.8828 62.5819 76.1699C62.5819 74.391 62.0783 73.0074 61.0713 72.0192C60.0643 71.009 58.8384 70.5038 57.3936 70.5038C55.9706 70.5038 54.7338 70.998 53.683 71.9862C52.654 72.9745 52.1395 74.347 52.1395 76.104C52.1395 77.839 52.5993 79.2774 53.5188 80.4194ZM78.8983 63.8496L77.8475 64.739C76.928 62.9382 75.4943 62.0378 73.5458 62.0378C72.298 62.0378 71.302 62.4331 70.5577 63.2238C69.8352 64.0143 69.474 64.9806 69.474 66.1226C69.474 66.6936 69.5508 67.1876 69.7038 67.605C69.8791 68.0223 70.1746 68.4067 70.5905 68.758C71.0284 69.1094 71.4115 69.3839 71.7398 69.5815C72.0681 69.7573 72.5936 70.0208 73.3159 70.3721C75.6802 71.5141 77.1361 72.2827 77.6833 72.678C79.2377 73.7541 80.0148 75.1706 80.0148 76.9276C80.0148 78.7503 79.3472 80.2767 78.0117 81.5065C76.6765 82.7362 75.0673 83.3512 73.1846 83.3512C71.105 83.3512 69.4084 82.5826 68.0949 81.0453C67.46 80.2986 66.9894 79.4971 66.6828 78.6405L67.9307 78.0476C68.1934 78.8381 68.5874 79.5409 69.1129 80.1558C70.0978 81.4077 71.4662 82.0335 73.2174 82.0335C74.7062 82.0335 75.954 81.5503 76.9609 80.5841C77.9899 79.6179 78.5043 78.41 78.5043 76.9605C78.5043 75.533 77.7929 74.3801 76.3699 73.5016C75.7351 73.1282 74.4981 72.4913 72.6593 71.5909C71.4552 70.998 70.5686 70.5148 69.9993 70.1416C69.4521 69.7682 69.0034 69.285 68.653 68.6921C68.1934 67.9234 67.9635 67.0889 67.9635 66.1885C67.9635 64.7611 68.4451 63.4983 69.4083 62.4002C70.3716 61.2801 71.7617 60.7202 73.5786 60.7202C74.6951 60.7202 75.7242 60.9947 76.6654 61.5436C77.6067 62.0708 78.3511 62.8395 78.8983 63.8496ZM84.1416 60.7202H85.455V75.3133L90.9717 69.5485H92.6792L87.0313 75.3792L94.5182 82.9888H92.7449L86.1447 76.3345L85.455 77.0263V82.9888H84.1416V60.7202ZM96.8403 69.5485H98.1538V82.9888H96.8403V69.5485ZM98.3181 65.9578C98.0992 66.1776 97.8254 66.2872 97.4971 66.2872C97.1688 66.2872 96.8842 66.1776 96.6433 65.9578C96.4246 65.7164 96.315 65.4199 96.315 65.0684C96.315 64.7171 96.4246 64.4317 96.6433 64.212C96.8842 63.9704 97.1688 63.8496 97.4971 63.8496C97.8254 63.8496 98.0992 63.9704 98.3181 64.212C98.559 64.4317 98.6793 64.7171 98.6793 65.0684C98.6793 65.4199 98.559 65.7164 98.3181 65.9578ZM102.869 60.7202H104.183V82.9888H102.869V60.7202ZM108.898 60.7202H110.211V82.9888H108.898V60.7202ZM121.757 71.4263L120.64 72.0192C120.202 71.009 119.425 70.5038 118.309 70.5038C117.608 70.5038 117.05 70.7235 116.634 71.1628C116.24 71.6019 116.043 72.096 116.043 72.6451C116.043 73.0623 116.164 73.4247 116.404 73.7322C116.645 74.0177 116.897 74.2374 117.159 74.391C117.422 74.5228 117.838 74.6985 118.407 74.9181C118.495 74.9401 118.703 75.0279 119.031 75.1816C119.382 75.3133 119.611 75.4013 119.721 75.4451C119.83 75.4891 120.016 75.5768 120.279 75.7088C120.564 75.8185 120.772 75.9283 120.903 76.0382C121.034 76.1259 121.188 76.2467 121.363 76.4004C121.56 76.5542 121.724 76.719 121.855 76.8946C122.315 77.4656 122.545 78.1903 122.545 79.0688C122.545 80.4962 122.107 81.5723 121.231 82.297C120.378 82.9998 119.36 83.3512 118.177 83.3512C117.039 83.3512 116.054 83.0328 115.222 82.3959C114.39 81.759 113.832 80.8915 113.547 79.7934L114.828 79.3982C115.047 80.2547 115.463 80.9245 116.076 81.4077C116.711 81.8689 117.411 82.0994 118.177 82.0994C119.031 82.0994 119.743 81.8249 120.312 81.2758C120.881 80.7049 121.166 79.9911 121.166 79.1346C121.166 78.4319 120.947 77.8937 120.509 77.5205C120.071 77.1252 119.294 76.697 118.177 76.2358C116.645 75.5989 115.671 75.006 115.255 74.4569C114.861 73.9299 114.664 73.3479 114.664 72.711C114.664 71.7008 115.003 70.8772 115.682 70.2403C116.361 69.5815 117.214 69.2521 118.243 69.2521C119.973 69.2521 121.144 69.9768 121.757 71.4263Z" fill="#7469EF"/>
</svg>
