<svg width="83" height="86" viewBox="0 0 83 86" fill="none" xmlns="http://www.w3.org/2000/svg">
<path d="M83 41.5C83 64.4198 64.4198 83 41.5 83C18.5802 83 1.12635e-05 64.4198 7.25609e-06 41.5C3.24866e-06 18.5802 18.5802 -3.24866e-06 41.5 -7.25609e-06C64.4198 -1.12635e-05 83 18.5802 83 41.5Z" fill="url(#paint0_linear_3265_11024)"/>
<mask id="mask0_3265_11024" style="mask-type:alpha" maskUnits="userSpaceOnUse" x="1" y="5" width="82" height="81">
<rect x="1" y="5.99951" width="82" height="80" fill="white"/>
</mask>
<g mask="url(#mask0_3265_11024)">
<path fill-rule="evenodd" clip-rule="evenodd" d="M18.0833 15.9995C14.3147 15.9995 11.25 18.9895 11.25 22.6662V69.3328C11.25 73.0095 14.3147 75.9995 18.0833 75.9995H45.4167C45.8643 75.9995 46.305 75.9128 46.7184 75.7462C47.1318 75.5795 47.5111 75.3362 47.8322 75.0228L71.7489 51.6895C72.0428 51.4028 72.2512 51.0662 72.4186 50.7128C72.4664 50.6128 72.4938 50.5095 72.5313 50.4028C72.627 50.1228 72.6885 49.8362 72.7056 49.5395C72.7124 49.4695 72.75 49.4028 72.75 49.3328V22.6662C72.75 18.9895 69.6853 15.9995 65.9167 15.9995H18.0833ZM65.9167 22.6662V45.9995H45.4167C43.5273 45.9995 42 47.4928 42 49.3328V69.3328H18.0833V22.6662H65.9167ZM48.8333 52.6662H61.0855L48.8333 64.6195V52.6662Z" fill="#7469EF"/>
</g>
<defs>
<linearGradient id="paint0_linear_3265_11024" x1="41.5" y1="-7.22125e-06" x2="42.0845" y2="45.5915" gradientUnits="userSpaceOnUse">
<stop offset="0.998225" stop-color="#F3DDD3"/>
<stop offset="1" stop-color="#C4C4C4" stop-opacity="0"/>
</linearGradient>
</defs>
</svg>
