<svg width="463" height="389" viewBox="0 0 463 389" fill="none" xmlns="http://www.w3.org/2000/svg">
<g filter="url(#filter0_d_2513_7450)">
<path fill-rule="evenodd" clip-rule="evenodd" d="M80.6328 193.014C80.6328 193.619 81.1252 194.111 81.7307 194.111V194.055H159.228H200.251H215.467H256.483H273.283H317.057H340.856H384.592H415.017C415.622 194.055 416.115 193.562 416.115 192.957C416.115 192.352 415.622 191.86 415.017 191.86H385.784L387.269 178.079V178.073V178.067V178.061V178.055V178.048V178.042V178.035V178.029V178.023C387.269 178.001 387.268 177.977 387.268 177.952C387.267 177.93 387.266 177.907 387.263 177.886V177.88V177.874V177.867V177.861V177.855V177.849V177.842L387.257 177.811L387.25 177.774V177.767V177.761V177.755L387.237 177.718V177.712V177.705V177.699V177.693V177.687V177.68V177.674V177.668L387.231 177.643L387.225 177.63L387.219 177.624V177.618V177.612L376.352 143.659L382.022 114.496L391.729 131.494C391.935 131.862 392.347 132.093 392.79 132.049C393.388 131.993 393.832 131.457 393.775 130.858L388.89 79.0347C388.884 78.8851 388.847 78.7355 388.784 78.6045L388.753 78.5422L370.157 39.701C370.057 39.4516 369.864 39.2334 369.602 39.1149L369.484 39.0713H369.471L369.446 39.065L314.112 21.032C313.963 20.9696 313.788 20.9447 313.62 20.9633L248.985 21.3312L174.02 2.04483C173.739 1.96377 173.445 1.99495 173.202 2.11966L121.419 28.9573L99.7653 26.1388C99.1729 26.064 98.6177 26.4818 98.5429 27.0804C98.4991 27.3984 98.6051 27.7102 98.7986 27.9347L108.755 40.5553L103.159 60.6773L96.1034 79.3404L84.9931 101.021L72.7035 88.2568C72.4603 87.7022 71.8117 87.4586 71.2624 87.7022C70.8138 87.8954 70.5701 88.3567 70.6204 88.8181L71.1672 109.622C71.1714 109.662 71.1702 109.734 71.169 109.813C71.1666 109.955 71.1642 110.122 71.1924 110.186L66.8471 113.072L47.9316 69.1453C47.6945 68.5967 47.052 68.3406 46.4967 68.5775C46.0414 68.7708 45.7918 69.2327 45.8417 69.7L51.9178 123.743C51.9303 123.855 51.9615 123.961 52.0052 124.061L52.0114 124.074L52.0176 124.086V124.092L52.0676 124.18V124.186L52.0987 124.229L52.1049 124.236L52.1112 124.249L52.1175 124.261L52.1237 124.273V124.28L52.1361 124.292L52.1424 124.298L52.1486 124.311L52.1611 124.323L52.1736 124.335L52.1798 124.342L52.1861 124.348L52.1986 124.36L52.211 124.373L52.2172 124.379L52.2235 124.386L52.236 124.398L52.2422 124.404L52.2609 124.423L52.2734 124.435L52.2797 124.442L52.2859 124.448L52.2983 124.46L52.3109 124.473L52.3171 124.479L52.3233 124.486L52.3358 124.497H52.342L52.3608 124.517L52.3794 124.529L52.3857 124.535L52.3982 124.541L52.4106 124.548L52.4169 124.554L52.4481 124.579L52.4605 124.585L52.4917 124.603L52.5042 124.61L77.2015 139.606L90.2643 157.833C90.3829 158.001 90.5393 158.126 90.7201 158.201L105.598 166.132C106.085 166.388 106.684 166.245 106.996 165.814L116.016 153.549L148.711 134.113L167.956 177.911L158.642 191.916H81.7307C81.1252 191.916 80.6328 192.409 80.6328 193.014ZM83.267 102.168L73.2779 108.801L72.3417 90.5443L83.267 102.168ZM195.442 191.916H161.275L169.584 179.42L195.442 191.916ZM212.154 143.136L169.634 176.29L151.019 133.919L212.154 143.136ZM108.605 130.739L145.66 133.383L114.875 151.685L93.371 155.669L108.605 130.739ZM94.4252 157.696L112.747 154.297L105.792 163.756L94.4252 157.696ZM105.586 131.481L91.0879 155.208L79.753 139.388L105.586 131.481ZM83.2532 104.581L76.7337 136.763L55.6795 123.98L83.2532 104.581ZM85.2866 102.901L85.2991 103.048L78.9235 137.318L106.06 129.012L85.2991 103.048V103.041V103.035V103.029V103.023V103.017V103.01V103.004V102.997V102.991V102.985V102.979V102.973V102.966V102.96V102.954V102.948V102.942V102.935V102.929V102.923V102.917V102.91V102.904V102.898V102.892V102.886V102.879V102.873L85.2932 102.854V102.848V102.842V102.835V102.829L85.2866 102.811V102.804L85.2806 102.786V102.78L85.2752 102.763L85.2746 102.755V102.76L85.2752 102.763L85.2866 102.901ZM108.549 128.538L86.5401 102.804L97.4013 81.6099L146.397 131.238L108.549 128.538ZM173.783 71.209L98.7675 78.5171L105.224 61.4318L105.255 61.3382L110.782 41.4657L158.262 43.8352L173.783 71.209ZM119.092 30.8715L110.108 38.747L102.154 28.6642L119.092 30.8715ZM112.716 39.3643L122.248 31.0087L171.699 5.37459L158.174 41.6341L112.716 39.3643ZM160.121 42.6691L174.394 4.40186L246.253 22.8901L175.935 70.5544L160.121 42.6691ZM287.5 53.9367L251.811 23.5075L312.989 23.1583L323.732 54.4792L311.941 110L287.868 54.4044L287.856 54.3732V54.367L287.85 54.3607V54.3545L287.837 54.3295V54.3233L287.83 54.3171L287.824 54.3108L287.818 54.3046L287.812 54.2983L287.806 54.2921V54.2859L287.799 54.2797L287.793 54.2734L287.787 54.2672L287.781 54.2609L287.775 54.2547L287.768 54.2485L287.762 54.2423L287.756 54.236V54.2298L287.75 54.2235L287.743 54.2173L287.737 54.211L287.731 54.2048L287.724 54.1986L287.718 54.1924L287.712 54.1861L287.706 54.1799V54.1736L287.7 54.1674L287.693 54.1612V54.1549L287.687 54.1487L287.681 54.1425V54.1362V54.13L287.675 54.1237L287.668 54.1175V54.1113L287.662 54.1051L287.656 54.0988L287.65 54.0926L287.644 54.0863V54.0801L287.637 54.0739L287.631 54.0677V54.0614L287.625 54.0552L287.618 54.049L287.612 54.0427L287.606 54.0364L287.6 54.0302L287.593 54.024L287.587 54.0178L287.581 54.0116L287.575 54.0053L287.569 53.999L287.562 53.9928L287.556 53.9866L287.55 53.9803L287.544 53.9741L287.538 53.9679L287.531 53.9617H287.525L287.519 53.9554L287.512 53.9491L287.5 53.9367ZM325.871 54.049L315.485 23.7818L367.656 40.7798L349.839 79.2967L314.025 110.593L325.909 54.6289C325.946 54.4293 325.934 54.2298 325.871 54.049ZM352.459 78.8348L369.178 42.6941L386.096 78.0372L352.459 78.8348ZM391.142 126.032L382.684 111.222L387.443 86.7544L391.142 126.032ZM351.156 81.0546L386.483 80.2134L374.299 142.899L356.832 148.623L320.538 136.233L313.526 113.941L351.156 81.0546ZM358.897 150.244L374.543 145.119L383.863 174.232L358.897 150.244ZM364.617 177.949L385.005 179.046L383.707 191.074L364.617 177.949ZM206.908 177.655L199.74 191.56L171.262 177.799L213.208 145.087L206.908 177.655ZM225.928 175.847L216.059 142.705L235.934 120.451L264.443 133.315L225.928 175.847ZM217.5 191.916L225.816 179.42L251.667 191.916H217.5ZM262.865 177.724L255.959 191.554L227.226 177.668L265.011 135.933L262.865 177.724ZM275.772 157.484L267.363 132.76L268.823 84.4843L286.614 57.0856L311.012 113.417L275.772 157.484ZM292.241 175.467L276.833 159.653L311.842 115.868L318.536 137.149L314.886 155.332L292.241 175.467ZM274.892 188.792L292.166 178.272L313.308 191.922H274.512L274.892 188.792ZM317.325 179.364L316.121 191.124L293.988 176.839L315.023 158.138L317.325 179.364ZM330.351 157.465L321.736 138.951L353.408 149.764L330.351 157.465ZM361.112 175.567L332.422 159.08L356.539 151.018L383.332 176.764L361.112 175.567ZM342.503 188.798L360.756 177.942L381.08 191.916H342.128L342.503 188.798ZM340.394 188.006L339.92 191.916V191.935H318.249L319.521 179.489C319.527 179.414 319.527 179.339 319.521 179.264L316.995 155.975L320.083 140.592L328.779 159.285V159.292L328.797 159.323L328.804 159.329L328.81 159.342L328.828 159.373V159.379L328.835 159.385L328.86 159.423L328.903 159.485V159.491C328.934 159.529 328.966 159.566 329.003 159.604L329.009 159.61L329.06 159.653L329.097 159.684L329.103 159.691L329.122 159.704L329.134 159.71L329.147 159.716L329.153 159.722L329.166 159.728H329.172L329.178 159.735L329.228 159.766L329.24 159.772L329.246 159.778L329.297 159.803L358.635 176.664L340.925 187.195C340.619 187.37 340.432 187.676 340.394 188.006ZM272.784 188.006L272.31 191.916H258.236L264.93 178.509C265.005 178.354 265.042 178.179 265.042 178.011L267.064 138.689L274.337 160.084C274.4 160.258 274.499 160.414 274.63 160.533L290.444 176.764L273.301 187.202C273.002 187.383 272.821 187.682 272.784 188.006ZM224.238 177.842L214.874 191.916V191.922H202.023L208.929 178.522C208.973 178.429 209.01 178.329 209.029 178.229L215.061 147.033L224.238 177.842ZM175.691 74.5884L212.797 141.016L150.801 131.669L175.691 74.5884ZM99.5161 80.637L173.82 73.3977L148.867 130.621L99.5161 80.637ZM266.645 84.1415L265.217 131.257L236.708 118.393L233.851 72.3129L249.403 24.3305L285.366 54.9905L266.82 83.5491C266.702 83.7298 266.645 83.9356 266.645 84.1415ZM234.537 118.73L215.042 140.56L177.008 72.4751L246.845 25.1224L231.711 71.8014C231.661 71.9384 231.642 72.082 231.649 72.2316L234.537 118.73ZM65.168 114.262L53.9515 122.215L48.8361 76.7215L65.168 114.262Z" fill="white"/>
<path d="M95.8406 372.393L6 370.886L95.8406 369.379V372.393Z" fill="white"/>
<path d="M367.159 369.379L457 370.875L367.159 372.371V369.379Z" fill="white"/>
<path d="M131.949 363.987H133.89L138.375 372.452L142.126 363.987H143.851L137.361 378.354H135.636L137.469 374.347L131.949 363.987ZM153.303 378.354V372.193C151.966 372.294 150.974 372.344 150.328 372.344C148.617 372.344 147.431 372.086 146.77 371.569C145.893 370.894 145.455 369.781 145.455 368.23V363.987H147.05V368.015C147.05 369.178 147.338 369.968 147.913 370.384C148.315 370.686 149.149 370.836 150.414 370.836C151.262 370.836 152.225 370.786 153.303 370.686V363.987H154.899V378.354H153.303ZM168.608 378.354V367.39L158.604 379V363.987H160.199V374.994L170.204 363.384V378.354H168.608ZM184.908 365.171V367.153C184.334 366.579 183.708 366.133 183.033 365.818C182.213 365.444 181.387 365.258 180.553 365.258C178.9 365.258 177.52 365.839 176.413 367.002C175.321 368.151 174.774 369.566 174.774 371.246C174.774 373.055 175.371 374.484 176.564 375.532C177.772 376.58 179.108 377.105 180.575 377.105C181.495 377.105 182.386 376.882 183.248 376.437C183.852 376.135 184.405 375.733 184.908 375.231V377.212C183.6 378.146 182.156 378.612 180.575 378.612C178.447 378.612 176.672 377.902 175.249 376.48C173.84 375.058 173.136 373.306 173.136 371.224C173.136 369.084 173.847 367.304 175.27 365.882C176.708 364.461 178.505 363.75 180.661 363.75C182.242 363.75 183.658 364.224 184.908 365.171ZM187.851 378.354V363.987H189.447V369.953H191.387C194.693 369.953 196.346 371.303 196.346 374.003C196.346 375.353 195.922 376.415 195.074 377.191C194.241 377.966 193.112 378.354 191.689 378.354H187.851ZM189.447 371.461V376.846H191.301C192.523 376.846 193.407 376.58 193.953 376.049C194.456 375.575 194.708 374.893 194.708 374.003C194.708 372.969 194.32 372.244 193.543 371.827C193.098 371.583 192.293 371.461 191.128 371.461H189.447ZM205.744 363.987V369.824H213.118V363.987H214.714V378.354H213.118V371.332H205.744V378.354H204.149V363.987H205.744ZM228.042 378.354L226.36 374.304H220.236L218.511 378.354H216.743L223.363 363.297L229.81 378.354H228.042ZM220.862 372.797H225.734L223.32 367.045L220.862 372.797ZM236.871 363.987H247.436V378.354H245.84V365.494H238.466V378.354H236.871V363.987ZM251.147 363.987H253.756C255.394 363.987 256.602 364.324 257.378 364.999C258.255 365.746 258.693 366.773 258.693 368.079C258.693 369.199 258.312 370.154 257.551 370.944C256.803 371.72 255.668 372.107 254.144 372.107H252.742V378.354H251.147V363.987ZM252.742 365.494V370.599H254.058C255.006 370.599 255.747 370.37 256.279 369.91C256.825 369.451 257.098 368.812 257.098 367.993C257.098 366.327 256.041 365.494 253.928 365.494H252.742ZM269.565 378.354L267.883 374.304H261.759L260.034 378.354H258.266L264.886 363.297L271.333 378.354H269.565ZM262.385 372.797H267.258L264.843 367.045L262.385 372.797ZM274.957 363.987V370.147L281.081 363.987H283.237L276.509 370.686L283.452 378.354H281.253L275.367 371.763L274.957 372.172V378.354H273.361V363.987H274.957ZM292.435 365.494H288.942V378.354H287.346V365.494H283.853V363.987H292.435V365.494ZM304.591 378.354V367.39L294.586 379V363.987H296.182V374.994L306.186 363.384V378.354H304.591ZM311.49 363.987V370.147L317.613 363.987H319.77L313.042 370.686L319.985 378.354H317.786L311.899 371.763L311.49 372.172V378.354H309.894V363.987H311.49ZM329.609 363.987V365.494H323.745V369.759H329.437V371.267H323.745V376.846H329.609V378.354H322.149V363.987H329.609Z" fill="white"/>
<path d="M22.5139 305.753H6.62061V225.331H22.5139C34.7951 225.331 44.6681 229.069 52.1332 236.544C56.0664 240.483 58.9561 245.065 60.8022 250.29C62.7287 255.515 63.6919 260.619 63.6919 265.603C63.6919 270.506 62.7688 275.57 60.9226 280.795C59.0765 285.94 56.1466 290.522 52.1332 294.54C44.6681 302.016 34.7951 305.753 22.5139 305.753ZM11.9184 230.154V300.931H22.3935C32.989 300.931 41.5778 297.675 48.1599 291.164C54.8222 284.573 58.1534 276.053 58.1534 265.603C58.1534 255.233 54.8222 246.753 48.1599 240.161C41.4975 233.49 32.9087 230.154 22.3935 230.154H11.9184ZM121.486 281.76H79.4656C79.4656 287.869 81.3522 292.852 85.1243 296.711C88.9773 300.569 93.5927 302.498 98.9706 302.498C102.824 302.498 106.235 301.493 109.205 299.483C112.175 297.394 114.463 294.661 116.068 291.284L120.162 293.696C118.316 297.233 115.626 300.368 112.095 303.101C108.563 305.753 104.068 307.08 98.6094 307.08C91.1448 307.08 85.2447 304.669 80.9102 299.845C76.5757 294.942 74.4087 288.793 74.4087 281.398C74.4087 273.279 76.7362 266.929 81.3917 262.347C86.1275 257.766 91.7468 255.475 98.2482 255.475C104.911 255.475 110.449 257.926 114.864 262.829C119.279 267.733 121.486 274.043 121.486 281.76ZM79.8267 277.177H116.43C115.788 272.194 113.78 268.095 110.409 264.879C107.119 261.664 103.064 260.056 98.2482 260.056C93.3519 260.056 89.2181 261.704 85.8466 265C82.4758 268.215 80.4688 272.274 79.8267 277.177ZM181.705 281.76H139.684C139.684 287.869 141.57 292.852 145.343 296.711C149.196 300.569 153.811 302.498 159.19 302.498C163.042 302.498 166.453 301.493 169.424 299.483C172.393 297.394 174.681 294.661 176.287 291.284L180.381 293.696C178.533 297.233 175.845 300.368 172.313 303.101C168.781 305.753 164.286 307.08 158.828 307.08C151.363 307.08 145.463 304.669 141.129 299.845C136.794 294.942 134.627 288.793 134.627 281.398C134.627 273.279 136.955 266.929 141.61 262.347C146.346 257.766 151.965 255.475 158.467 255.475C165.129 255.475 170.668 257.926 175.082 262.829C179.497 267.733 181.705 274.043 181.705 281.76ZM140.045 277.177H176.648C176.005 272.194 173.999 268.095 170.627 264.879C167.336 261.664 163.283 260.056 158.467 260.056C153.57 260.056 149.436 261.704 146.065 265C142.694 268.215 140.687 272.274 140.045 277.177ZM197.417 296.952V333.486H192.601V256.559H197.417V265.12C202.153 258.689 208.575 255.475 216.682 255.475C223.907 255.475 229.686 257.886 234.02 262.709C238.355 267.452 240.522 273.48 240.522 280.795C240.522 288.271 238.315 294.54 233.9 299.604C229.565 304.588 223.746 307.08 216.441 307.08C212.749 307.08 209.418 306.357 206.448 304.91C203.478 303.382 201.431 302.016 200.307 300.81C199.184 299.524 198.221 298.238 197.417 296.952ZM202.234 296.349C205.605 300.449 210.301 302.498 216.321 302.498C222.341 302.498 227.037 300.449 230.408 296.349C233.779 292.25 235.465 287.064 235.465 280.795C235.465 274.284 233.619 269.22 229.926 265.603C226.234 261.905 221.739 260.056 216.441 260.056C211.224 260.056 206.689 261.865 202.836 265.482C199.063 269.099 197.177 274.123 197.177 280.554C197.177 286.904 198.863 292.169 202.234 296.349ZM295.292 235.7L291.439 238.956C288.068 232.364 282.811 229.069 275.666 229.069C271.091 229.069 267.439 230.516 264.71 233.41C262.061 236.303 260.736 239.84 260.736 244.02C260.736 246.11 261.018 247.918 261.579 249.446C262.222 250.973 263.305 252.38 264.83 253.666C266.436 254.952 267.84 255.957 269.044 256.68C270.248 257.323 272.175 258.288 274.823 259.574C283.492 263.754 288.831 266.567 290.837 268.014C296.537 271.953 299.386 277.137 299.386 283.568C299.386 290.24 296.938 295.826 292.041 300.328C287.145 304.829 281.245 307.08 274.342 307.08C266.717 307.08 260.496 304.267 255.68 298.64C253.352 295.907 251.626 292.973 250.502 289.838L255.078 287.668C256.041 290.561 257.485 293.133 259.412 295.384C263.024 299.966 268.041 302.257 274.462 302.257C279.921 302.257 284.496 300.488 288.188 296.952C291.961 293.415 293.847 288.994 293.847 283.689C293.847 278.464 291.239 274.244 286.021 271.028C283.694 269.662 279.158 267.331 272.416 264.035C268.001 261.865 264.75 260.096 262.663 258.73C260.656 257.364 259.011 255.595 257.726 253.425C256.041 250.611 255.198 247.557 255.198 244.261C255.198 239.036 256.964 234.414 260.496 230.395C264.028 226.296 269.125 224.246 275.787 224.246C279.88 224.246 283.654 225.251 287.105 227.26C290.556 229.19 293.286 232.003 295.292 235.7ZM314.517 224.246H319.333V277.66L339.561 256.559H345.822L325.113 277.901L352.565 305.753H346.063L321.862 281.398L319.333 283.93V305.753H314.517V224.246ZM361.079 256.559H365.895V305.753H361.079V256.559ZM366.498 243.417C365.695 244.221 364.692 244.623 363.488 244.623C362.284 244.623 361.241 244.221 360.357 243.417C359.555 242.533 359.153 241.448 359.153 240.161C359.153 238.876 359.555 237.831 360.357 237.027C361.241 236.142 362.284 235.7 363.488 235.7C364.692 235.7 365.695 236.142 366.498 237.027C367.381 237.831 367.822 238.876 367.822 240.161C367.822 241.448 367.381 242.533 366.498 243.417ZM383.185 224.246H388.001V305.753H383.185V224.246ZM405.291 224.246H410.107V305.753H405.291V224.246ZM452.44 263.432L448.346 265.603C446.741 261.905 443.891 260.056 439.797 260.056C437.229 260.056 435.182 260.86 433.657 262.468C432.212 264.075 431.489 265.884 431.489 267.894C431.489 269.421 431.931 270.747 432.814 271.873C433.697 272.917 434.62 273.721 435.583 274.284C436.547 274.766 438.072 275.409 440.158 276.213C440.48 276.294 441.242 276.615 442.446 277.177C443.731 277.66 444.574 277.982 444.975 278.142C445.376 278.303 446.058 278.624 447.022 279.107C448.066 279.509 448.827 279.911 449.309 280.313C449.791 280.634 450.353 281.076 450.995 281.639C451.717 282.202 452.319 282.805 452.801 283.447C454.487 285.537 455.329 288.19 455.329 291.405C455.329 296.63 453.724 300.569 450.513 303.221C447.383 305.794 443.65 307.08 439.316 307.08C435.142 307.08 431.529 305.914 428.48 303.583C425.429 301.252 423.383 298.077 422.339 294.058L427.034 292.611C427.838 295.746 429.362 298.198 431.61 299.966C433.938 301.654 436.507 302.498 439.316 302.498C442.446 302.498 445.055 301.493 447.142 299.483C449.229 297.394 450.273 294.781 450.273 291.646C450.273 289.074 449.469 287.104 447.864 285.738C446.259 284.292 443.409 282.724 439.316 281.036C433.697 278.705 430.125 276.535 428.6 274.525C427.155 272.596 426.432 270.466 426.432 268.135C426.432 264.437 427.676 261.423 430.165 259.092C432.654 256.68 435.784 255.475 439.556 255.475C445.898 255.475 450.192 258.127 452.44 263.432Z" fill="white"/>
</g>
<defs>
<filter id="filter0_d_2513_7450" x="0" y="0" width="463" height="389" filterUnits="userSpaceOnUse" color-interpolation-filters="sRGB">
<feFlood flood-opacity="0" result="BackgroundImageFix"/>
<feColorMatrix in="SourceAlpha" type="matrix" values="0 0 0 0 0 0 0 0 0 0 0 0 0 0 0 0 0 0 127 0" result="hardAlpha"/>
<feOffset dy="4"/>
<feGaussianBlur stdDeviation="3"/>
<feComposite in2="hardAlpha" operator="out"/>
<feColorMatrix type="matrix" values="0 0 0 0 0 0 0 0 0 0 0 0 0 0 0 0 0 0 0.25 0"/>
<feBlend mode="normal" in2="BackgroundImageFix" result="effect1_dropShadow_2513_7450"/>
<feBlend mode="normal" in="SourceGraphic" in2="effect1_dropShadow_2513_7450" result="shape"/>
</filter>
</defs>
</svg>
