<svg width="93" height="93" viewBox="0 0 93 93" fill="none" xmlns="http://www.w3.org/2000/svg">
<circle cx="46.668" cy="46.7471" r="46" fill="#7469EF"/>
<path d="M44.8823 19.6183C36.0687 20.6297 28.8171 27.4848 27.2552 36.2504C26.1396 42.8807 28.1477 49.2863 32.7218 54.0063C37.8538 59.2881 36.8497 64.6822 36.9613 65.5813H39.1925C38.8578 66.0308 38.6347 66.5927 38.6347 67.267C38.6347 68.166 39.081 69.065 39.7503 69.5145C39.081 70.0764 38.6347 70.8631 38.6347 71.7621C38.6347 72.6611 39.081 73.5602 39.7503 74.0097C39.081 74.5716 38.6347 75.3582 38.6347 76.2573C38.6347 77.8306 39.8619 79.0667 41.4238 79.0667H42.651C42.9857 81.3143 44.8823 83 47.2251 83C49.568 83 51.4645 81.3143 51.7992 79.0667H53.0264C54.5883 79.0667 55.8155 77.8306 55.8155 76.2573C55.8155 75.3582 55.3693 74.4592 54.6999 74.0097C55.3693 73.4478 55.8155 72.6611 55.8155 71.7621C55.8155 70.8631 55.3693 69.9641 54.6999 69.5145C55.3693 68.9526 55.8155 68.166 55.8155 67.267C55.8155 66.5927 55.5924 66.0308 55.2577 65.5813H57.489C57.489 64.7946 56.4849 59.1757 61.5053 54.1186C65.2984 50.2977 67.4182 45.2407 67.4182 39.7341C67.4182 28.4962 58.3815 19.3936 47.2251 19.3936C46.4442 19.5059 45.6632 19.5059 44.8823 19.6183ZM47.2251 81.9886C45.5517 81.9886 44.1013 80.7524 43.7666 79.1791H50.6836C50.3489 80.7524 48.8986 81.9886 47.2251 81.9886ZM54.6999 76.2573C54.6999 77.1563 53.9189 77.943 53.0264 77.943C47.8945 77.943 44.8823 77.943 41.5354 77.943C40.6429 77.943 39.8619 77.1563 39.8619 76.2573C39.8619 75.3582 40.6429 74.5716 41.5354 74.5716H53.0264C53.9189 74.5716 54.6999 75.3582 54.6999 76.2573ZM54.6999 71.7621C54.6999 72.6611 53.9189 73.4478 53.0264 73.4478H41.5354C40.6429 73.4478 39.8619 72.6611 39.8619 71.7621C39.8619 70.8631 40.6429 70.0764 41.5354 70.0764H53.0264C53.9189 70.0764 54.6999 70.8631 54.6999 71.7621ZM53.0264 68.9526H41.5354C40.6429 68.9526 39.8619 68.166 39.8619 67.267C39.8619 66.3679 40.6429 65.5813 41.5354 65.5813H53.0264C53.9189 65.5813 54.6999 66.3679 54.6999 67.267C54.6999 68.166 53.9189 68.9526 53.0264 68.9526ZM66.3025 39.7341C66.3025 44.9036 64.2944 49.7359 60.7243 53.332C55.9271 58.1643 56.2618 64.2327 56.2618 64.3451C46.1095 64.3451 48.2292 64.3451 38.1885 64.3451C38.1885 64.1203 38.7463 58.389 33.6143 53.1072C29.2634 48.6121 27.3668 42.5436 28.4824 36.2504C29.9327 27.9344 36.7381 21.4164 45.1054 20.5173C45.8864 20.405 46.5557 20.405 47.3367 20.405C57.7121 20.6297 66.3025 29.1705 66.3025 39.7341Z" fill="white"/>
<path d="M47.7843 10.6279H46.668V15.4602H47.7843V10.6279Z" fill="white"/>
<path d="M35.8599 17.9266L33.4609 13.7412L32.4944 14.3034L34.8933 18.4888L35.8599 17.9266Z" fill="white"/>
<path d="M26.7466 26.276L22.5908 23.8604L22.0329 24.8343L26.1886 27.25L26.7466 26.276Z" fill="white"/>
<path d="M23.016 37.9358H18.2188V39.0605H23.016V37.9358Z" fill="white"/>
<path d="M26.1454 50.946L25.5869 49.9724L21.4326 52.3905L21.9911 53.3641L26.1454 50.946Z" fill="white"/>
<path d="M66.4287 52.0037L70.584 54.4204L71.1422 53.4466L66.9869 51.0299L66.4287 52.0037Z" fill="white"/>
<path d="M75.0052 39.1721H70.208V40.2969H75.0052V39.1721Z" fill="white"/>
<path d="M67.0811 27.282L67.6396 28.2556L71.794 25.8375L71.2355 24.8639L67.0811 27.282Z" fill="white"/>
<path d="M60.8467 14.4425L58.4473 18.6279L59.4138 19.1902L61.8133 15.0048L60.8467 14.4425Z" fill="white"/>
<path d="M39.6389 31.1933C37.7424 30.519 35.7342 31.8675 35.1764 33.8904C34.8417 35.0142 35.0648 36.0256 35.8458 36.9246C34.3954 37.4865 33.5029 38.835 33.5029 40.296C33.5029 41.7569 34.2839 43.2178 35.7342 43.6673C35.0648 44.5664 34.8417 45.6901 35.1764 46.8139C35.7342 48.7244 37.8539 49.8482 39.6389 49.2863C40.1968 53.7814 46.779 53.3319 46.779 48.8368V31.6428C46.779 27.1476 40.0852 26.8105 39.6389 31.1933ZM45.6634 33.2161C44.213 32.2047 42.0933 33.2161 42.0933 35.1265H43.209C43.209 34.4523 43.7668 34.0027 44.3246 34.0027C44.8824 34.0027 45.4402 34.5646 45.4402 35.1265H45.5518V45.4654C43.6552 44.454 41.9818 45.353 41.3124 46.1397L42.0933 46.9263C42.2049 46.8139 43.6552 45.353 45.4402 46.8139V48.9491C45.4402 52.5453 39.8621 51.9834 40.5314 48.612L40.7546 47.2635C39.8621 47.713 39.3042 48.3872 38.3002 48.3872C36.292 48.3872 34.8417 45.353 36.9614 43.7797L37.9655 43.1054C38.6349 42.8807 39.6389 42.7683 40.643 43.7797L41.424 42.9931C40.9777 42.6559 40.643 42.3188 40.1968 42.2064C40.4199 41.5321 40.8661 41.3074 41.5355 41.4197L41.6471 40.296C40.3083 40.1836 39.4158 40.8579 39.1927 41.9816C38.077 41.8693 37.1845 42.4312 36.6267 42.8807C35.1764 42.7683 34.507 41.5321 34.507 40.4083C34.507 39.1722 35.2879 38.0484 36.8498 37.936C37.8539 38.3855 39.0811 38.3855 40.3083 37.5989C40.643 37.936 40.9777 38.1608 41.5355 38.4979L41.9818 37.4865C40.3083 36.6998 40.4199 35.2389 40.4199 35.1265C40.3083 35.1265 39.1927 35.0142 39.3042 35.0142C39.3042 35.0142 39.3042 35.8008 39.6389 36.6998C37.6308 37.936 35.6226 36.3627 36.1805 34.3399C36.6267 32.7666 38.1886 31.7552 39.8621 32.7666L40.9777 33.5532C40.8661 32.7666 40.1968 31.5304 41.2008 30.2942C42.6512 28.4962 45.5518 29.5076 45.5518 31.8675V33.2161H45.6634Z" fill="white"/>
<path d="M51.3536 52.4328C53.1387 52.4328 54.7005 51.0842 54.9237 49.2862C58.2706 50.2976 60.8365 46.3643 58.8284 43.6672C61.8406 42.6558 61.8406 37.9359 58.8284 36.9245C60.9481 34.3398 58.159 30.1818 54.9237 31.3055C54.7005 29.6199 53.2502 28.1589 51.3536 28.1589C49.3455 28.1589 47.7836 29.7322 47.7836 31.7551V48.949C47.672 50.8595 49.3455 52.4328 51.3536 52.4328ZM48.7877 46.7015C50.5727 45.2405 52.023 46.7015 52.2461 46.8138L53.0271 46.0272C52.3577 45.2405 50.6842 44.3415 48.7877 45.3529V35.014H48.8992C48.8992 33.4407 51.2421 33.4407 51.2421 35.014H52.3577C52.3577 33.216 50.3496 32.0922 48.7877 33.1036V31.5303C48.7877 30.1818 49.9033 29.058 51.2421 29.058C52.023 29.058 52.6924 29.3951 53.1387 29.957C54.1427 31.1932 53.4733 32.4293 53.3618 33.216C54.2543 32.7665 54.8121 32.0922 55.8162 32.0922C57.9359 32.0922 59.3862 35.3512 57.0434 36.6997C57.0434 36.6997 55.9277 37.2616 54.7005 36.475C55.1468 35.5759 55.0352 34.9017 55.0352 34.7893L53.9196 34.9017C53.9196 34.9017 54.0312 36.3626 52.3577 37.2616L52.804 38.273C53.3618 38.0483 53.6965 37.7111 54.0312 37.374C55.2584 38.1607 56.4856 38.1607 57.4896 37.7111C60.6134 37.7111 60.6134 42.3187 57.7128 42.6558C57.1549 42.0939 56.1509 41.6444 55.1468 41.7568C54.8121 40.633 54.0312 39.9587 52.6924 40.0711L52.804 41.1949C53.4733 41.0825 53.9196 41.3073 54.1427 41.9815C53.6965 42.2063 53.3618 42.4311 52.9155 42.7682L53.6965 43.5548C55.7046 41.7568 57.0434 43.4425 57.3781 43.5548C60.0556 45.3529 57.3781 49.3985 54.7005 47.7129L53.5849 47.0386C53.808 48.2748 53.9196 48.3871 53.9196 48.7243C53.9196 50.0728 52.804 51.1966 51.4652 51.1966C50.1264 51.1966 49.0108 50.0728 49.0108 48.7243V46.7015H48.7877Z" fill="white"/>
</svg>
